SplineFontDB: 3.0
FontName: NTR-Regular
FullName: NTR Regular
FamilyName: NTR
OS2StyleName: "regular"
Weight: Regular
Copyright: This font is copyright of SiliconAndhra, USA.
Version: 0.300
ItalicAngle: 0
UnderlinePosition: 0
UnderlineWidth: 0
Ascent: 819
Descent: 205
InvalidEm: 1
UFOAscent: 875
UFODescent: -250
LayerCount: 2
Layer: 0 0 "Back" 1
Layer: 1 0 "Fore" 0
PreferredKerning: 1
FSType: 0
OS2Version: 0
OS2_WeightWidthSlopeOnly: 0
OS2_UseTypoMetrics: 0
CreationTime: 1417875479
ModificationTime: 1417875921
PfmFamily: 16
TTFWeight: 400
TTFWidth: 5
LineGap: 0
VLineGap: 0
OS2TypoAscent: 0
OS2TypoAOffset: 1
OS2TypoDescent: 0
OS2TypoDOffset: 1
OS2TypoLinegap: 0
OS2WinAscent: 0
OS2WinAOffset: 1
OS2WinDescent: 0
OS2WinDOffset: 1
HheadAscent: 0
HheadAOffset: 1
HheadDescent: 0
HheadDOffset: 1
OS2CapHeight: 596
OS2XHeight: 410
Lookup: 4 0 0 "NTR-'nukt' Nukta Forms in Telugu lookup 0" { "NTR-'nukt' Nukta Forms in Telugu lookup 0 subtable"  } ['nukt' ('telu' <'dflt' > ) ]
Lookup: 4 0 0 "NTR-'akhn' Akhand in Telugu lookup 1" { "NTR-'akhn' Akhand in Telugu lookup 1 subtable"  } ['akhn' ('telu' <'dflt' > ) ]
Lookup: 4 0 0 "NTR-'blwf' Below Base Forms in Telugu lookup 2" { "NTR-'blwf' Below Base Forms in Telugu lookup 2 subtable"  } ['blwf' ('telu' <'dflt' > ) ]
Lookup: 4 0 0 "NTR-'blws' Below Base Substitutions in Telugu lookup 3" { "NTR-'blws' Below Base Substitutions in Telugu lookup 3 subtable"  } ['blws' ('telu' <'dflt' > ) ]
Lookup: 6 0 0 "NTR-'blws' Below Base Substitutions in Telugu lookup 4" { "NTR-'blws' Below Base Substitutions in Telugu lookup 4 contextual 0"  "NTR-'blws' Below Base Substitutions in Telugu lookup 4 contextual 1"  "NTR-'blws' Below Base Substitutions in Telugu lookup 4 contextual 2"  } ['blws' ('telu' <'dflt' > ) ]

StartChar: .notdef
Encoding: 0 -1 0
GlifName: _notdef
Width: 386
VWidth: 0
Flags: W
LayerCount: 2
Back
Fore
SplineSet
331 0 m 258
 353 0 371 17 371 39 c 258
 371 484 l 258
 371 506 353 524 331 524 c 258
 54 524 l 258
 32 524 15 506 15 484 c 258
 15 39 l 258
 15 17 32 0 54 0 c 258
 331 0 l 258
193 227 m 257
 310 38 l 257
 75 38 l 257
 193 227 l 257
53 452 m 257
 170 262 l 257
 53 72 l 257
 53 452 l 257
215 262 m 257
 333 452 l 257
 333 72 l 257
 215 262 l 257
75 486 m 257
 310 486 l 257
 193 298 l 257
 75 486 l 257
EndSplineSet
PickledDataWithLists: "(dp1
S'com.schriftgestaltung.Glyphs.ColorIndex'
p2
I9
sS'public.markColor'
p3
S'0.98,0.36,0.67,1'
p4
s."
EndChar

StartChar: A
Encoding: 1 65 1
GlifName: A_
Width: 523
VWidth: 0
Flags: W
LayerCount: 2
Back
Fore
SplineSet
86 17 m 258
 134 134 l 257
 389 134 l 257
 438 17 l 258
 444 3 454 -4 467 -4 c 256
 493 -4 504 13 504 26 c 256
 504 33 503 39 500 45 c 257
 309 497 l 258
 300 517 286 527 266 527 c 258
 258 527 l 258
 238 527 224 517 215 497 c 258
 23 45 l 257
 21 39 20 33 20 26 c 256
 20 13 31 -4 57 -4 c 256
 70 -4 80 3 86 17 c 258
  PathStart: -2
262 440 m 257
 363 197 l 257
 161 197 l 257
 262 440 l 257
EndSplineSet
PickledDataWithLists: "(dp1
S'com.schriftgestaltung.Glyphs.ColorIndex'
p2
I9
sS'public.markColor'
p3
S'0.98,0.36,0.67,1'
p4
s."
EndChar

StartChar: AA
Encoding: 2 3078 2
GlifName: A_A_
Width: 738
VWidth: 0
Flags: W
LayerCount: 2
Back
Fore
SplineSet
623 166 m 256
 623 209 602 239 578 263 c 257
 663 287 712 338 712 410 c 256
 712 527 585 541 557 541 c 256
 529 541 408 522 408 412 c 256
 408 368 423 335 445 308 c 257
 196 308 l 258
 179 308 166 295 166 278 c 256
 166 261 179 248 196 248 c 258
 504 248 l 257
 550 206 563 193 563 166 c 256
 563 98 481 50 352 50 c 256
 197 50 91 133 91 253 c 256
 91 367 200 459 334 459 c 256
 351 459 364 472 364 489 c 256
 364 506 351 519 334 519 c 256
 167 519 31 401 31 253 c 256
 31 98 163 -10 352 -10 c 256
 516 -10 623 59 623 166 c 256
  PathStart: -2
468 412 m 256
 468 470 533 481 557 481 c 256
 581 481 652 473 652 410 c 256
 652 358 604 323 518 312 c 257
 489 338 468 365 468 412 c 256
  PathStart: -2
EndSplineSet
PickledDataWithLists: "(dp1
S'com.schriftgestaltung.Glyphs.ColorIndex'
p2
I6
sS'public.markColor'
p3
S'0,0.67,0.91,1'
p4
s."
EndChar

StartChar: AAMatra
Encoding: 3 3134 3
GlifName: A_A_M_atra
Width: 533
VWidth: 0
Flags: W
LayerCount: 2
Back
Fore
SplineSet
513 460 m 256
 513 558 378 620 182 620 c 256
 -15 620 -147 564 -147 472 c 256
 -147 400 -95 368 12 368 c 256
 29 368 42 381 42 396 c 256
 42 411 29 423 12 423 c 256
 -55 423 -87 440 -87 472 c 256
 -87 523 29 560 182 560 c 256
 336 560 453 513 453 460 c 256
 453 428 434 407 400 407 c 256
 367 407 349 428 349 460 c 256
 349 477 336 490 319 490 c 256
 302 490 289 477 289 460 c 256
 289 399 335 357 400 357 c 256
 466 357 513 399 513 460 c 256
  PathStart: -2
EndSplineSet
PickledDataWithLists: "(dp1
S'com.schriftgestaltung.Glyphs.ColorIndex'
p2
I6
sS'public.markColor'
p3
S'0,0.67,0.91,1'
p4
s."
EndChar

StartChar: AE
Encoding: 4 198 4
GlifName: A_E_
Width: 780
VWidth: 0
Flags: W
LayerCount: 2
Back
Fore
SplineSet
67 16 m 258
 143 134 l 257
 374 134 l 257
 374 34 l 258
 374 15 389 0 408 0 c 258
 709 0 l 258
 727 0 741 14 741 32 c 256
 741 50 727 64 709 64 c 258
 443 64 l 257
 443 230 l 257
 682 230 l 258
 700 230 714 244 714 262 c 256
 714 280 700 294 682 294 c 258
 443 294 l 257
 443 460 l 257
 709 460 l 258
 727 460 741 473 741 491 c 256
 741 509 727 524 709 524 c 258
 343 524 l 258
 329 524 317 518 308 505 c 258
 9 51 l 257
 4 44 2 35 2 26 c 256
 2 13 16 -4 38 -4 c 256
 49 -4 59 3 67 16 c 258
  PathStart: -2
356 460 m 257
 374 460 l 257
 374 197 l 257
 184 197 l 257
 356 460 l 257
EndSplineSet
PickledDataWithLists: "(dp1
S'com.schriftgestaltung.Glyphs.ColorIndex'
p2
I9
sS'public.markColor'
p3
S'0.98,0.36,0.67,1'
p4
s."
EndChar

StartChar: AEacute
Encoding: 5 508 5
GlifName: A_E_acute
Width: 780
VWidth: 0
Flags: W
LayerCount: 2
Back
Fore
SplineSet
67 16 m 258
 143 134 l 257
 374 134 l 257
 374 34 l 258
 374 15 389 0 408 0 c 258
 709 0 l 258
 727 0 741 14 741 32 c 256
 741 50 727 64 709 64 c 258
 443 64 l 257
 443 230 l 257
 682 230 l 258
 700 230 714 244 714 262 c 256
 714 280 700 294 682 294 c 258
 443 294 l 257
 443 460 l 257
 709 460 l 258
 727 460 741 473 741 491 c 256
 741 509 727 524 709 524 c 258
 343 524 l 258
 329 524 317 518 308 505 c 258
 9 51 l 257
 4 44 2 35 2 26 c 256
 2 13 16 -4 38 -4 c 256
 49 -4 59 3 67 16 c 258
  PathStart: -2
356 460 m 257
 374 460 l 257
 374 197 l 257
 184 197 l 257
 356 460 l 257
401 563 m 258
 453 624 l 257
 458 629 461 636 461 643 c 256
 461 662 451 671 431 671 c 256
 421 671 413 666 408 656 c 258
 370 589 l 257
 366 585 365 580 365 572 c 256
 365 563 373 554 386 554 c 256
 392 554 397 557 401 563 c 258
  PathStart: -2
EndSplineSet
PickledDataWithLists: "(dp1
S'com.schriftgestaltung.Glyphs.ColorIndex'
p2
I9
sS'public.markColor'
p3
S'0.98,0.36,0.67,1'
p4
s."
EndChar

StartChar: AI
Encoding: 6 3088 6
GlifName: A_I_
Width: 720
VWidth: 0
Flags: W
LayerCount: 2
Back
Fore
SplineSet
243 72 m 257
 285 30 340 -9 429 -9 c 256
 575 -9 700 136 700 300 c 256
 700 453 613 555 482 555 c 256
 414 555 353 514 314 449 c 257
 280 487 228 512 175 512 c 256
 98 512 40 459 40 389 c 256
 40 342 67 300 110 281 c 256
 111 280 112 280 114 279 c 256
 128 272 143 279 150 293 c 256
 157 307 151 323 137 330 c 257
 135 331 l 258
 113 341 100 364 100 389 c 256
 100 428 130 457 175 457 c 256
 264 457 273 382 312 382 c 258
 313 382 l 258
 370 382 371 500 482 500 c 256
 579 500 640 422 640 300 c 256
 640 166 541 46 429 46 c 256
 302 46 260 203 154 203 c 256
 86 203 35 155 35 89 c 256
 35 33 79 -9 136 -9 c 256
 180 -9 227 21 243 72 c 257
  PathStart: -2
95 94 m 256
 95 126 116 148 149 148 c 256
 169 148 182 140 207 109 c 257
 194 70 167 46 136 46 c 256
 112 46 95 66 95 94 c 256
  PathStart: -2
EndSplineSet
PickledDataWithLists: "(dp1
S'com.schriftgestaltung.Glyphs.ColorIndex'
p2
I6
sS'public.markColor'
p3
S'0,0.67,0.91,1'
p4
s."
EndChar

StartChar: AIMatra
Encoding: 7 3144 7
GlifName: A_I_M_atra
Width: 777
VWidth: 0
Flags: W
LayerCount: 2
Back
Fore
SplineSet
525 368 m 258
 636 368 710 424 710 510 c 256
 710 593 649 642 550 642 c 256
 485 642 384 623 306 623 c 256
 289 623 276 610 276 593 c 256
 276 576 289 563 306 563 c 256
 390 563 488 582 550 582 c 256
 618 582 650 558 650 510 c 256
 650 457 603 423 525 423 c 258
 338 423 l 258
 323 423 311 411 311 396 c 256
 311 380 323 368 338 368 c 258
 525 368 l 258
323 -194 m 256
 323 -129 271 -77 206 -77 c 256
 141 -77 89 -129 89 -194 c 256
 89 -259 141 -311 206 -311 c 256
 271 -311 323 -259 323 -194 c 256
  PathStart: -2
144 -194 m 256
 144 -160 172 -132 206 -132 c 256
 240 -132 268 -160 268 -194 c 256
 268 -228 240 -256 206 -256 c 256
 172 -256 144 -228 144 -194 c 256
  PathStart: -2
626 -299 m 256
 643 -299 656 -286 656 -269 c 256
 656 -252 643 -239 626 -239 c 256
 514 -239 309 -261 206 -261 c 257
 206 -311 l 257
 311 -311 516 -299 626 -299 c 256
  PathStart: -2
EndSplineSet
PickledDataWithLists: "(dp1
S'com.schriftgestaltung.Glyphs.ColorIndex'
p2
I6
sS'public.markColor'
p3
S'0,0.67,0.91,1'
p4
s."
EndChar

StartChar: Aacute
Encoding: 9 193 9
GlifName: A_acute
Width: 523
VWidth: 0
Flags: W
LayerCount: 2
Back
Fore
SplineSet
86 17 m 258
 134 134 l 257
 389 134 l 257
 438 17 l 258
 444 3 454 -4 467 -4 c 256
 493 -4 504 13 504 26 c 256
 504 33 503 39 500 45 c 257
 309 497 l 258
 300 517 286 527 266 527 c 258
 258 527 l 258
 238 527 224 517 215 497 c 258
 23 45 l 257
 21 39 20 33 20 26 c 256
 20 13 31 -4 57 -4 c 256
 70 -4 80 3 86 17 c 258
  PathStart: -2
262 440 m 257
 363 197 l 257
 161 197 l 257
 262 440 l 257
271 563 m 258
 323 624 l 257
 328 629 330 636 330 643 c 256
 330 662 320 671 300 671 c 256
 290 671 283 666 278 656 c 258
 239 589 l 257
 236 585 234 580 234 572 c 256
 234 563 242 554 255 554 c 256
 261 554 266 557 271 563 c 258
  PathStart: -2
EndSplineSet
PickledDataWithLists: "(dp1
S'com.schriftgestaltung.Glyphs.ColorIndex'
p2
I9
sS'public.markColor'
p3
S'0.98,0.36,0.67,1'
p4
s."
EndChar

StartChar: Acircumflex
Encoding: 10 194 10
GlifName: A_circumflex
Width: 523
VWidth: 0
Flags: W
LayerCount: 2
Back
Fore
SplineSet
86 17 m 258
 134 134 l 257
 389 134 l 257
 438 17 l 258
 444 3 454 -4 467 -4 c 256
 493 -4 504 13 504 26 c 256
 504 33 503 39 500 45 c 257
 309 497 l 258
 300 517 286 527 266 527 c 258
 258 527 l 258
 238 527 224 517 215 497 c 258
 23 45 l 257
 21 39 20 33 20 26 c 256
 20 13 31 -4 57 -4 c 256
 70 -4 80 3 86 17 c 258
  PathStart: -2
262 440 m 257
 363 197 l 257
 161 197 l 257
 262 440 l 257
197 559 m 257
 262 614 l 257
 327 559 l 257
 331 555 335 554 341 554 c 256
 353 554 363 564 363 576 c 256
 363 581 361 587 357 590 c 258
 306 643 l 258
 296 653 286 658 276 658 c 258
 248 658 l 258
 238 658 227 653 218 643 c 258
 167 590 l 258
 163 587 161 583 161 580 c 256
 161 577 161 574 161 572 c 256
 161 566 170 554 182 554 c 256
 188 554 193 555 197 559 c 257
  PathStart: -2
EndSplineSet
PickledDataWithLists: "(dp1
S'com.schriftgestaltung.Glyphs.ColorIndex'
p2
I9
sS'public.markColor'
p3
S'0.98,0.36,0.67,1'
p4
s."
EndChar

StartChar: Adieresis
Encoding: 11 196 11
GlifName: A_dieresis
Width: 523
VWidth: 0
Flags: W
LayerCount: 2
Back
Fore
SplineSet
86 17 m 258
 134 134 l 257
 389 134 l 257
 438 17 l 258
 444 3 454 -4 467 -4 c 256
 493 -4 504 13 504 26 c 256
 504 33 503 39 500 45 c 257
 309 497 l 258
 300 517 286 527 266 527 c 258
 258 527 l 258
 238 527 224 517 215 497 c 258
 23 45 l 257
 21 39 20 33 20 26 c 256
 20 13 31 -4 57 -4 c 256
 70 -4 80 3 86 17 c 258
  PathStart: -2
262 440 m 257
 363 197 l 257
 161 197 l 257
 262 440 l 257
237 599 m 256
 237 620 220 637 199 637 c 256
 178 637 161 620 161 599 c 256
 161 578 178 560 199 560 c 256
 220 560 237 578 237 599 c 256
  PathStart: -2
364 599 m 256
 364 620 347 637 326 637 c 256
 305 637 287 620 287 599 c 256
 287 578 305 560 326 560 c 256
 347 560 364 578 364 599 c 256
  PathStart: -2
EndSplineSet
PickledDataWithLists: "(dp1
S'com.schriftgestaltung.Glyphs.ColorIndex'
p2
I9
sS'public.markColor'
p3
S'0.98,0.36,0.67,1'
p4
s."
EndChar

StartChar: Agrave
Encoding: 12 192 12
GlifName: A_grave
Width: 523
VWidth: 0
Flags: W
LayerCount: 2
Back
Fore
SplineSet
86 17 m 258
 134 134 l 257
 389 134 l 257
 438 17 l 258
 444 3 454 -4 467 -4 c 256
 493 -4 504 13 504 26 c 256
 504 33 503 39 500 45 c 257
 309 497 l 258
 300 517 286 527 266 527 c 258
 258 527 l 258
 238 527 224 517 215 497 c 258
 23 45 l 257
 21 39 20 33 20 26 c 256
 20 13 31 -4 57 -4 c 256
 70 -4 80 3 86 17 c 258
  PathStart: -2
262 440 m 257
 363 197 l 257
 161 197 l 257
 262 440 l 257
289 575 m 256
 289 581 287 585 284 589 c 257
 245 656 l 258
 240 666 233 671 223 671 c 256
 203 671 193 662 193 643 c 256
 193 636 195 629 200 624 c 257
 252 563 l 258
 257 557 262 554 269 554 c 256
 281 554 289 563 289 575 c 256
  PathStart: -2
EndSplineSet
PickledDataWithLists: "(dp1
S'com.schriftgestaltung.Glyphs.ColorIndex'
p2
I9
sS'public.markColor'
p3
S'0.98,0.36,0.67,1'
p4
s."
EndChar

StartChar: Anudatta
Encoding: 13 2386 13
GlifName: A_nudatta
Width: 0
VWidth: 0
Flags: W
LayerCount: 2
Back
Fore
SplineSet
523 -516 m 257
 523 -425 l 257
 121 -425 l 257
 121 -516 l 257
 523 -516 l 257
EndSplineSet
EndChar

StartChar: Anusvara
Encoding: 14 3074 14
GlifName: A_nusvara
Width: 520
VWidth: 0
Flags: W
LayerCount: 2
Back
Fore
SplineSet
480 217 m 256
 480 322 392 395 265 395 c 257
 132 395 40 312 40 189 c 256
 40 84 128 11 255 11 c 257
 388 11 480 94 480 217 c 256
  PathStart: -2
100 189 m 256
 100 281 165 340 265 340 c 257
 360 340 420 291 420 217 c 256
 420 125 355 66 255 66 c 257
 160 66 100 115 100 189 c 256
  PathStart: -2
EndSplineSet
PickledDataWithLists: "(dp1
S'com.schriftgestaltung.Glyphs.ColorIndex'
p2
I6
sS'public.markColor'
p3
S'0,0.67,0.91,1'
p4
s."
EndChar

StartChar: Arasunna
Encoding: 15 3073 15
GlifName: A_rasunna
Width: 312
VWidth: 0
Flags: W
LayerCount: 2
Back
Fore
SplineSet
92 210 m 256
 92 311 149 368 254 368 c 256
 269 368 281 380 281 396 c 256
 281 411 269 423 254 423 c 256
 118 423 32 342 32 210 c 256
 32 86 138 -9 272 -9 c 256
 287 -9 299 3 299 19 c 256
 299 34 287 46 272 46 c 256
 171 46 92 116 92 210 c 256
  PathStart: -2
EndSplineSet
PickledDataWithLists: "(dp1
S'com.schriftgestaltung.Glyphs.ColorIndex'
p2
I1
sS'public.markColor'
p3
S'0.99,0.62,0.11,1'
p4
s."
EndChar

StartChar: Aring
Encoding: 16 197 16
GlifName: A_ring
Width: 523
VWidth: 0
Flags: W
LayerCount: 2
Back
Fore
SplineSet
86 17 m 258
 134 134 l 257
 389 134 l 257
 438 17 l 258
 444 3 454 -4 467 -4 c 256
 493 -4 504 13 504 26 c 256
 504 33 503 39 500 45 c 257
 309 497 l 258
 300 517 286 527 266 527 c 258
 258 527 l 258
 238 527 224 517 215 497 c 258
 23 45 l 257
 21 39 20 33 20 26 c 256
 20 13 31 -4 57 -4 c 256
 70 -4 80 3 86 17 c 258
  PathStart: -2
262 440 m 257
 363 197 l 257
 161 197 l 257
 262 440 l 257
332 618 m 256
 332 638 326 654 312 668 c 257
 299 680 281 689 261 689 c 256
 223 689 191 657 191 618 c 256
 191 579 223 548 262 548 c 256
 301 548 332 579 332 618 c 256
  PathStart: -2
225 618 m 256
 225 638 242 655 262 655 c 256
 282 655 299 638 299 618 c 256
 299 598 282 581 262 581 c 256
 242 581 225 598 225 618 c 256
  PathStart: -2
EndSplineSet
PickledDataWithLists: "(dp1
S'com.schriftgestaltung.Glyphs.ColorIndex'
p2
I9
sS'public.markColor'
p3
S'0.98,0.36,0.67,1'
p4
s."
EndChar

StartChar: Atilde
Encoding: 17 195 17
GlifName: A_tilde
Width: 523
VWidth: 0
Flags: W
LayerCount: 2
Back
Fore
SplineSet
86 17 m 258
 134 134 l 257
 389 134 l 257
 438 17 l 258
 444 3 454 -4 467 -4 c 256
 493 -4 504 13 504 26 c 256
 504 33 503 39 500 45 c 257
 309 497 l 258
 300 517 286 527 266 527 c 258
 258 527 l 258
 238 527 224 517 215 497 c 258
 23 45 l 257
 21 39 20 33 20 26 c 256
 20 13 31 -4 57 -4 c 256
 70 -4 80 3 86 17 c 258
  PathStart: -2
262 440 m 257
 363 197 l 257
 161 197 l 257
 262 440 l 257
176 571 m 257
 183 587 194 595 207 595 c 256
 224 595 239 588 273 572 c 256
 290 563 306 559 321 559 c 256
 356 559 384 595 384 630 c 257
 383 641 377 647 367 647 c 256
 359 647 352 641 347 629 c 256
 344 619 337 611 319 611 c 256
 301 611 282 620 264 629 c 257
 245 637 227 646 205 646 c 256
 186 646 170 638 159 621 c 257
 148 607 142 589 142 577 c 256
 142 564 150 557 159 557 c 256
 168 557 174 562 176 571 c 257
  PathStart: -2
EndSplineSet
PickledDataWithLists: "(dp1
S'com.schriftgestaltung.Glyphs.ColorIndex'
p2
I9
sS'public.markColor'
p3
S'0.98,0.36,0.67,1'
p4
s."
EndChar

StartChar: AuMatra
Encoding: 18 3148 18
GlifName: A_uM_atra
Width: 587
VWidth: 0
Flags: W
LayerCount: 2
Back
Fore
SplineSet
156 478 m 256
 156 501 145 527 115 539 c 257
 413 539 l 258
 465 539 491 518 491 479 c 256
 491 452 470 430 431 430 c 256
 397 430 367 450 367 468 c 256
 367 485 354 498 337 498 c 256
 320 498 307 485 307 468 c 256
 307 415 363 375 431 375 c 256
 503 375 551 421 551 479 c 256
 551 554 498 599 413 599 c 258
 -131 599 l 258
 -148 599 -161 586 -161 569 c 256
 -161 552 -148 539 -131 539 c 258
 5 539 l 258
 56 539 96 510 96 478 c 256
 96 446 63 423 7 423 c 256
 -8 423 -20 411 -20 396 c 256
 -20 380 -8 368 7 368 c 256
 97 368 156 410 156 478 c 256
  PathStart: -2
EndSplineSet
PickledDataWithLists: "(dp1
S'com.schriftgestaltung.Glyphs.ColorIndex'
p2
I6
sS'public.markColor'
p3
S'0,0.67,0.91,1'
p4
s."
EndChar

StartChar: Avagraha
Encoding: 19 3133 19
GlifName: A_vagraha
Width: 751
VWidth: 0
Flags: W
LayerCount: 2
Back
Fore
SplineSet
691 0 m 257
 691 60 l 257
 160 60 l 258
 120 60 91 73 91 105 c 256
 91 205 400 182 400 371 c 256
 400 463 302 541 188 541 c 256
 102 541 41 489 41 415 c 256
 41 347 92 299 162 299 c 256
 231 299 286 349 286 414 c 256
 286 442 276 480 248 510 c 257
 203 493 l 257
 219 467 226 445 226 424 c 256
 226 384 198 354 162 354 c 256
 125 354 101 378 101 415 c 256
 101 458 134 486 188 486 c 256
 269 486 340 432 340 371 c 256
 340 223 31 257 31 105 c 256
 31 36 87 0 160 0 c 258
 691 0 l 257
721 30 m 256
 721 47 708 60 691 60 c 256
 674 60 661 47 661 30 c 256
 661 13 674 0 691 0 c 256
 708 0 721 13 721 30 c 256
  PathStart: -2
EndSplineSet
PickledDataWithLists: "(dp1
S'com.schriftgestaltung.Glyphs.ColorIndex'
p2
I6
sS'public.markColor'
p3
S'0,0.67,0.91,1'
p4
s."
EndChar

StartChar: B
Encoding: 20 66 20
GlifName: B_
Width: 520
VWidth: 0
Flags: W
LayerCount: 2
Back
Fore
SplineSet
288 0 m 258
 355 0 404 14 437 41 c 256
 467 67 481 104 481 143 c 256
 481 163 478 179 473 194 c 257
 457 230 425 257 378 272 c 257
 427 296 452 334 452 388 c 256
 452 469 394 524 284 524 c 258
 107 524 l 258
 88 524 73 508 73 489 c 258
 73 34 l 258
 73 15 88 0 107 0 c 258
 288 0 l 258
141 236 m 257
 282 236 l 258
 369 236 415 210 415 150 c 256
 415 137 413 125 408 115 c 256
 395 81 353 64 281 64 c 258
 141 64 l 257
 141 236 l 257
141 460 m 257
 278 460 l 258
 347 460 386 430 386 383 c 256
 386 371 385 359 381 349 c 256
 368 314 330 297 266 297 c 258
 141 297 l 257
 141 460 l 257
EndSplineSet
PickledDataWithLists: "(dp1
S'com.schriftgestaltung.Glyphs.ColorIndex'
p2
I9
sS'public.markColor'
p3
S'0.98,0.36,0.67,1'
p4
s."
EndChar

StartChar: Ba
Encoding: 21 3116 21
GlifName: B_a
Width: 746
VWidth: 0
Flags: W
AnchorPoint: "Anchor-0" 0 0 basechar 0
LayerCount: 2
Back
Fore
SplineSet
720 159 m 256
 720 258 624 367 492 421 c 256
 488 422 484 423 480 423 c 256
 464 423 450 411 450 393 c 256
 450 381 457 370 468 365 c 256
 628 302 660 197 660 159 c 256
 660 92 620 51 554 51 c 256
 441 51 423 186 348 186 c 256
 291 186 277 60 249 60 c 256
 238 60 231 80 231 115 c 256
 231 182 285 319 285 367 c 256
 285 411 260 441 221 441 c 256
 134 441 36 357 36 284 c 256
 36 237 72 205 123 205 c 256
 140 205 153 218 153 235 c 256
 153 252 140 265 123 265 c 256
 103 265 96 272 96 284 c 256
 96 323 161 381 211 381 c 256
 222 381 225 372 225 367 c 256
 225 331 171 192 171 115 c 256
 171 39 196 0 249 0 c 256
 308 0 336 98 357 146 c 257
 337 146 l 257
 372 99 418 -9 554 -9 c 256
 653 -9 720 59 720 159 c 256
  PathStart: -2
EndSplineSet
PickledDataWithLists: "(dp1
S'com.schriftgestaltung.Glyphs.ColorIndex'
p2
I6
sS'public.markColor'
p3
S'0,0.67,0.91,1'
p4
s."
EndChar

StartChar: BaI
Encoding: 27 -1 27
GlifName: B_aI_
Width: 800
VWidth: 0
Flags: W
AnchorPoint: "Anchor-0" 0 0 basechar 0
LayerCount: 2
Back
Fore
SplineSet
770 199 m 257
 770 368 644 483 434 483 c 256
 418 483 406 471 406 456 c 256
 406 440 418 428 434 428 c 256
 612 428 710 334 710 199 c 256
 710 106 659 51 579 51 c 256
 452 51 432 186 348 186 c 256
 291 186 277 60 249 60 c 256
 238 60 231 80 231 115 c 256
 231 182 285 319 285 367 c 256
 285 411 260 441 221 441 c 256
 134 441 36 357 36 284 c 256
 36 237 72 205 123 205 c 256
 140 205 153 218 153 235 c 256
 153 252 140 265 123 265 c 256
 103 265 96 272 96 284 c 256
 96 323 161 381 211 381 c 256
 222 381 225 372 225 367 c 256
 225 331 171 192 171 115 c 256
 171 39 196 0 249 0 c 256
 308 0 336 98 357 146 c 257
 337 146 l 257
 376 99 427 -9 579 -9 c 256
 692 -9 770 74 770 199 c 257
  PathStart: -2
533 388 m 256
 533 443 491 483 434 483 c 256
 376 483 334 443 334 388 c 256
 334 333 376 293 434 293 c 256
 491 293 533 333 533 388 c 256
  PathStart: -2
394 388 m 256
 394 409 413 428 434 428 c 256
 455 428 473 409 473 388 c 256
 473 367 455 348 434 348 c 257
 413 348 394 367 394 388 c 256
  PathStart: -2
EndSplineSet
PickledDataWithLists: "(dp1
S'com.schriftgestaltung.Glyphs.ColorIndex'
p2
I6
sS'public.markColor'
p3
S'0,0.67,0.91,1'
p4
s."
Ligature2: "NTR-'abvs' Above Base Substitutions in Telugu lookup 10 subtable" Ba Imatra
EndChar

StartChar: BaOttu
Encoding: 31 -1 31
GlifName: B_aO_ttu
Width: 231
VWidth: 0
Flags: W
LayerCount: 2
Back
Fore
SplineSet
241 -202 m 256
 241 -124 164 -36 56 8 c 256
 53 9 49 10 45 10 c 256
 30 10 18 -1 18 -15 c 256
 18 -25 23 -33 33 -38 c 256
 160 -88 186 -172 186 -202 c 256
 186 -255 159 -288 114 -288 c 256
 35 -288 27 -180 -36 -180 c 256
 -72 -180 -103 -280 -123 -280 c 256
 -133 -280 -136 -263 -136 -237 c 256
 -136 -202 -108 -139 -108 -104 c 256
 -108 -62 -134 -34 -172 -34 c 256
 -236 -34 -305 -87 -305 -134 c 256
 -305 -172 -276 -198 -236 -198 c 256
 -220 -198 -209 -188 -209 -173 c 256
 -209 -159 -220 -148 -236 -148 c 256
 -247 -148 -250 -144 -250 -134 c 256
 -250 -113 -211 -84 -180 -84 c 256
 -165 -84 -163 -96 -163 -104 c 256
 -163 -131 -191 -197 -191 -237 c 256
 -191 -299 -169 -330 -125 -330 c 256
 -78 -330 -40 -247 -24 -210 c 257
 -44 -217 l 257
 -16 -255 25 -338 114 -338 c 256
 189 -338 241 -283 241 -202 c 256
  PathStart: -2
EndSplineSet
PickledDataWithLists: "(dp1
S'com.schriftgestaltung.Glyphs.ColorIndex'
p2
I6
sS'public.markColor'
p3
S'0,0.67,0.91,1'
p4
s."
Ligature2: "NTR-'blwf' Below Base Forms in Telugu lookup 2 subtable" Ba Halanth
EndChar

StartChar: Bha
Encoding: 34 3117 34
GlifName: B_ha
Width: 723
VWidth: 0
Flags: W
AnchorPoint: "Anchor-0" 0 0 basechar 0
LayerCount: 2
Back
Fore
SplineSet
542 397 m 257
 478 431 441 437 441 461 c 256
 441 524 696 596 696 731 c 256
 696 748 683 761 666 761 c 256
 649 761 636 748 636 731 c 256
 636 628 381 576 381 461 c 256
 381 407 433 378 496 353 c 256
 510 347 545 341 542 397 c 257
  PathStart: -2
EndSplineSet
Refer: 21 3116 N 1 0 0 1 0 0 2
Refer: 763 -1 N 1 0 0 1 276 0 2
PickledDataWithLists: "(dp1
S'com.schriftgestaltung.Glyphs.ColorIndex'
p2
I6
sS'public.markColor'
p3
S'0,0.67,0.91,1'
p4
s."
EndChar

StartChar: C
Encoding: 47 67 47
GlifName: C_
Width: 524
VWidth: 0
Flags: W
LayerCount: 2
Back
Fore
SplineSet
476 39 m 257
 487 44 492 54 492 68 c 256
 492 83 480 96 466 96 c 256
 458 96 452 95 449 93 c 257
 409 72 371 58 311 58 c 256
 183 58 110 142 110 262 c 256
 110 322 127 370 161 407 c 256
 194 443 246 466 309 466 c 256
 371 466 409 452 449 431 c 257
 452 428 458 428 466 428 c 256
 480 428 492 441 492 456 c 256
 492 470 491 477 462 493 c 256
 434 508 379 531 305 531 c 256
 152 531 42 427 42 262 c 256
 42 179 67 113 117 65 c 256
 164 17 230 -8 305 -8 c 256
 379 -8 428 13 476 39 c 257
  PathStart: -2
EndSplineSet
PickledDataWithLists: "(dp1
S'com.schriftgestaltung.Glyphs.ColorIndex'
p2
I9
sS'public.markColor'
p3
S'0.98,0.36,0.67,1'
p4
s."
EndChar

StartChar: Ca
Encoding: 49 3098 49
GlifName: C_a
Width: 800
VWidth: 0
Flags: W
AnchorPoint: "Anchor-0" 0 0 basechar 0
LayerCount: 2
Back
Fore
SplineSet
401 118 m 257
 434 48 490 -9 583 -9 c 256
 699 -9 771 61 771 173 c 256
 771 331 626 423 407 423 c 256
 391 423 379 411 379 396 c 256
 379 380 391 368 407 368 c 256
 594 368 711 297 711 173 c 256
 711 92 666 46 583 46 c 256
 456 46 465 186 400 186 c 256
 343 186 348 46 272 46 c 256
 247 46 223 71 223 111 c 256
 223 220 328 243 328 283 c 256
 328 303 310 311 288 311 c 256
 268 311 214 301 169 301 c 256
 113 301 77 316 62 316 c 256
 46 316 32 304 32 286 c 256
 32 273 39 262 52 258 c 256
 87 247 126 242 171 242 c 256
 189 242 208 243 231 247 c 257
 186 206 163 162 163 111 c 256
 163 43 211 -9 272 -9 c 256
 326 -9 366 22 401 118 c 257
  PathStart: -2
437 398 m 256
 437 419 459 447 536 519 c 256
 598 577 674 647 696 728 c 256
 697 731 697 734 697 737 c 256
 697 754 684 767 667 767 c 256
 653 767 642 757 638 744 c 256
 621 680 557 621 495 563 c 256
 406 479 377 442 377 398 c 256
 377 381 390 368 407 368 c 256
 424 368 437 381 437 398 c 256
  PathStart: -2
EndSplineSet
PickledDataWithLists: "(dp1
S'com.schriftgestaltung.Glyphs.ColorIndex'
p2
I6
sS'public.markColor'
p3
S'0,0.67,0.91,1'
p4
s."
EndChar

StartChar: Ca.base
Encoding: 50 -1 50
GlifName: C_a.base
Width: 800
VWidth: 0
Flags: W
LayerCount: 2
Back
Fore
SplineSet
401 118 m 257
 434 48 490 -9 583 -9 c 256
 699 -9 771 61 771 173 c 256
 771 331 626 423 407 423 c 256
 391 423 379 411 379 396 c 256
 379 380 391 368 407 368 c 256
 594 368 711 297 711 173 c 256
 711 92 666 46 583 46 c 256
 456 46 465 186 400 186 c 256
 343 186 348 46 272 46 c 256
 247 46 223 71 223 111 c 256
 223 220 328 243 328 283 c 256
 328 303 310 311 288 311 c 256
 268 311 214 301 169 301 c 256
 113 301 77 316 62 316 c 256
 46 316 32 304 32 286 c 256
 32 273 39 262 52 258 c 256
 87 247 126 242 171 242 c 256
 189 242 208 243 231 247 c 257
 186 206 163 162 163 111 c 256
 163 43 211 -9 272 -9 c 256
 326 -9 366 22 401 118 c 257
  PathStart: -2
EndSplineSet
PickledDataWithLists: "(dp1
S'com.schriftgestaltung.Glyphs.ColorIndex'
p2
I6
sS'public.markColor'
p3
S'0,0.67,0.91,1'
p4
s."
EndChar

StartChar: CaI
Encoding: 56 -1 56
GlifName: C_aI_
Width: 851
VWidth: 0
Flags: W
AnchorPoint: "Anchor-0" 0 0 basechar 0
LayerCount: 2
Back
Fore
SplineSet
401 118 m 257
 438 48 502 -9 608 -9 c 256
 738 -9 821 75 821 213 c 256
 821 383 695 483 457 483 c 256
 441 483 429 471 429 456 c 256
 429 440 441 428 457 428 c 256
 664 428 761 349 761 213 c 256
 761 105 706 46 608 46 c 256
 463 46 473 186 400 186 c 256
 343 186 348 46 272 46 c 256
 247 46 223 71 223 111 c 256
 223 220 328 243 328 283 c 256
 328 303 310 311 288 311 c 256
 268 311 214 301 169 301 c 256
 113 301 77 316 62 316 c 256
 46 316 32 304 32 286 c 256
 32 273 39 262 52 258 c 256
 87 247 126 242 171 242 c 256
 189 242 208 243 231 247 c 257
 186 206 163 162 163 111 c 256
 163 43 211 -9 272 -9 c 256
 326 -9 366 22 401 118 c 257
  PathStart: -2
556 388 m 256
 556 443 514 483 457 483 c 256
 399 483 357 443 357 388 c 256
 357 333 399 293 457 293 c 256
 514 293 556 333 556 388 c 256
  PathStart: -2
417 388 m 256
 417 409 436 428 457 428 c 256
 478 428 496 409 496 388 c 256
 496 367 478 348 457 348 c 257
 436 348 417 367 417 388 c 256
  PathStart: -2
EndSplineSet
PickledDataWithLists: "(dp1
S'com.schriftgestaltung.Glyphs.ColorIndex'
p2
I6
sS'public.markColor'
p3
S'0,0.67,0.91,1'
p4
s."
Ligature2: "NTR-'abvs' Above Base Substitutions in Telugu lookup 10 subtable" Ca Imatra
EndChar

StartChar: CaOttu
Encoding: 68 -1 68
GlifName: C_aO_ttu
Width: 190
VWidth: 0
Flags: W
LayerCount: 2
Back
Fore
SplineSet
-70 -243 m 257
 -99 -254 l 257
 -69 -338 -13 -383 61 -383 c 256
 155 -383 215 -326 215 -235 c 257
 215 -157 138 -69 30 -25 c 256
 27 -24 23 -23 19 -23 c 256
 4 -23 -8 -34 -8 -48 c 256
 -8 -58 -3 -66 7 -71 c 256
 134 -121 160 -205 160 -235 c 256
 160 -299 125 -335 61 -335 c 256
 -38 -335 -30 -223 -86 -223 c 256
 -135 -223 -130 -335 -188 -335 c 256
 -208 -335 -224 -314 -224 -285 c 256
 -224 -199 -140 -179 -140 -147 c 256
 -140 -132 -153 -123 -175 -123 c 256
 -191 -123 -235 -131 -271 -131 c 256
 -315 -131 -343 -119 -356 -119 c 256
 -371 -119 -384 -130 -384 -145 c 256
 -384 -176 -325 -182 -269 -182 c 256
 -257 -182 -243 -181 -228 -179 c 257
 -262 -212 -279 -246 -279 -285 c 256
 -279 -340 -239 -383 -188 -383 c 256
 -131 -383 -99 -341 -70 -243 c 257
  PathStart: -2
EndSplineSet
PickledDataWithLists: "(dp1
S'com.schriftgestaltung.Glyphs.ColorIndex'
p2
I6
sS'public.markColor'
p3
S'0,0.67,0.91,1'
p4
s."
Ligature2: "NTR-'blwf' Below Base Forms in Telugu lookup 2 subtable" Ca Halanth
Ligature2: "NTR-'blwf' Below Base Forms in Telugu lookup 2 subtable" CaNukta Halanth
EndChar

StartChar: Ccedilla
Encoding: 71 199 71
GlifName: C_cedilla
Width: 524
VWidth: 0
Flags: W
LayerCount: 2
Back
Fore
SplineSet
369 -97 m 256
 369 -65 344 -44 317 -44 c 256
 305 -44 294 -45 286 -47 c 257
 308 -8 l 257
 380 -7 430 13 476 39 c 257
 487 44 492 54 492 68 c 256
 492 83 480 96 466 96 c 256
 458 96 449 93 437 87 c 256
 413 74 371 58 311 58 c 256
 183 58 110 142 110 262 c 256
 110 322 127 370 161 407 c 256
 194 443 246 466 309 466 c 256
 371 466 409 452 449 431 c 257
 452 428 458 428 466 428 c 256
 480 428 492 441 492 456 c 256
 492 470 491 477 462 493 c 256
 434 508 379 531 305 531 c 256
 152 531 42 427 42 262 c 256
 42 109 137 6 277 -6 c 257
 241 -64 l 257
 239 -67 238 -70 238 -74 c 256
 238 -81 245 -86 251 -86 c 256
 253 -86 258 -84 266 -80 c 257
 272 -77 281 -76 293 -76 c 256
 306 -76 319 -84 319 -99 c 256
 319 -122 305 -134 276 -134 c 256
 262 -134 248 -129 232 -121 c 256
 229 -119 227 -119 224 -119 c 256
 215 -119 210 -124 210 -134 c 256
 210 -140 213 -144 218 -146 c 257
 239 -159 262 -166 286 -166 c 256
 341 -166 369 -143 369 -97 c 256
  PathStart: -2
EndSplineSet
PickledDataWithLists: "(dp1
S'com.schriftgestaltung.Glyphs.ColorIndex'
p2
I9
sS'public.markColor'
p3
S'0.98,0.36,0.67,1'
p4
s."
EndChar

StartChar: D
Encoding: 85 68 85
GlifName: D_
Width: 563
VWidth: 0
Flags: W
LayerCount: 2
Back
Fore
SplineSet
257 0 m 258
 341 0 407 28 457 84 c 256
 501 133 522 199 522 262 c 256
 522 325 501 391 457 440 c 256
 407 496 341 524 257 524 c 258
 107 524 l 258
 88 524 73 508 73 489 c 258
 73 34 l 258
 73 15 88 0 107 0 c 258
 257 0 l 258
141 460 m 257
 249 460 l 258
 373 460 455 380 455 262 c 256
 455 144 373 64 249 64 c 258
 141 64 l 257
 141 460 l 257
EndSplineSet
PickledDataWithLists: "(dp1
S'com.schriftgestaltung.Glyphs.ColorIndex'
p2
I9
sS'public.markColor'
p3
S'0.98,0.36,0.67,1'
p4
s."
EndChar

StartChar: DDa
Encoding: 86 3105 86
GlifName: D_D_a
Width: 660
VWidth: 0
Flags: W
AnchorPoint: "Anchor-0" 0 0 basechar 0
LayerCount: 2
Back
Fore
SplineSet
275 94 m 257
 326 32 377 -9 461 -9 c 256
 559 -9 636 60 636 150 c 256
 636 242 545 312 428 312 c 257
 428 262 l 257
 513 262 576 211 576 150 c 256
 576 91 527 46 461 46 c 256
 333 46 322 170 273 170 c 256
 240 170 220 46 147 46 c 256
 114 46 94 73 94 121 c 256
 94 254 230 368 393 368 c 256
 408 368 420 380 420 396 c 256
 420 411 408 423 393 423 c 256
 197 423 34 286 34 121 c 256
 34 44 79 -9 147 -9 c 256
 198 -9 244 29 275 94 c 257
  PathStart: -2
517 226 m 256
 517 276 479 312 428 312 c 256
 376 312 339 276 339 226 c 256
 339 176 376 139 428 139 c 256
 479 139 517 176 517 226 c 256
  PathStart: -2
396 226 m 256
 396 242 409 257 428 257 c 256
 447 257 459 242 459 226 c 256
 459 210 447 194 428 194 c 256
 409 194 396 210 396 226 c 256
  PathStart: -2
393 423 m 257
 300 423 l 257
 269 423 251 432 251 451 c 256
 251 516 506 591 506 731 c 256
 506 748 493 761 476 761 c 256
 459 761 446 748 446 731 c 256
 446 624 191 570 191 451 c 256
 191 402 228 373 290 373 c 256
 307 373 393 409 393 423 c 257
  PathStart: -2
EndSplineSet
PickledDataWithLists: "(dp1
S'com.schriftgestaltung.Glyphs.ColorIndex'
p2
I6
sS'public.markColor'
p3
S'0,0.67,0.91,1'
p4
s."
EndChar

StartChar: DDa.base
Encoding: 87 -1 87
GlifName: D_D_a.base
Width: 660
VWidth: 0
Flags: W
LayerCount: 2
Back
Fore
SplineSet
275 94 m 257
 326 32 377 -9 461 -9 c 256
 559 -9 636 60 636 150 c 256
 636 242 545 312 428 312 c 257
 428 262 l 257
 513 262 576 211 576 150 c 256
 576 91 527 46 461 46 c 256
 333 46 322 170 273 170 c 256
 240 170 220 46 147 46 c 256
 114 46 94 73 94 121 c 256
 94 254 230 368 393 368 c 256
 408 368 420 380 420 396 c 256
 420 411 408 423 393 423 c 256
 197 423 34 286 34 121 c 256
 34 44 79 -9 147 -9 c 256
 198 -9 244 29 275 94 c 257
  PathStart: -2
517 226 m 256
 517 276 479 312 428 312 c 256
 376 312 339 276 339 226 c 256
 339 176 376 139 428 139 c 256
 479 139 517 176 517 226 c 256
  PathStart: -2
396 226 m 256
 396 242 409 257 428 257 c 256
 447 257 459 242 459 226 c 256
 459 210 447 194 428 194 c 256
 409 194 396 210 396 226 c 256
  PathStart: -2
EndSplineSet
PickledDataWithLists: "(dp1
S'com.schriftgestaltung.Glyphs.ColorIndex'
p2
I6
sS'public.markColor'
p3
S'0,0.67,0.91,1'
p4
s."
EndChar

StartChar: DDaOttu
Encoding: 97 -1 97
GlifName: D_D_aO_ttu
Width: 30
VWidth: 0
Flags: W
AnchorPoint: "Anchor-0" -47 30 mark 0
LayerCount: 2
Back
Fore
SplineSet
280 -285 m 257
 319 -332 361 -364 428 -364 c 256
 506 -364 568 -308 568 -235 c 256
 568 -159 493 -103 398 -103 c 256
 357 -103 327 -134 327 -174 c 256
 327 -216 359 -246 402 -246 c 256
 434 -246 469 -225 469 -178 c 256
 469 -172 468 -166 467 -160 c 257
 495 -178 513 -204 513 -235 c 256
 513 -281 477 -316 428 -316 c 256
 329 -316 320 -217 278 -217 c 256
 247 -217 232 -316 177 -316 c 256
 152 -316 138 -295 138 -258 c 256
 138 -168 226 -92 333 -92 c 256
 347 -92 358 -82 358 -68 c 256
 358 -55 347 -44 333 -44 c 256
 195 -44 83 -141 83 -258 c 256
 83 -321 120 -364 177 -364 c 256
 217 -364 254 -336 280 -285 c 257
  PathStart: -2
377 -174 m 256
 377 -161 388 -151 402 -151 c 256
 415 -151 424 -161 424 -174 c 256
 424 -187 415 -198 402 -198 c 256
 388 -198 377 -187 377 -174 c 256
  PathStart: -2
EndSplineSet
PickledDataWithLists: "(dp1
S'com.schriftgestaltung.Glyphs.ColorIndex'
p2
I6
sS'public.markColor'
p3
S'0,0.67,0.91,1'
p4
s."
Ligature2: "NTR-'blwf' Below Base Forms in Telugu lookup 2 subtable" DDa Halanth
EndChar

StartChar: DEVANAGARI_DANDA
Encoding: 113 2404 113
GlifName: D_E_V_A_N_A_G_A_R_I__D_A_N_D_A_
Width: 252
VWidth: 0
Flags: W
LayerCount: 2
Back
Fore
SplineSet
164 -22 m 257
 164 482 l 257
 83 482 l 257
 83 -22 l 257
 164 -22 l 257
EndSplineSet
EndChar

StartChar: DEVANAGARI_DOUBLE_DANDA
Encoding: 114 2405 114
GlifName: D_E_V_A_N_A_G_A_R_I__D_O_U_B_L_E__D_A_N_D_A_
Width: 451
VWidth: 0
Flags: W
LayerCount: 2
Back
Fore
SplineSet
166 -19 m 257
 166 486 l 257
 85 486 l 257
 85 -19 l 257
 166 -19 l 257
355 -22 m 257
 355 482 l 257
 276 482 l 257
 276 -22 l 257
 355 -22 l 257
EndSplineSet
EndChar

StartChar: Da
Encoding: 115 3110 115
GlifName: D_a
Width: 636
VWidth: 0
Flags: W
AnchorPoint: "Anchor-0" 0 0 basechar 0
LayerCount: 2
Back
Fore
SplineSet
333 394 m 256
 333 407 320 418 303 418 c 256
 271 418 264 427 264 446 c 256
 264 511 519 586 519 726 c 256
 519 743 506 756 489 756 c 256
 472 756 459 743 459 726 c 256
 459 619 204 565 204 446 c 256
 204 397 241 368 303 368 c 256
 320 368 333 380 333 394 c 256
  PathStart: -2
EndSplineSet
Refer: 116 -1 N 1 0 0 1 0 0 2
PickledDataWithLists: "(dp1
S'com.schriftgestaltung.Glyphs.ColorIndex'
p2
I6
sS'public.markColor'
p3
S'0,0.67,0.91,1'
p4
s."
EndChar

StartChar: Da.base
Encoding: 116 -1 116
GlifName: D_a.base
Width: 636
VWidth: 0
Flags: W
LayerCount: 2
Back
Fore
SplineSet
279 171 m 257
 246 171 l 257
 262 122 310 -9 439 -9 c 256
 543 -9 616 78 616 186 c 256
 616 242 563 423 315 423 c 256
 152 423 30 340 30 185 c 256
 30 71 74 -9 141 -9 c 256
 239 -9 269 122 279 171 c 257
  PathStart: -2
90 185 m 256
 90 299 173 368 315 368 c 256
 450 368 556 287 556 186 c 256
 556 107 506 51 439 51 c 256
 390 51 352 81 323 140 c 256
 308 171 292 187 267 187 c 256
 235 187 219 168 207 131 c 256
 190 78 167 51 141 51 c 256
 116 51 90 105 90 185 c 256
  PathStart: -2
EndSplineSet
PickledDataWithLists: "(dp1
S'com.schriftgestaltung.Glyphs.ColorIndex'
p2
I6
sS'public.markColor'
p3
S'0,0.67,0.91,1'
p4
s."
EndChar

StartChar: DaI
Encoding: 122 -1 122
GlifName: D_aI_
Width: 700
VWidth: 0
Flags: W
AnchorPoint: "Anchor-0" 0 0 basechar 0
LayerCount: 2
Back
Fore
SplineSet
283 77 m 257
 328 23 395 -9 466 -9 c 256
 591 -9 680 80 680 204 c 256
 680 351 542 491 299 491 c 256
 185 491 80 460 80 364 c 256
 80 328 97 297 124 275 c 257
 70 244 30 186 30 118 c 256
 30 37 83 -9 150 -9 c 256
 204 -9 249 21 283 77 c 257
  PathStart: -2
140 364 m 256
 140 400 173 429 215 429 c 256
 257 429 289 400 289 364 c 256
 289 328 257 299 215 299 c 256
 173 299 140 328 140 364 c 256
  PathStart: -2
90 118 m 256
 90 190 153 244 215 244 c 256
 289 244 349 297 349 364 c 256
 349 389 340 413 326 432 c 257
 486 437 620 331 620 204 c 256
 620 110 557 46 466 46 c 256
 406 46 351 76 317 127 c 256
 306 144 293 154 278 154 c 256
 262 154 249 141 239 119 c 256
 216 70 185 46 150 46 c 256
 117 46 90 76 90 118 c 256
  PathStart: -2
EndSplineSet
PickledDataWithLists: "(dp1
S'com.schriftgestaltung.Glyphs.ColorIndex'
p2
I6
sS'public.markColor'
p3
S'0,0.67,0.91,1'
p4
s."
Ligature2: "NTR-'abvs' Above Base Substitutions in Telugu lookup 10 subtable" Da Imatra
EndChar

StartChar: DaOttu
Encoding: 126 -1 126
GlifName: D_aO_ttu
Width: 30
VWidth: 0
Flags: W
AnchorPoint: "Anchor-0" -45 25 mark 0
LayerCount: 2
Back
Fore
SplineSet
278 -215 m 257
 257 -220 l 257
 288 -271 318 -350 425 -350 c 256
 501 -350 568 -292 568 -219 c 256
 568 -102 445 -36 315 -36 c 256
 169 -36 74 -110 74 -219 c 256
 74 -297 114 -351 167 -351 c 256
 228 -351 263 -265 278 -215 c 257
  PathStart: -2
124 -219 m 256
 124 -135 197 -81 315 -81 c 256
 434 -81 518 -139 518 -219 c 256
 518 -265 476 -305 425 -305 c 256
 327 -305 326 -195 267 -195 c 256
 224 -195 209 -306 167 -306 c 256
 145 -306 124 -270 124 -219 c 256
  PathStart: -2
EndSplineSet
PickledDataWithLists: "(dp1
S'com.schriftgestaltung.Glyphs.ColorIndex'
p2
I6
sS'public.markColor'
p3
S'0,0.67,0.91,1'
p4
s."
Ligature2: "NTR-'blwf' Below Base Forms in Telugu lookup 2 subtable" Da Halanth
EndChar

StartChar: Delta
Encoding: 129 8710 129
GlifName: D_elta
Width: 541
VWidth: 0
Flags: W
LayerCount: 2
Back
Fore
SplineSet
435 0 m 258
 466 0 491 22 491 53 c 256
 491 60 488 69 485 80 c 257
 323 485 l 258
 314 511 296 524 271 524 c 256
 246 524 228 511 218 485 c 258
 57 80 l 257
 53 69 51 60 51 53 c 256
 51 22 76 0 107 0 c 258
 435 0 l 258
271 458 m 257
 432 53 l 257
 110 53 l 257
 271 458 l 257
EndSplineSet
PickledDataWithLists: "(dp1
S'com.schriftgestaltung.Glyphs.ColorIndex'
p2
I9
sS'public.markColor'
p3
S'0.98,0.36,0.67,1'
p4
s."
EndChar

StartChar: E
Encoding: 144 69 144
GlifName: E_
Width: 479
VWidth: 0
Flags: W
LayerCount: 2
Back
Fore
SplineSet
407 0 m 258
 425 0 440 14 440 32 c 256
 440 50 425 64 407 64 c 258
 141 64 l 257
 141 230 l 257
 380 230 l 258
 398 230 413 244 413 262 c 256
 413 280 398 294 380 294 c 258
 141 294 l 257
 141 460 l 257
 407 460 l 258
 425 460 440 473 440 491 c 256
 440 509 425 524 407 524 c 258
 107 524 l 258
 88 524 73 508 73 489 c 258
 73 34 l 258
 73 15 88 0 107 0 c 258
 407 0 l 258
EndSplineSet
PickledDataWithLists: "(dp1
S'com.schriftgestaltung.Glyphs.ColorIndex'
p2
I9
sS'public.markColor'
p3
S'0.98,0.36,0.67,1'
p4
s."
EndChar

StartChar: EE
Encoding: 145 3087 145
GlifName: E_E_
Width: 571
VWidth: 0
Flags: W
LayerCount: 2
Back
Fore
SplineSet
158 290 m 256
 158 318 103 330 103 426 c 256
 103 523 198 610 305 610 c 256
 463 610 491 513 527 513 c 256
 542 513 554 525 554 540 c 256
 554 574 457 665 305 665 c 256
 166 665 43 554 43 426 c 256
 43 330 100 260 123 260 c 256
 137 260 158 269 158 290 c 256
  PathStart: -2
EndSplineSet
Refer: 851 3086 N 1 0 0 1 0 0 2
PickledDataWithLists: "(dp1
S'com.schriftgestaltung.Glyphs.ColorIndex'
p2
I6
sS'public.markColor'
p3
S'0,0.67,0.91,1'
p4
s."
EndChar

StartChar: Eacute
Encoding: 147 201 147
GlifName: E_acute
Width: 479
VWidth: 0
Flags: W
LayerCount: 2
Back
Fore
SplineSet
407 0 m 258
 425 0 440 14 440 32 c 256
 440 50 425 64 407 64 c 258
 141 64 l 257
 141 230 l 257
 380 230 l 258
 398 230 413 244 413 262 c 256
 413 280 398 294 380 294 c 258
 141 294 l 257
 141 460 l 257
 407 460 l 258
 425 460 440 473 440 491 c 256
 440 509 425 524 407 524 c 258
 107 524 l 258
 88 524 73 508 73 489 c 258
 73 34 l 258
 73 15 88 0 107 0 c 258
 407 0 l 258
263 563 m 258
 315 624 l 257
 320 629 323 636 323 643 c 256
 323 662 313 671 293 671 c 256
 283 671 275 666 270 656 c 258
 232 589 l 257
 228 585 227 580 227 572 c 256
 227 563 235 554 248 554 c 256
 254 554 259 557 263 563 c 258
  PathStart: -2
EndSplineSet
PickledDataWithLists: "(dp1
S'com.schriftgestaltung.Glyphs.ColorIndex'
p2
I9
sS'public.markColor'
p3
S'0.98,0.36,0.67,1'
p4
s."
EndChar

StartChar: Ecircumflex
Encoding: 148 202 148
GlifName: E_circumflex
Width: 479
VWidth: 0
Flags: W
LayerCount: 2
Back
Fore
SplineSet
407 0 m 258
 425 0 440 14 440 32 c 256
 440 50 425 64 407 64 c 258
 141 64 l 257
 141 230 l 257
 380 230 l 258
 398 230 413 244 413 262 c 256
 413 280 398 294 380 294 c 258
 141 294 l 257
 141 460 l 257
 407 460 l 258
 425 460 440 473 440 491 c 256
 440 509 425 524 407 524 c 258
 107 524 l 258
 88 524 73 508 73 489 c 258
 73 34 l 258
 73 15 88 0 107 0 c 258
 407 0 l 258
197 559 m 257
 262 614 l 257
 327 559 l 257
 331 555 335 554 341 554 c 256
 353 554 363 564 363 576 c 256
 363 581 361 587 357 590 c 258
 306 643 l 258
 296 653 286 658 276 658 c 258
 248 658 l 258
 238 658 227 653 218 643 c 258
 167 590 l 258
 163 587 161 583 161 580 c 256
 161 577 161 574 161 572 c 256
 161 566 170 554 182 554 c 256
 188 554 193 555 197 559 c 257
  PathStart: -2
EndSplineSet
PickledDataWithLists: "(dp1
S'com.schriftgestaltung.Glyphs.ColorIndex'
p2
I9
sS'public.markColor'
p3
S'0.98,0.36,0.67,1'
p4
s."
EndChar

StartChar: Edieresis
Encoding: 149 203 149
GlifName: E_dieresis
Width: 479
VWidth: 0
Flags: W
LayerCount: 2
Back
Fore
SplineSet
407 0 m 258
 425 0 440 14 440 32 c 256
 440 50 425 64 407 64 c 258
 141 64 l 257
 141 230 l 257
 380 230 l 258
 398 230 413 244 413 262 c 256
 413 280 398 294 380 294 c 258
 141 294 l 257
 141 460 l 257
 407 460 l 258
 425 460 440 473 440 491 c 256
 440 509 425 524 407 524 c 258
 107 524 l 258
 88 524 73 508 73 489 c 258
 73 34 l 258
 73 15 88 0 107 0 c 258
 407 0 l 258
229 599 m 256
 229 620 212 637 191 637 c 256
 170 637 152 620 152 599 c 256
 152 578 170 560 191 560 c 256
 212 560 229 578 229 599 c 256
  PathStart: -2
356 599 m 256
 356 620 338 637 317 637 c 256
 296 637 279 620 279 599 c 256
 279 578 296 560 317 560 c 256
 338 560 356 578 356 599 c 256
  PathStart: -2
EndSplineSet
PickledDataWithLists: "(dp1
S'com.schriftgestaltung.Glyphs.ColorIndex'
p2
I9
sS'public.markColor'
p3
S'0.98,0.36,0.67,1'
p4
s."
EndChar

StartChar: Egrave
Encoding: 150 200 150
GlifName: E_grave
Width: 479
VWidth: 0
Flags: W
LayerCount: 2
Back
Fore
SplineSet
407 0 m 258
 425 0 440 14 440 32 c 256
 440 50 425 64 407 64 c 258
 141 64 l 257
 141 230 l 257
 380 230 l 258
 398 230 413 244 413 262 c 256
 413 280 398 294 380 294 c 258
 141 294 l 257
 141 460 l 257
 407 460 l 258
 425 460 440 473 440 491 c 256
 440 509 425 524 407 524 c 258
 107 524 l 258
 88 524 73 508 73 489 c 258
 73 34 l 258
 73 15 88 0 107 0 c 258
 407 0 l 258
285 575 m 256
 285 581 284 585 280 589 c 257
 242 656 l 258
 236 666 229 671 219 671 c 256
 199 671 189 662 189 643 c 256
 189 636 191 629 197 624 c 257
 248 563 l 258
 253 557 258 554 265 554 c 256
 277 554 285 563 285 575 c 256
  PathStart: -2
EndSplineSet
PickledDataWithLists: "(dp1
S'com.schriftgestaltung.Glyphs.ColorIndex'
p2
I9
sS'public.markColor'
p3
S'0.98,0.36,0.67,1'
p4
s."
EndChar

StartChar: Eth
Encoding: 151 208 151
GlifName: E_th
Width: 568
VWidth: 0
Flags: W
LayerCount: 2
Back
Fore
SplineSet
263 0 m 258
 346 0 413 28 462 84 c 256
 506 133 527 199 527 262 c 256
 527 325 506 391 462 440 c 256
 413 496 346 524 263 524 c 258
 112 524 l 258
 93 524 78 508 78 489 c 258
 78 287 l 257
 38 287 l 258
 23 287 13 275 13 261 c 256
 13 247 23 236 38 236 c 258
 78 236 l 257
 78 34 l 258
 78 15 93 0 112 0 c 258
 263 0 l 258
146 236 m 257
 234 236 l 258
 248 236 260 247 260 261 c 256
 260 275 248 287 234 287 c 258
 146 287 l 257
 146 460 l 257
 254 460 l 258
 378 460 460 380 460 262 c 256
 460 144 378 64 254 64 c 258
 146 64 l 257
 146 236 l 257
EndSplineSet
PickledDataWithLists: "(dp1
S'com.schriftgestaltung.Glyphs.ColorIndex'
p2
I9
sS'public.markColor'
p3
S'0.98,0.36,0.67,1'
p4
s."
EndChar

StartChar: Euro
Encoding: 152 8364 152
GlifName: E_uro
Width: 512
VWidth: 0
Flags: W
LayerCount: 2
Back
Fore
SplineSet
461 17 m 256
 472 22 478 30 478 41 c 256
 478 62 463 74 450 74 c 256
 443 74 438 72 433 70 c 257
 408 62 381 57 351 57 c 256
 276 57 213 101 183 172 c 257
 361 172 l 258
 378 172 389 183 389 199 c 256
 389 214 376 227 361 227 c 258
 167 227 l 257
 166 238 165 249 165 262 c 256
 165 274 166 286 167 297 c 257
 398 297 l 258
 413 297 425 310 425 325 c 256
 425 339 413 351 398 351 c 258
 183 351 l 257
 198 386 221 415 251 436 c 256
 280 456 311 467 361 467 c 256
 386 467 408 463 428 455 c 257
 436 452 444 450 452 450 c 256
 463 450 478 462 478 483 c 256
 478 493 472 501 461 507 c 257
 428 523 391 531 351 531 c 256
 235 531 145 457 112 351 c 257
 59 351 l 258
 44 351 32 339 32 324 c 256
 32 309 44 297 59 297 c 258
 100 297 l 257
 98 285 97 273 97 262 c 256
 97 249 98 238 100 227 c 257
 59 227 l 258
 44 227 32 214 32 199 c 256
 32 184 44 172 59 172 c 258
 112 172 l 257
 128 120 157 77 200 44 c 256
 239 11 289 -8 359 -8 c 256
 394 -8 428 1 461 17 c 256
  PathStart: -2
EndSplineSet
PickledDataWithLists: "(dp1
S'com.schriftgestaltung.Glyphs.ColorIndex'
p2
I9
sS'public.markColor'
p3
S'0.98,0.36,0.67,1'
p4
s."
EndChar

StartChar: F
Encoding: 153 70 153
GlifName: F_
Width: 458
VWidth: 0
Flags: W
LayerCount: 2
Back
Fore
SplineSet
141 30 m 258
 141 230 l 257
 372 230 l 258
 390 230 404 244 404 262 c 256
 404 280 390 294 372 294 c 258
 141 294 l 257
 141 460 l 257
 398 460 l 258
 416 460 431 473 431 491 c 256
 431 509 416 524 398 524 c 258
 107 524 l 258
 88 524 73 508 73 489 c 258
 73 30 l 258
 73 11 88 -4 107 -4 c 256
 125 -4 141 11 141 30 c 258
  PathStart: -2
EndSplineSet
PickledDataWithLists: "(dp1
S'com.schriftgestaltung.Glyphs.ColorIndex'
p2
I9
sS'public.markColor'
p3
S'0.98,0.36,0.67,1'
p4
s."
EndChar

StartChar: G
Encoding: 154 71 154
GlifName: G_
Width: 558
VWidth: 0
Flags: W
LayerCount: 2
Back
Fore
SplineSet
476 35 m 256
 494 43 505 60 505 81 c 258
 505 251 l 258
 505 272 489 287 469 287 c 258
 321 287 l 258
 304 287 290 274 290 257 c 256
 290 239 304 226 321 226 c 258
 445 226 l 257
 445 90 l 257
 404 68 361 57 314 57 c 256
 188 57 110 143 110 261 c 256
 110 389 194 465 310 465 c 256
 359 465 408 451 457 423 c 257
 462 421 468 419 476 419 c 256
 491 419 504 433 504 454 c 256
 504 464 499 472 489 477 c 257
 442 507 387 531 302 531 c 256
 152 531 41 420 41 261 c 256
 41 104 148 -8 305 -8 c 256
 363 -8 420 7 476 35 c 256
  PathStart: -2
EndSplineSet
PickledDataWithLists: "(dp1
S'com.schriftgestaltung.Glyphs.ColorIndex'
p2
I9
sS'public.markColor'
p3
S'0.98,0.36,0.67,1'
p4
s."
EndChar

StartChar: Ga
Encoding: 156 3095 156
GlifName: G_a
Width: 570
VWidth: 0
Flags: W
AnchorPoint: "Anchor-0" 0 0 basechar 0
LayerCount: 2
Back
Fore
SplineSet
303 394 m 256
 303 407 290 418 273 418 c 256
 241 418 234 427 234 446 c 256
 234 511 489 586 489 726 c 256
 489 743 476 756 459 756 c 256
 442 756 429 743 429 726 c 256
 429 619 174 565 174 446 c 256
 174 397 211 368 273 368 c 256
 290 368 303 380 303 394 c 256
  PathStart: -2
EndSplineSet
Refer: 157 -1 N 1 0 0 1 0 0 2
PickledDataWithLists: "(dp1
S'com.schriftgestaltung.Glyphs.ColorIndex'
p2
I6
sS'public.markColor'
p3
S'0,0.67,0.91,1'
p4
s."
EndChar

StartChar: Ga.base
Encoding: 157 -1 157
GlifName: G_a.base
Width: 570
VWidth: 0
Flags: W
LayerCount: 2
Back
Fore
SplineSet
546 14 m 256
 546 156 444 423 273 423 c 256
 138 423 40 254 40 35 c 256
 40 18 53 5 70 5 c 256
 87 5 100 18 100 35 c 256
 100 221 177 368 273 368 c 256
 376 368 486 185 486 14 c 256
 486 -3 499 -16 516 -16 c 256
 533 -16 546 -3 546 14 c 256
  PathStart: -2
EndSplineSet
PickledDataWithLists: "(dp1
S'com.schriftgestaltung.Glyphs.ColorIndex'
p2
I6
sS'public.markColor'
p3
S'0,0.67,0.91,1'
p4
s."
EndChar

StartChar: GaOttu
Encoding: 167 -1 167
GlifName: G_aO_ttu
Width: 30
VWidth: 0
Flags: W
AnchorPoint: "Anchor-0" -48 13 mark 0
LayerCount: 2
Back
Fore
SplineSet
150 -310 m 256
 150 -170 205 -87 298 -87 c 256
 390 -87 446 -170 446 -310 c 256
 446 -327 459 -340 476 -340 c 256
 493 -340 506 -327 506 -310 c 256
 506 -140 427 -33 298 -33 c 256
 169 -33 90 -140 90 -310 c 256
 90 -327 103 -340 120 -340 c 256
 137 -340 150 -327 150 -310 c 256
  PathStart: -2
EndSplineSet
PickledDataWithLists: "(dp1
S'com.schriftgestaltung.Glyphs.ColorIndex'
p2
I6
sS'public.markColor'
p3
S'0,0.67,0.91,1'
p4
s."
Ligature2: "NTR-'blwf' Below Base Forms in Telugu lookup 2 subtable" Ga Halanth
EndChar

StartChar: GhaOttu
Encoding: 180 -1 180
GlifName: G_haO_ttu
Width: 30
VWidth: 0
Flags: W
AnchorPoint: "Anchor-0" -5 18 mark 0
LayerCount: 2
Back
Fore
SplineSet
248 -298 m 257
 280 -330 325 -359 395 -359 c 256
 444 -359 483 -338 506 -302 c 257
 533 -338 581 -359 643 -359 c 256
 735 -359 795 -304 795 -218 c 256
 795 -119 698 -41 652 -13 c 256
 646 -10 641 -9 636 -9 c 256
 621 -9 609 -21 609 -35 c 256
 609 -43 613 -51 622 -58 c 256
 700 -109 740 -164 740 -218 c 256
 740 -274 702 -311 643 -311 c 256
 586 -311 540 -288 528 -254 c 257
 529 -239 l 257
 529 -174 504 -132 393 -33 c 256
 388 -28 381 -25 374 -25 c 256
 358 -25 347 -37 347 -51 c 256
 347 -59 349 -64 355 -69 c 256
 460 -164 474 -187 474 -239 c 256
 474 -284 444 -311 395 -311 c 256
 290 -311 256 -185 165 -185 c 256
 115 -185 76 -224 76 -276 c 256
 76 -323 113 -359 160 -359 c 256
 198 -359 234 -334 248 -298 c 257
  PathStart: -2
127 -275 m 256
 127 -250 145 -233 165 -233 c 256
 182 -233 194 -239 218 -262 c 257
 209 -292 188 -311 164 -311 c 256
 142 -311 127 -296 127 -275 c 256
  PathStart: -2
EndSplineSet
Refer: 763 -1 N 0.79 0 0 0.79 214 -343 2
PickledDataWithLists: "(dp1
S'com.schriftgestaltung.Glyphs.ColorIndex'
p2
I6
sS'public.markColor'
p3
S'0,0.67,0.91,1'
p4
s."
Ligature2: "NTR-'blwf' Below Base Forms in Telugu lookup 2 subtable" Gha Halanth
EndChar

StartChar: H
Encoding: 184 72 184
GlifName: H_
Width: 566
VWidth: 0
Flags: W
LayerCount: 2
Back
Fore
SplineSet
141 30 m 258
 141 230 l 257
 425 230 l 257
 425 30 l 258
 425 11 440 -4 459 -4 c 256
 478 -4 494 11 494 30 c 258
 494 493 l 258
 494 512 478 527 459 527 c 256
 440 527 425 512 425 493 c 258
 425 293 l 257
 141 293 l 257
 141 493 l 258
 141 512 125 527 107 527 c 256
 88 527 73 512 73 493 c 258
 73 30 l 258
 73 11 88 -4 107 -4 c 256
 125 -4 141 11 141 30 c 258
  PathStart: -2
EndSplineSet
PickledDataWithLists: "(dp1
S'com.schriftgestaltung.Glyphs.ColorIndex'
p2
I9
sS'public.markColor'
p3
S'0.98,0.36,0.67,1'
p4
s."
EndChar

StartChar: Ha
Encoding: 185 3129 185
GlifName: H_a
Width: 840
VWidth: 0
Flags: W
AnchorPoint: "Anchor-0" 0 0 basechar 0
LayerCount: 2
Back
Fore
SplineSet
243 72 m 257
 277 30 323 -9 399 -9 c 256
 494 -9 552 47 552 128 c 256
 552 236 432 266 432 313 c 256
 432 345 480 368 567 368 c 256
 686 368 763 324 763 259 c 256
 763 226 743 205 716 205 c 256
 693 205 679 221 679 248 c 256
 679 265 666 278 649 278 c 256
 632 278 619 265 619 248 c 256
 619 195 660 155 716 155 c 256
 777 155 823 200 823 259 c 256
 823 361 721 423 567 423 c 256
 444 423 372 384 372 313 c 256
 372 216 492 204 492 128 c 256
 492 78 459 46 399 46 c 256
 306 46 258 203 154 203 c 256
 86 203 35 155 35 89 c 256
 35 33 79 -9 136 -9 c 256
 180 -9 227 21 243 72 c 257
  PathStart: -2
90 89 m 256
 90 124 115 148 154 148 c 256
 172 148 184 140 207 109 c 257
 194 70 167 46 136 46 c 256
 109 46 90 64 90 89 c 256
  PathStart: -2
94 317 m 256
 94 338 116 366 192 438 c 256
 255 496 330 566 353 647 c 256
 354 650 354 653 354 656 c 257
 354 673 341 686 324 686 c 256
 310 686 298 676 295 663 c 256
 277 599 214 540 152 482 c 256
 62 398 34 361 34 317 c 256
 34 300 47 287 64 287 c 256
 81 287 94 300 94 317 c 256
  PathStart: -2
EndSplineSet
PickledDataWithLists: "(dp1
S'com.schriftgestaltung.Glyphs.ColorIndex'
p2
I6
sS'public.markColor'
p3
S'0,0.67,0.91,1'
p4
s."
EndChar

StartChar: Ha.base
Encoding: 186 -1 186
GlifName: H_a.base
Width: 840
VWidth: 0
Flags: W
LayerCount: 2
Back
Fore
SplineSet
243 72 m 257
 277 30 323 -9 399 -9 c 256
 494 -9 552 47 552 128 c 256
 552 236 432 266 432 313 c 256
 432 345 480 368 567 368 c 256
 686 368 763 327 763 269 c 256
 763 236 743 215 716 215 c 256
 693 215 679 231 679 258 c 256
 679 275 666 288 649 288 c 256
 632 288 619 275 619 258 c 256
 619 205 660 165 716 165 c 256
 777 165 823 210 823 269 c 256
 823 364 721 423 567 423 c 256
 444 423 372 384 372 313 c 256
 372 216 492 204 492 128 c 256
 492 78 459 46 399 46 c 256
 306 46 258 203 154 203 c 256
 86 203 35 155 35 89 c 256
 35 33 79 -9 136 -9 c 256
 180 -9 227 21 243 72 c 257
  PathStart: -2
90 89 m 256
 90 124 115 148 154 148 c 256
 172 148 184 140 207 109 c 257
 194 70 167 46 136 46 c 256
 109 46 90 64 90 89 c 256
  PathStart: -2
EndSplineSet
PickledDataWithLists: "(dp1
S'com.schriftgestaltung.Glyphs.ColorIndex'
p2
I6
sS'public.markColor'
p3
S'0,0.67,0.91,1'
p4
s."
EndChar

StartChar: HaAA
Encoding: 187 -1 187
GlifName: H_aA_A_
Width: 840
VWidth: 0
Flags: W
AnchorPoint: "Anchor-0" 0 0 basechar 0
LayerCount: 2
Back
Fore
SplineSet
679 248 m 257
 679 350 768 381 768 486 c 256
 768 540 747 577 700 613 c 256
 694 618 688 620 681 620 c 256
 665 620 652 606 652 590 c 256
 652 581 656 572 664 566 c 256
 697 541 708 521 708 486 c 256
 708 408 619 363 619 248 c 257
 679 248 l 257
EndSplineSet
Refer: 185 3129 N 1 0 0 1 0 0 2
PickledDataWithLists: "(dp1
S'com.schriftgestaltung.Glyphs.ColorIndex'
p2
I6
sS'public.markColor'
p3
S'0,0.67,0.91,1'
p4
s."
Ligature2: "NTR-'abvs' Above Base Substitutions in Telugu lookup 9 subtable" Ha AAMatra
EndChar

StartChar: HaOttu
Encoding: 196 -1 196
GlifName: H_aO_ttu
Width: 31
VWidth: 0
Flags: W
AnchorPoint: "Anchor-0" 0 45 mark 0
LayerCount: 2
Back
Fore
SplineSet
230 -330 m 257
 257 -362 294 -391 353 -391 c 256
 429 -391 480 -347 480 -279 c 256
 480 -193 384 -169 384 -131 c 256
 384 -106 423 -89 488 -89 c 256
 580 -89 641 -120 641 -167 c 256
 641 -192 627 -208 607 -208 c 256
 591 -208 581 -197 581 -175 c 256
 581 -161 569 -149 553 -149 c 256
 539 -149 526 -161 526 -175 c 256
 526 -220 561 -252 607 -252 c 256
 657 -252 696 -216 696 -167 c 256
 696 -91 614 -41 488 -41 c 256
 387 -41 329 -75 329 -131 c 256
 329 -211 425 -220 425 -279 c 256
 425 -319 399 -343 353 -343 c 256
 278 -343 237 -217 147 -217 c 256
 94 -217 54 -256 54 -308 c 256
 54 -356 93 -391 143 -391 c 256
 181 -391 217 -366 230 -330 c 257
  PathStart: -2
105 -308 m 256
 105 -283 122 -265 147 -265 c 256
 163 -265 173 -270 197 -295 c 257
 186 -325 166 -343 143 -343 c 256
 120 -343 105 -329 105 -308 c 256
  PathStart: -2
EndSplineSet
PickledDataWithLists: "(dp1
S'com.schriftgestaltung.Glyphs.ColorIndex'
p2
I6
sS'public.markColor'
p3
S'0,0.67,0.91,1'
p4
s."
Ligature2: "NTR-'blwf' Below Base Forms in Telugu lookup 2 subtable" Ha Halanth
EndChar

StartChar: Halanth
Encoding: 199 3149 199
GlifName: H_alanth
Width: 0
VWidth: 0
Flags: W
LayerCount: 2
Back
Fore
SplineSet
34 396 m 256
 34 421 10 423 0 423 c 256
 -60 423 -81 433 -81 452 c 256
 -81 490 59 512 59 574 c 256
 59 657 -152 625 -152 706 c 256
 -152 748 -94 780 -1 780 c 256
 165 780 329 725 344 725 c 256
 361 725 370 741 370 759 c 256
 370 772 362 781 348 785 c 256
 254 812 134 835 -1 835 c 256
 -129 835 -212 786 -212 706 c 256
 -212 593 -39 589 9 571 c 257
 -31 547 -141 509 -141 452 c 256
 -141 398 -89 368 0 368 c 256
 13 368 34 373 34 396 c 256
  PathStart: -2
EndSplineSet
PickledDataWithLists: "(dp1
S'com.schriftgestaltung.Glyphs.ColorIndex'
p2
I6
sS'public.markColor'
p3
S'0,0.67,0.91,1'
p4
s."
EndChar

StartChar: I
Encoding: 200 73 200
GlifName: I_
Width: 214
VWidth: 0
Flags: W
LayerCount: 2
Back
Fore
SplineSet
141 30 m 258
 141 493 l 258
 141 512 125 527 107 527 c 256
 88 527 73 512 73 493 c 258
 73 30 l 258
 73 11 88 -4 107 -4 c 256
 125 -4 141 11 141 30 c 258
  PathStart: -2
EndSplineSet
PickledDataWithLists: "(dp1
S'com.schriftgestaltung.Glyphs.ColorIndex'
p2
I9
sS'public.markColor'
p3
S'0.98,0.36,0.67,1'
p4
s."
EndChar

StartChar: II
Encoding: 201 3080 201
GlifName: I_I_
Width: 1011
VWidth: 0
Flags: W
LayerCount: 2
Back
Fore
SplineSet
979 107 m 256
 979 173 920 229 850 229 c 257
 850 174 l 257
 887 174 919 143 919 107 c 256
 919 71 894 46 859 46 c 256
 828 46 809 65 809 98 c 256
 809 185 948 212 948 345 c 256
 948 412 886 465 809 465 c 256
 734 465 682 416 682 345 c 257
 742 345 l 257
 742 385 767 410 809 410 c 256
 854 410 888 381 888 345 c 256
 888 241 749 215 749 98 c 256
 749 35 795 -9 859 -9 c 256
 927 -9 979 41 979 107 c 256
  PathStart: -2
851 172 m 258
 866 173 877 185 877 201 c 256
 876 216 864 228 849 227 c 258
 61 184 l 258
 45 183 34 171 34 155 c 256
 35 140 47 128 62 129 c 258
 851 172 l 258
742 345 m 256
 742 362 729 375 712 375 c 256
 695 375 682 362 682 345 c 256
 682 328 695 315 712 315 c 256
 729 315 742 328 742 345 c 256
  PathStart: -2
EndSplineSet
Refer: 451 3120 N 1 0 0 1 90 0 2
PickledDataWithLists: "(dp1
S'com.schriftgestaltung.Glyphs.ColorIndex'
p2
I6
sS'public.markColor'
p3
S'0,0.67,0.91,1'
p4
s."
EndChar

StartChar: IIMatra
Encoding: 202 3136 202
GlifName: I_I_M_atra
Width: 0
VWidth: 0
Flags: W
LayerCount: 2
Back
Fore
SplineSet
163 489 m 256
 163 652 -86 619 -86 759 c 256
 -86 798 -49 830 -3 830 c 256
 49 830 91 803 91 751 c 256
 91 734 104 721 121 721 c 256
 138 721 151 734 151 751 c 256
 151 835 83 885 -3 885 c 256
 -76 885 -146 832 -146 759 c 256
 -146 695 -103 642 -20 603 c 257
 -78 591 -116 543 -116 489 c 256
 -116 416 -59 368 24 368 c 256
 106 368 163 416 163 489 c 256
  PathStart: -2
-56 493 m 256
 -56 535 -26 566 24 566 c 256
 73 566 103 535 103 493 c 256
 103 451 73 423 24 423 c 256
 -26 423 -56 451 -56 493 c 256
  PathStart: -2
EndSplineSet
PickledDataWithLists: "(dp1
S'com.schriftgestaltung.Glyphs.ColorIndex'
p2
I6
sS'public.markColor'
p3
S'0,0.67,0.91,1'
p4
s."
EndChar

StartChar: Iacute
Encoding: 203 205 203
GlifName: I_acute
Width: 214
VWidth: 0
Flags: W
LayerCount: 2
Back
Fore
SplineSet
141 30 m 258
 141 493 l 258
 141 512 125 527 107 527 c 256
 88 527 73 512 73 493 c 258
 73 30 l 258
 73 11 88 -4 107 -4 c 256
 125 -4 141 11 141 30 c 258
  PathStart: -2
113 563 m 258
 164 624 l 257
 170 629 172 636 172 643 c 256
 172 662 162 671 142 671 c 256
 132 671 125 666 119 656 c 258
 81 589 l 257
 77 585 76 580 76 572 c 256
 76 563 84 554 97 554 c 256
 103 554 108 557 113 563 c 258
  PathStart: -2
EndSplineSet
PickledDataWithLists: "(dp1
S'com.schriftgestaltung.Glyphs.ColorIndex'
p2
I9
sS'public.markColor'
p3
S'0.98,0.36,0.67,1'
p4
s."
EndChar

StartChar: Icircumflex
Encoding: 204 206 204
GlifName: I_circumflex
Width: 214
VWidth: 0
Flags: W
LayerCount: 2
Back
Fore
SplineSet
141 30 m 258
 141 493 l 258
 141 512 125 527 107 527 c 256
 88 527 73 512 73 493 c 258
 73 30 l 258
 73 11 88 -4 107 -4 c 256
 125 -4 141 11 141 30 c 258
  PathStart: -2
42 559 m 257
 107 614 l 257
 173 559 l 257
 176 555 181 554 187 554 c 256
 199 554 209 564 209 576 c 256
 209 581 206 587 203 590 c 258
 152 643 l 258
 142 653 131 658 122 658 c 258
 93 658 l 258
 83 658 73 653 63 643 c 258
 12 590 l 258
 8 587 6 583 6 580 c 256
 6 577 6 574 6 572 c 256
 6 566 16 554 28 554 c 256
 34 554 38 555 42 559 c 257
  PathStart: -2
EndSplineSet
PickledDataWithLists: "(dp1
S'com.schriftgestaltung.Glyphs.ColorIndex'
p2
I9
sS'public.markColor'
p3
S'0.98,0.36,0.67,1'
p4
s."
EndChar

StartChar: Idieresis
Encoding: 205 207 205
GlifName: I_dieresis
Width: 214
VWidth: 0
Flags: W
LayerCount: 2
Back
Fore
SplineSet
141 30 m 258
 141 493 l 258
 141 512 125 527 107 527 c 256
 88 527 73 512 73 493 c 258
 73 30 l 258
 73 11 88 -4 107 -4 c 256
 125 -4 141 11 141 30 c 258
  PathStart: -2
83 599 m 256
 83 620 65 637 44 637 c 256
 23 637 6 620 6 599 c 256
 6 578 23 560 44 560 c 256
 65 560 83 578 83 599 c 256
  PathStart: -2
209 599 m 256
 209 620 192 637 171 637 c 256
 150 637 133 620 133 599 c 256
 133 578 150 560 171 560 c 256
 192 560 209 578 209 599 c 256
  PathStart: -2
EndSplineSet
PickledDataWithLists: "(dp1
S'com.schriftgestaltung.Glyphs.ColorIndex'
p2
I9
sS'public.markColor'
p3
S'0.98,0.36,0.67,1'
p4
s."
EndChar

StartChar: Igrave
Encoding: 206 204 206
GlifName: I_grave
Width: 214
VWidth: 0
Flags: W
LayerCount: 2
Back
Fore
SplineSet
141 30 m 258
 141 493 l 258
 141 512 125 527 107 527 c 256
 88 527 73 512 73 493 c 258
 73 30 l 258
 73 11 88 -4 107 -4 c 256
 125 -4 141 11 141 30 c 258
  PathStart: -2
139 575 m 256
 139 581 137 585 134 589 c 257
 95 656 l 258
 90 666 83 671 73 671 c 256
 53 671 43 662 43 643 c 256
 43 636 45 629 50 624 c 257
 102 563 l 258
 107 557 112 554 119 554 c 256
 131 554 139 563 139 575 c 256
  PathStart: -2
EndSplineSet
PickledDataWithLists: "(dp1
S'com.schriftgestaltung.Glyphs.ColorIndex'
p2
I9
sS'public.markColor'
p3
S'0.98,0.36,0.67,1'
p4
s."
EndChar

StartChar: Imatra
Encoding: 207 3135 207
GlifName: I_matra
Width: 0
VWidth: 0
Flags: W
LayerCount: 2
Back
Fore
SplineSet
163 493 m 256
 163 568 106 618 24 618 c 256
 -59 618 -116 568 -116 493 c 256
 -116 418 -59 368 24 368 c 256
 106 368 163 418 163 493 c 256
  PathStart: -2
-56 493 m 256
 -56 535 -26 563 24 563 c 256
 73 563 103 535 103 493 c 256
 103 451 73 423 24 423 c 257
 -26 423 -56 451 -56 493 c 256
  PathStart: -2
EndSplineSet
PickledDataWithLists: "(dp1
S'com.schriftgestaltung.Glyphs.ColorIndex'
p2
I6
sS'public.markColor'
p3
S'0,0.67,0.91,1'
p4
s."
EndChar

StartChar: J
Encoding: 208 74 208
GlifName: J_
Width: 350
VWidth: 0
Flags: W
LayerCount: 2
Back
Fore
SplineSet
280 173 m 258
 280 493 l 258
 280 512 264 527 245 527 c 256
 227 527 212 512 212 493 c 258
 212 168 l 258
 212 125 202 95 183 77 c 256
 166 62 146 57 111 57 c 256
 93 57 74 62 56 71 c 256
 49 75 42 77 35 77 c 256
 22 77 9 63 9 43 c 256
 9 32 14 24 26 18 c 256
 56 1 89 -8 125 -8 c 256
 215 -8 280 41 280 173 c 258
  PathStart: -2
EndSplineSet
PickledDataWithLists: "(dp1
S'com.schriftgestaltung.Glyphs.ColorIndex'
p2
I9
sS'public.markColor'
p3
S'0.98,0.36,0.67,1'
p4
s."
EndChar

StartChar: Ja
Encoding: 209 3100 209
GlifName: J_a
Width: 713
VWidth: 0
Flags: W
AnchorPoint: "Anchor-0" 0 0 basechar 0
LayerCount: 2
Back
Fore
SplineSet
552 317 m 256
 552 370 509 423 433 423 c 256
 417 423 405 411 405 396 c 256
 405 380 417 368 433 368 c 256
 471 368 492 343 492 319 c 256
 492 293 470 268 420 268 c 256
 347 268 306 300 282 377 c 257
 227 373 l 257
 260 269 322 218 420 218 c 256
 511 218 552 267 552 317 c 256
  PathStart: -2
EndSplineSet
Refer: 852 3090 N 1 0 0 1 0 0 2
PickledDataWithLists: "(dp1
S'com.schriftgestaltung.Glyphs.ColorIndex'
p2
I6
sS'public.markColor'
p3
S'0,0.67,0.91,1'
p4
s."
EndChar

StartChar: JaI
Encoding: 215 -1 215
GlifName: J_aI_
Width: 713
VWidth: 0
Flags: W
AnchorPoint: "Anchor-0" 0 0 basechar 0
LayerCount: 2
Back
Fore
SplineSet
620 401 m 256
 620 553 468 568 433 568 c 256
 417 568 405 556 405 541 c 256
 405 530 417 522 433 522 c 256
 524 522 565 468 565 401 c 257
 565 335 512 268 420 268 c 256
 339 268 304 314 282 377 c 257
 227 373 l 257
 259 282 315 218 420 218 c 256
 553 218 620 311 620 401 c 256
  PathStart: -2
532 473 m 256
 532 528 490 568 433 568 c 256
 375 568 333 528 333 473 c 256
 333 418 375 378 433 378 c 256
 490 378 532 418 532 473 c 256
  PathStart: -2
393 473 m 256
 393 494 409 513 433 513 c 256
 456 513 472 494 472 473 c 256
 472 452 456 433 433 433 c 257
 410 433 393 452 393 473 c 256
  PathStart: -2
EndSplineSet
Refer: 852 3090 N 1 0 0 1 0 0 2
PickledDataWithLists: "(dp1
S'com.schriftgestaltung.Glyphs.ColorIndex'
p2
I6
sS'public.markColor'
p3
S'0,0.67,0.91,1'
p4
s."
Ligature2: "NTR-'abvs' Above Base Substitutions in Telugu lookup 10 subtable" Ja Imatra
EndChar

StartChar: JaOttu
Encoding: 227 -1 227
GlifName: J_aO_ttu
Width: 30
VWidth: 0
Flags: W
AnchorPoint: "Anchor-0" -42 46 mark 0
LayerCount: 2
Back
Fore
SplineSet
591 -262 m 256
 591 -213 554 -152 528 -152 c 256
 514 -152 501 -165 501 -178 c 256
 501 -197 536 -218 536 -262 c 256
 536 -305 510 -330 464 -330 c 256
 383 -330 379 -222 334 -222 c 256
 293 -222 268 -323 249 -323 c 256
 238 -323 234 -305 234 -281 c 256
 234 -249 251 -196 264 -152 c 257
 293 -184 331 -200 381 -200 c 256
 456 -200 491 -159 491 -119 c 256
 491 -77 454 -32 392 -32 c 256
 378 -32 366 -42 366 -56 c 256
 366 -70 377 -80 392 -80 c 256
 417 -80 436 -97 436 -118 c 256
 436 -140 411 -156 371 -156 c 256
 267 -156 292 -32 222 -32 c 256
 151 -32 71 -93 71 -146 c 256
 71 -184 101 -211 144 -211 c 256
 159 -211 172 -199 172 -185 c 256
 172 -170 159 -159 144 -159 c 256
 131 -159 126 -155 126 -146 c 256
 126 -121 170 -84 204 -84 c 256
 217 -84 222 -96 222 -104 c 256
 222 -131 179 -226 179 -281 c 256
 179 -343 208 -375 249 -375 c 256
 293 -375 317 -320 334 -281 c 257
 355 -321 379 -382 464 -382 c 256
 540 -382 591 -334 591 -262 c 256
  PathStart: -2
EndSplineSet
PickledDataWithLists: "(dp1
S'com.schriftgestaltung.Glyphs.ColorIndex'
p2
I6
sS'public.markColor'
p3
S'0,0.67,0.91,1'
p4
s."
Ligature2: "NTR-'blwf' Below Base Forms in Telugu lookup 2 subtable" Ja Halanth
Ligature2: "NTR-'blwf' Below Base Forms in Telugu lookup 2 subtable" JaNukta Halanth
EndChar

StartChar: JaU
Encoding: 228 -1 228
GlifName: J_aU_
Width: 713
VWidth: 0
Flags: W
AnchorPoint: "Anchor-0" 0 0 basechar 0
LayerCount: 2
Back
Fore
SplineSet
440 330 m 257
 467 302 503 288 543 288 c 256
 634 288 675 337 675 387 c 256
 675 440 632 493 556 493 c 256
 540 493 528 481 528 466 c 256
 528 450 540 438 556 438 c 256
 594 438 615 413 615 389 c 256
 615 363 592 338 543 338 c 256
 521 338 504 343 489 351 c 256
 455 370 443 388 427 388 c 256
 411 388 406 364 382 323 c 256
 371 305 357 292 339 292 c 256
 306 292 291 341 282 377 c 257
 227 375 l 257
 247 311 269 242 344 242 c 256
 392 242 424 281 440 330 c 257
  PathStart: -2
EndSplineSet
Refer: 852 3090 N 1 0 0 1 0 0 2
PickledDataWithLists: "(dp1
S'com.schriftgestaltung.Glyphs.ColorIndex'
p2
I6
sS'public.markColor'
p3
S'0,0.67,0.91,1'
p4
s."
Ligature2: "NTR-'psts' Post Base Substitutions in Telugu lookup 17 subtable" Ja UMatra
EndChar

StartChar: JaUU
Encoding: 229 -1 229
GlifName: J_aU_U_
Width: 928
VWidth: 0
Flags: W
AnchorPoint: "Anchor-0" 0 0 basechar 0
LayerCount: 2
Back
Fore
SplineSet
440 330 m 257
 469 302 509 288 553 288 c 256
 630 288 665 328 665 371 c 257
 665 462 543 464 543 519 c 256
 543 554 591 579 673 579 c 256
 780 579 849 536 849 475 c 256
 849 442 829 421 802 421 c 256
 779 421 765 437 765 464 c 256
 765 481 752 494 735 494 c 256
 718 494 705 481 705 464 c 256
 705 411 746 371 802 371 c 256
 863 371 909 416 909 475 c 256
 909 570 815 629 673 629 c 256
 554 629 483 590 483 519 c 256
 483 422 605 414 605 373 c 256
 605 354 588 338 553 338 c 256
 526 338 506 342 489 351 c 256
 455 370 443 388 427 388 c 256
 411 388 406 364 382 323 c 256
 371 305 357 292 339 292 c 256
 306 292 291 341 282 377 c 257
 227 375 l 257
 247 311 269 242 344 242 c 256
 392 242 424 281 440 330 c 257
  PathStart: -2
EndSplineSet
Refer: 852 3090 N 1 0 0 1 0 0 2
PickledDataWithLists: "(dp1
S'com.schriftgestaltung.Glyphs.ColorIndex'
p2
I6
sS'public.markColor'
p3
S'0,0.67,0.91,1'
p4
s."
Ligature2: "NTR-'psts' Post Base Substitutions in Telugu lookup 17 subtable" Ja UUMatra
EndChar

StartChar: JhaOttu
Encoding: 240 -1 240
GlifName: J_haO_ttu
Width: 30
VWidth: 0
Flags: W
AnchorPoint: "Anchor-0" 65 19 mark 0
LayerCount: 2
Back
Fore
SplineSet
414 -307 m 257
 437 -345 482 -367 544 -367 c 256
 601 -367 647 -348 675 -315 c 257
 699 -348 743 -367 800 -367 c 256
 896 -367 960 -312 960 -226 c 256
 960 -136 863 -69 817 -41 c 257
 813 -39 807 -37 803 -37 c 256
 788 -37 775 -49 775 -63 c 256
 775 -72 779 -80 789 -86 c 257
 866 -137 905 -179 905 -226 c 256
 905 -282 864 -319 800 -319 c 256
 750 -319 710 -294 702 -258 c 257
 704 -248 705 -237 705 -226 c 256
 705 -136 629 -69 592 -41 c 257
 586 -38 581 -37 577 -37 c 256
 562 -37 549 -49 549 -63 c 256
 549 -71 553 -79 563 -86 c 257
 620 -137 650 -179 650 -226 c 256
 650 -282 609 -319 544 -319 c 256
 494 -319 455 -294 447 -257 c 257
 454 -239 458 -220 458 -199 c 256
 458 -94 361 -47 255 -47 c 256
 145 -47 74 -124 74 -219 c 256
 74 -307 146 -367 253 -367 c 256
 320 -367 377 -344 414 -307 c 257
  PathStart: -2
129 -219 m 256
 129 -154 179 -95 255 -95 c 256
 342 -95 403 -138 403 -199 c 256
 403 -266 341 -315 253 -315 c 256
 177 -315 129 -278 129 -219 c 256
  PathStart: -2
EndSplineSet
Refer: 763 -1 N 0.79 0 0 0.79 615 -343 2
PickledDataWithLists: "(dp1
S'com.schriftgestaltung.Glyphs.ColorIndex'
p2
I6
sS'public.markColor'
p3
S'0,0.67,0.91,1'
p4
s."
Ligature2: "NTR-'blwf' Below Base Forms in Telugu lookup 2 subtable" Jha Halanth
EndChar

StartChar: K
Encoding: 243 75 243
GlifName: K_
Width: 503
VWidth: 0
Flags: W
LayerCount: 2
Back
Fore
SplineSet
141 30 m 258
 141 170 l 257
 227 257 l 257
 420 10 l 258
 427 1 435 -4 446 -4 c 256
 467 -4 480 11 480 28 c 256
 480 36 477 44 472 51 c 258
 273 302 l 257
 446 474 l 258
 452 479 455 487 455 497 c 256
 455 515 442 527 422 527 c 256
 413 527 404 524 398 515 c 257
 141 254 l 257
 141 493 l 258
 141 512 125 527 107 527 c 256
 88 527 73 512 73 493 c 258
 73 30 l 258
 73 11 88 -4 107 -4 c 256
 125 -4 141 11 141 30 c 258
  PathStart: -2
EndSplineSet
PickledDataWithLists: "(dp1
S'com.schriftgestaltung.Glyphs.ColorIndex'
p2
I9
sS'public.markColor'
p3
S'0.98,0.36,0.67,1'
p4
s."
EndChar

StartChar: Ka
Encoding: 244 3093 244
GlifName: K_a
Width: 488
VWidth: 0
Flags: W
AnchorPoint: "Anchor-0" 0 0 basechar 0
LayerCount: 2
Back
Fore
SplineSet
457 144 m 256
 457 223 388 241 311 241 c 256
 248 241 180 229 138 229 c 256
 120 229 99 233 99 250 c 256
 99 306 244 368 374 368 c 256
 389 368 401 380 401 396 c 256
 401 411 389 423 374 423 c 256
 276 423 39 369 39 250 c 256
 39 187 93 172 159 172 c 256
 217 172 283 183 331 183 c 256
 369 183 397 176 397 144 c 256
 397 89 321 46 223 46 c 256
 117 46 95 82 60 82 c 256
 43 82 30 67 30 51 c 256
 30 11 150 -9 223 -9 c 256
 356 -9 457 55 457 144 c 256
  PathStart: -2
272 378 m 256
 272 388 259 397 242 397 c 256
 210 397 144 396 144 437 c 256
 144 537 399 586 399 726 c 256
 399 743 386 756 369 756 c 256
 352 756 339 743 339 726 c 256
 339 619 84 561 84 442 c 256
 84 364 180 352 242 352 c 256
 259 352 272 364 272 378 c 256
  PathStart: -2
EndSplineSet
PickledDataWithLists: "(dp1
S'com.schriftgestaltung.Glyphs.ColorIndex'
p2
I6
sS'public.markColor'
p3
S'0,0.67,0.91,1'
p4
s."
EndChar

StartChar: Ka.base
Encoding: 245 -1 245
GlifName: K_a.base
Width: 488
VWidth: 0
Flags: W
LayerCount: 2
Back
Fore
SplineSet
457 144 m 256
 457 223 388 241 311 241 c 256
 248 241 180 229 138 229 c 256
 120 229 99 233 99 250 c 256
 99 307 193 377 334 377 c 256
 349 377 361 389 361 405 c 256
 361 420 349 432 334 432 c 256
 211 432 39 362 39 250 c 256
 39 187 93 172 159 172 c 256
 217 172 283 183 331 183 c 256
 369 183 397 176 397 144 c 256
 397 89 321 46 223 46 c 256
 117 46 95 82 60 82 c 256
 43 82 30 67 30 51 c 256
 30 11 150 -9 223 -9 c 256
 356 -9 457 55 457 144 c 256
  PathStart: -2
EndSplineSet
PickledDataWithLists: "(dp1
S'com.schriftgestaltung.Glyphs.ColorIndex'
p2
I6
sS'public.markColor'
p3
S'0,0.67,0.91,1'
p4
s."
EndChar

StartChar: Ka.base01
Encoding: 246 -1 246
GlifName: K_a.base01
Width: 488
VWidth: 0
Flags: W
LayerCount: 2
Back
Fore
SplineSet
457 144 m 256
 457 223 388 241 311 241 c 256
 248 241 180 229 138 229 c 256
 120 229 99 232 99 260 c 256
 99 312 180 368 264 368 c 256
 279 368 291 380 291 396 c 256
 291 411 279 423 264 423 c 256
 184 423 39 361 39 260 c 256
 39 187 93 172 159 172 c 256
 217 172 283 183 331 183 c 256
 369 183 397 176 397 144 c 256
 397 89 321 46 223 46 c 256
 117 46 95 82 60 82 c 256
 43 82 30 67 30 51 c 256
 30 11 150 -9 223 -9 c 256
 356 -9 457 55 457 144 c 256
  PathStart: -2
EndSplineSet
PickledDataWithLists: "(dp1
S'com.schriftgestaltung.Glyphs.ColorIndex'
p2
I6
sS'public.markColor'
p3
S'0,0.67,0.91,1'
p4
s."
EndChar

StartChar: KaO
Encoding: 254 -1 254
GlifName: K_aO_
Width: 744
VWidth: 0
Flags: W
AnchorPoint: "Anchor-0" 0 0 basechar 0
LayerCount: 2
Back
Fore
SplineSet
230 368 m 257
 276 423 l 257
 178 423 l 257
 178 368 l 257
 230 368 l 257
EndSplineSet
Refer: 245 -1 N 1 0 0 1 0 0 2
Refer: 392 3146 N 1 0 0 1 179 0 2
PickledDataWithLists: "(dp1
S'com.schriftgestaltung.Glyphs.ColorIndex'
p2
I6
sS'public.markColor'
p3
S'0,0.67,0.91,1'
p4
s."
Ligature2: "NTR-'abvs' Above Base Substitutions in Telugu lookup 14 subtable" Ka OMatra
EndChar

StartChar: KaOO
Encoding: 255 -1 255
GlifName: K_aO_O_
Width: 724
VWidth: 0
Flags: W
AnchorPoint: "Anchor-0" 0 0 basechar 0
LayerCount: 2
Back
Fore
SplineSet
230 368 m 257
 276 423 l 257
 178 423 l 257
 178 368 l 257
 230 368 l 257
EndSplineSet
Refer: 245 -1 N 1 0 0 1 0 0 2
Refer: 394 3147 N 1 0 0 1 179 0 2
PickledDataWithLists: "(dp1
S'com.schriftgestaltung.Glyphs.ColorIndex'
p2
I6
sS'public.markColor'
p3
S'0,0.67,0.91,1'
p4
s."
Ligature2: "NTR-'abvs' Above Base Substitutions in Telugu lookup 15 subtable" Ka OOMatra
EndChar

StartChar: Kaottu
Encoding: 258 -1 258
GlifName: K_aottu
Width: 378
VWidth: 0
Flags: W
LayerCount: 2
Back
Fore
SplineSet
320 -203 m 256
 320 -143 276 -100 205 -84 c 256
 183 -71 158 -65 132 -65 c 256
 116 -65 104 -77 104 -92 c 256
 104 -108 116 -120 132 -120 c 256
 212 -120 260 -151 260 -203 c 256
 260 -268 150 -275 114 -275 c 256
 20 -275 -30 -241 -30 -173 c 256
 -30 -67 215 -7 215 143 c 256
 215 229 117 266 76 281 c 256
 72 282 69 283 65 283 c 256
 51 283 38 272 38 256 c 256
 38 245 45 234 57 230 c 257
 126 204 155 178 155 143 c 256
 155 17 -90 -31 -90 -173 c 256
 -90 -273 -13 -330 114 -330 c 256
 236 -330 320 -282 320 -203 c 256
  PathStart: -2
380 -100 m 256
 394 -97 401 -88 401 -72 c 257
 401 -59 390 -46 377 -46 c 256
 354 -46 312 -65 132 -65 c 257
 137 -117 l 257
 202 -117 325 -111 380 -100 c 256
  PathStart: -2
EndSplineSet
PickledDataWithLists: "(dp1
S'com.schriftgestaltung.Glyphs.ColorIndex'
p2
I6
sS'public.markColor'
p3
S'0,0.67,0.91,1'
p4
s."
Ligature2: "NTR-'blwf' Below Base Forms in Telugu lookup 2 subtable" Ka Halanth
EndChar

StartChar: Kha
Encoding: 259 3094 259
GlifName: K_ha
Width: 714
VWidth: 0
Flags: W
AnchorPoint: "Anchor-0" 0 0 basechar 0
LayerCount: 2
Back
Fore
SplineSet
386 211 m 256
 386 312 306 407 133 407 c 257
 133 357 l 257
 273 357 326 282 326 211 c 256
 326 114 252 46 174 46 c 257
 135 46 115 61 115 87 c 257
 115 111 137 128 171 128 c 257
 287 128 339 -9 490 -9 c 257
 609 -9 694 78 694 199 c 257
 694 323 583 423 445 423 c 257
 445 368 l 257
 550 368 634 292 634 199 c 257
 634 107 575 46 490 46 c 257
 380 46 328 183 171 183 c 257
 105 183 55 143 55 87 c 257
 55 30 103 -9 174 -9 c 257
 286 -9 386 85 386 211 c 256
  PathStart: -2
232 312 m 256
 232 367 190 407 133 407 c 256
 75 407 33 367 33 312 c 256
 33 257 75 217 133 217 c 256
 190 217 232 257 232 312 c 256
  PathStart: -2
93 312 m 256
 93 333 112 352 133 352 c 256
 154 352 172 333 172 312 c 256
 172 291 154 272 133 272 c 257
 112 272 93 291 93 312 c 256
  PathStart: -2
472 396 m 256
 472 411 460 423 445 423 c 256
 429 423 417 411 417 396 c 256
 417 380 429 368 445 368 c 256
 460 368 472 380 472 396 c 256
  PathStart: -2
EndSplineSet
Refer: 763 -1 N 1 0 0 1 247 0 2
PickledDataWithLists: "(dp1
S'com.schriftgestaltung.Glyphs.ColorIndex'
p2
I6
sS'public.markColor'
p3
S'0,0.67,0.91,1'
p4
s."
EndChar

StartChar: KhaI
Encoding: 265 -1 265
GlifName: K_haI_
Width: 714
VWidth: 0
Flags: W
AnchorPoint: "Anchor-0" 0 0 basechar 0
LayerCount: 2
Back
Fore
SplineSet
604 525 m 256
 604 636 509 691 350 691 c 257
 350 641 l 257
 477 641 544 606 544 525 c 256
 544 467 501 423 445 423 c 257
 445 378 l 257
 534 378 604 443 604 525 c 256
  PathStart: -2
449 596 m 256
 449 651 407 691 350 691 c 256
 292 691 250 651 250 596 c 256
 250 541 292 501 350 501 c 256
 407 501 449 541 449 596 c 256
  PathStart: -2
310 596 m 256
 310 617 329 636 350 636 c 256
 371 636 389 617 389 596 c 256
 389 575 371 556 350 556 c 257
 329 556 310 575 310 596 c 256
  PathStart: -2
EndSplineSet
Refer: 259 3094 N 1 0 0 1 0 0 2
PickledDataWithLists: "(dp1
S'com.schriftgestaltung.Glyphs.ColorIndex'
p2
I6
sS'public.markColor'
p3
S'0,0.67,0.91,1'
p4
s."
Ligature2: "NTR-'abvs' Above Base Substitutions in Telugu lookup 10 subtable" Kha Imatra
EndChar

StartChar: KhaOttu
Encoding: 269 -1 269
GlifName: K_haO_ttu
Width: 30
VWidth: 0
Flags: W
AnchorPoint: "Anchor-0" -30 9 mark 0
LayerCount: 2
Back
Fore
SplineSet
282 -337 m 257
 315 -363 352 -387 405 -387 c 256
 496 -387 562 -316 562 -219 c 256
 562 -123 478 -47 375 -47 c 256
 363 -47 353 -58 353 -71 c 256
 353 -86 363 -95 381 -95 c 256
 451 -95 507 -151 507 -219 c 256
 507 -291 465 -339 405 -339 c 256
 369 -339 342 -323 312 -297 c 257
 333 -268 345 -234 345 -199 c 256
 345 -122 281 -50 145 -50 c 256
 93 -50 56 -84 56 -128 c 256
 56 -173 91 -206 139 -206 c 256
 186 -206 222 -173 222 -128 c 256
 222 -119 220 -111 217 -103 c 257
 269 -123 290 -161 290 -199 c 256
 290 -221 283 -242 270 -261 c 257
 240 -243 205 -229 159 -229 c 256
 105 -229 64 -262 64 -308 c 256
 64 -355 104 -387 162 -387 c 256
 208 -387 251 -368 282 -337 c 257
  PathStart: -2
119 -308 m 256
 119 -289 135 -277 159 -277 c 256
 190 -277 215 -290 240 -306 c 257
 219 -327 191 -339 162 -339 c 256
 134 -339 119 -329 119 -308 c 256
  PathStart: -2
111 -128 m 256
 111 -112 124 -98 139 -98 c 256
 153 -98 167 -111 167 -128 c 256
 167 -145 153 -158 139 -158 c 256
 124 -158 111 -144 111 -128 c 256
  PathStart: -2
EndSplineSet
Refer: 763 -1 N 0.79 0 0 0.69 228 -372 2
PickledDataWithLists: "(dp1
S'com.schriftgestaltung.Glyphs.ColorIndex'
p2
I6
sS'public.markColor'
p3
S'0,0.67,0.91,1'
p4
s."
Ligature2: "NTR-'blwf' Below Base Forms in Telugu lookup 2 subtable" Kha Halanth
EndChar

StartChar: KshNnaAI
Encoding: 272 8204 272
GlifName: K_shN_naA_I_
Width: 238
VWidth: 0
Flags: W
LayerCount: 2
Back
Fore
SplineSet
178 638 m 258
 178 11 l 258
 178 -6 191 -19 208 -19 c 256
 225 -19 238 -6 238 11 c 258
 238 638 l 258
 238 655 225 668 208 668 c 256
 191 668 178 655 178 638 c 258
  PathStart: -2
EndSplineSet
PickledDataWithLists: "(dp1
S'com.schriftgestaltung.Glyphs.ColorIndex'
p2
I1
sS'public.markColor'
p3
S'0.99,0.62,0.11,1'
p4
s."
EndChar

StartChar: Ksha.base
Encoding: 274 -1 274
GlifName: K_sha.base
Width: 488
VWidth: 0
Flags: W
LayerCount: 2
Back
Fore
SplineSet
240 -135 m 257
 271 -174 313 -224 405 -224 c 256
 491 -224 551 -136 559 -46 c 257
 511 -5 l 257
 511 -124 464 -169 405 -169 c 256
 307 -169 282 -66 241 -66 c 256
 200 -66 150 -215 65 -215 c 256
 11 -215 -21 -179 -21 -122 c 256
 -21 -68 -5 -33 -5 -14 c 256
 -5 9 -13 21 -34 21 c 256
 -72 21 -81 -61 -81 -122 c 256
 -81 -209 -22 -270 65 -270 c 256
 134 -270 197 -218 240 -135 c 257
  PathStart: -2
558 -344 m 256
 558 -330 550 -319 550 -277 c 256
 550 -245 572 -63 572 10 c 256
 572 61 565 114 529 114 c 256
 512 114 500 100 500 84 c 256
 500 69 511 40 511 -5 c 256
 511 -58 489 -205 489 -294 c 256
 489 -336 495 -381 527 -381 c 256
 549 -381 558 -367 558 -344 c 256
  PathStart: -2
457 144 m 256
 457 223 388 241 311 241 c 256
 248 241 180 229 138 229 c 256
 120 229 99 232 99 260 c 256
 99 312 180 368 264 368 c 256
 279 368 291 380 291 396 c 256
 291 411 279 423 264 423 c 256
 184 423 39 361 39 260 c 256
 39 187 93 172 159 172 c 256
 217 172 283 183 331 183 c 256
 369 183 397 176 397 144 c 256
 397 89 321 46 223 46 c 256
 117 46 95 82 60 82 c 256
 43 82 30 67 30 51 c 256
 30 11 150 -9 223 -9 c 256
 356 -9 457 55 457 144 c 256
  PathStart: -2
EndSplineSet
PickledDataWithLists: "(dp1
S'com.schriftgestaltung.Glyphs.ColorIndex'
p2
I6
sS'public.markColor'
p3
S'0,0.67,0.91,1'
p4
s."
EndChar

StartChar: Ksha.base.001
Encoding: 275 -1 275
GlifName: K_sha.base.001
Width: 488
VWidth: 0
Flags: W
LayerCount: 2
Back
Fore
SplineSet
240 -135 m 257
 271 -174 313 -224 405 -224 c 256
 491 -224 551 -136 559 -46 c 257
 511 -5 l 257
 511 -124 464 -169 405 -169 c 256
 307 -169 282 -66 241 -66 c 256
 200 -66 150 -215 65 -215 c 256
 11 -215 -21 -179 -21 -122 c 256
 -21 -68 -5 -33 -5 -14 c 256
 -5 9 -13 21 -34 21 c 256
 -72 21 -81 -61 -81 -122 c 256
 -81 -209 -22 -270 65 -270 c 256
 134 -270 197 -218 240 -135 c 257
  PathStart: -2
558 -344 m 256
 558 -330 550 -319 550 -277 c 256
 550 -245 572 -63 572 10 c 256
 572 61 565 114 529 114 c 256
 512 114 500 100 500 84 c 256
 500 69 511 40 511 -5 c 256
 511 -58 489 -205 489 -294 c 256
 489 -336 495 -381 527 -381 c 256
 549 -381 558 -367 558 -344 c 256
  PathStart: -2
EndSplineSet
PickledDataWithLists: "(dp1
S'com.schriftgestaltung.Glyphs.ColorIndex'
p2
I6
sS'public.markColor'
p3
S'0,0.67,0.91,1'
p4
s."
EndChar

StartChar: KshaO
Encoding: 284 -1 284
GlifName: K_shaO_
Width: 744
VWidth: 0
Flags: W
AnchorPoint: "Anchor-0" 0 0 basechar 0
LayerCount: 2
Back
Fore
SplineSet
230 368 m 257
 276 423 l 257
 178 423 l 257
 178 368 l 257
 230 368 l 257
EndSplineSet
Refer: 245 -1 N 1 0 0 1 0 0 2
Refer: 392 3146 N 1 0 0 1 179 0 2
Refer: 275 -1 N 1 0 0 1 0 0 2
PickledDataWithLists: "(dp1
S'com.schriftgestaltung.Glyphs.ColorIndex'
p2
I6
sS'public.markColor'
p3
S'0,0.67,0.91,1'
p4
s."
Ligature2: "NTR-'akhn' Akhand in Telugu lookup 1 subtable" Ka OMatra SSa Halanth
EndChar

StartChar: KshaOO
Encoding: 285 -1 285
GlifName: K_shaO_O_
Width: 724
VWidth: 0
Flags: W
AnchorPoint: "Anchor-0" 0 0 basechar 0
LayerCount: 2
Back
Fore
SplineSet
230 368 m 257
 276 423 l 257
 178 423 l 257
 178 368 l 257
 230 368 l 257
EndSplineSet
Refer: 245 -1 N 1 0 0 1 0 0 2
Refer: 394 3147 N 1 0 0 1 179 0 2
Refer: 275 -1 N 1 0 0 1 0 0 2
PickledDataWithLists: "(dp1
S'com.schriftgestaltung.Glyphs.ColorIndex'
p2
I6
sS'public.markColor'
p3
S'0,0.67,0.91,1'
p4
s."
Ligature2: "NTR-'akhn' Akhand in Telugu lookup 1 subtable" Ka OOMatra SSa Halanth
EndChar

StartChar: KshaOttu
Encoding: 286 -1 286
GlifName: K_shaO_ttu
Width: 30
VWidth: 0
Flags: W
AnchorPoint: "Anchor-0" -45 40 mark 0
LayerCount: 2
Back
Fore
SplineSet
179 -241 m 256
 165 -241 154 -252 154 -264 c 256
 154 -291 237 -306 283 -306 c 256
 373 -306 440 -267 440 -215 c 256
 440 -171 406 -149 340 -149 c 256
 303 -149 264 -157 239 -157 c 256
 217 -157 211 -150 211 -140 c 256
 211 -109 298 -75 380 -75 c 256
 393 -75 405 -65 405 -53 c 256
 405 -42 393 -33 380 -33 c 256
 316 -33 160 -70 160 -150 c 256
 160 -184 190 -201 222 -201 c 256
 265 -201 315 -192 353 -192 c 256
 376 -192 389 -199 389 -215 c 256
 389 -243 342 -264 283 -264 c 256
 219 -264 205 -241 179 -241 c 256
  PathStart: -2
484 -230 m 256
 470 -230 460 -240 460 -253 c 256
 460 -263 467 -281 467 -310 c 256
 467 -375 445 -413 406 -413 c 256
 336 -413 322 -347 301 -347 c 256
 277 -347 247 -442 188 -442 c 256
 158 -442 140 -422 140 -387 c 256
 140 -352 150 -330 150 -317 c 256
 150 -301 141 -291 125 -291 c 256
 100 -291 89 -322 89 -387 c 256
 89 -445 129 -485 188 -485 c 256
 231 -485 271 -457 302 -404 c 257
 320 -427 349 -455 406 -455 c 256
 427 -455 447 -444 462 -428 c 257
 458 -454 453 -477 453 -496 c 256
 453 -517 461 -530 479 -530 c 256
 499 -530 505 -517 505 -486 c 256
 505 -466 518 -348 518 -300 c 256
 518 -252 508 -230 484 -230 c 256
  PathStart: -2
EndSplineSet
PickledDataWithLists: "(dp1
S'com.schriftgestaltung.Glyphs.ColorIndex'
p2
I6
sS'public.markColor'
p3
S'0,0.67,0.91,1'
p4
s."
Ligature2: "NTR-'blwf' Below Base Forms in Telugu lookup 2 subtable" Ksha Halanth
Ligature2: "NTR-'akhn' Akhand in Telugu lookup 1 subtable" Ka Halanth SSa Halanth
EndChar

StartChar: L
Encoding: 289 76 289
GlifName: L_
Width: 432
VWidth: 0
Flags: W
LayerCount: 2
Back
Fore
SplineSet
386 0 m 258
 405 0 421 15 421 34 c 256
 421 53 405 68 386 68 c 258
 141 68 l 257
 141 493 l 258
 141 512 125 527 107 527 c 256
 88 527 73 512 73 493 c 258
 73 47 l 258
 73 21 94 0 120 0 c 258
 386 0 l 258
EndSplineSet
PickledDataWithLists: "(dp1
S'com.schriftgestaltung.Glyphs.ColorIndex'
p2
I9
sS'public.markColor'
p3
S'0.98,0.36,0.67,1'
p4
s."
EndChar

StartChar: LLa.base
Encoding: 291 -1 291
GlifName: L_L_a.base
Width: 630
VWidth: 0
Flags: W
LayerCount: 2
Back
Fore
SplineSet
493 91 m 256
 493 165 374 197 266 227 c 256
 177 251 96 274 96 316 c 256
 96 345 117 360 147 360 c 256
 178 360 196 341 196 319 c 256
 196 298 166 271 130 263 c 257
 140 223 l 257
 218 241 256 276 256 324 c 256
 256 378 213 410 147 410 c 256
 81 410 36 375 36 316 c 256
 36 245 103 223 229 180 c 256
 328 146 433 131 433 91 c 256
 433 64 399 46 336 46 c 256
 280 46 245 68 245 98 c 256
 245 173 581 178 581 319 c 256
 581 393 522 423 366 423 c 257
 349 423 338 411 338 396 c 256
 338 380 350 368 366 368 c 256
 483 368 521 348 521 319 c 256
 521 223 185 216 185 98 c 256
 185 34 247 -9 336 -9 c 256
 432 -9 493 28 493 91 c 256
  PathStart: -2
EndSplineSet
PickledDataWithLists: "(dp1
S'com.schriftgestaltung.Glyphs.ColorIndex'
p2
I6
sS'public.markColor'
p3
S'0,0.67,0.91,1'
p4
s."
EndChar

StartChar: LLaI
Encoding: 297 -1 297
GlifName: L_L_aI_
Width: 630
VWidth: 0
Flags: W
AnchorPoint: "Anchor-0" 0 0 basechar 0
LayerCount: 2
Back
Fore
SplineSet
493 91 m 256
 493 165 374 197 266 227 c 256
 177 251 96 274 96 316 c 256
 96 345 117 360 147 360 c 256
 178 360 196 341 196 319 c 256
 196 298 166 271 130 263 c 257
 140 223 l 257
 218 241 256 276 256 324 c 256
 256 378 213 410 147 410 c 256
 81 410 36 375 36 316 c 256
 36 245 103 223 229 180 c 256
 328 146 433 131 433 91 c 256
 433 64 399 46 336 46 c 256
 280 46 245 68 245 98 c 256
 245 189 581 195 581 369 c 257
 581 453 514 503 360 503 c 257
 360 458 l 257
 483 458 521 418 521 369 c 256
 521 230 185 241 185 98 c 256
 185 34 247 -9 336 -9 c 256
 432 -9 493 28 493 91 c 256
  PathStart: -2
459 408 m 256
 459 463 417 503 360 503 c 256
 302 503 260 463 260 408 c 256
 260 353 302 313 360 313 c 256
 417 313 459 353 459 408 c 256
  PathStart: -2
319 411 m 256
 319 437 339 455 360 455 c 256
 381 455 399 437 399 411 c 256
 399 386 381 368 360 368 c 257
 339 368 319 386 319 411 c 256
  PathStart: -2
EndSplineSet
PickledDataWithLists: "(dp1
S'com.schriftgestaltung.Glyphs.ColorIndex'
p2
I6
sS'public.markColor'
p3
S'0,0.67,0.91,1'
p4
s."
Ligature2: "NTR-'abvs' Above Base Substitutions in Telugu lookup 10 subtable" LLa Imatra
EndChar

StartChar: LLaOttu
Encoding: 301 -1 301
GlifName: L_L_aO_ttu
Width: 224
VWidth: 0
Flags: W
LayerCount: 2
Back
Fore
SplineSet
138 -320 m 256
 138 -209 -181 -216 -181 -140 c 256
 -181 -120 -167 -107 -143 -107 c 256
 -121 -107 -108 -120 -108 -138 c 256
 -108 -155 -134 -176 -161 -181 c 257
 -152 -217 l 257
 -86 -203 -53 -174 -53 -134 c 256
 -53 -90 -87 -63 -143 -63 c 256
 -199 -63 -236 -93 -236 -140 c 256
 -236 -259 83 -262 83 -320 c 256
 83 -341 56 -354 8 -354 c 256
 -33 -354 -62 -338 -62 -314 c 256
 -62 -256 208 -251 208 -86 c 256
 208 -52 195 -16 171 15 c 256
 163 26 152 31 143 31 c 256
 128 31 117 19 117 5 c 256
 117 -3 120 -10 125 -16 c 256
 144 -39 153 -63 153 -86 c 256
 153 -213 -117 -219 -117 -314 c 256
 -117 -367 -65 -402 8 -402 c 256
 88 -402 138 -370 138 -320 c 256
  PathStart: -2
EndSplineSet
PickledDataWithLists: "(dp1
S'com.schriftgestaltung.Glyphs.ColorIndex'
p2
I6
sS'public.markColor'
p3
S'0,0.67,0.91,1'
p4
s."
Ligature2: "NTR-'blwf' Below Base Forms in Telugu lookup 2 subtable" LLa Halanth
EndChar

StartChar: LLaU
Encoding: 302 -1 302
GlifName: L_L_aU_
Width: 933
VWidth: 0
Flags: W
AnchorPoint: "Anchor-3" 0 0 basechar 0
AnchorPoint: "Anchor-0" 0 0 basechar 0
LayerCount: 2
Back
Fore
SplineSet
890 164 m 256
 890 287 770 385 714 418 c 256
 709 421 703 423 697 423 c 256
 681 423 667 410 667 393 c 256
 667 382 673 373 682 367 c 256
 784 299 830 230 830 164 c 256
 830 92 760 46 656 46 c 256
 573 46 507 76 485 119 c 257
 445 104 l 257
 468 36 538 -9 656 -9 c 256
 800 -9 890 60 890 164 c 256
  PathStart: -2
EndSplineSet
Refer: 318 -1 N 1 0 0 1 0 0 2
PickledDataWithLists: "(dp1
S'com.schriftgestaltung.Glyphs.ColorIndex'
p2
I6
sS'public.markColor'
p3
S'0,0.67,0.91,1'
p4
s."
Ligature2: "NTR-'psts' Post Base Substitutions in Telugu lookup 17 subtable" LLa UMatra
EndChar

StartChar: LLaUU
Encoding: 303 -1 303
GlifName: L_L_aU_U_
Width: 1101
VWidth: 0
Flags: W
AnchorPoint: "Anchor-3" 0 0 basechar 0
AnchorPoint: "Anchor-0" 0 0 basechar 0
LayerCount: 2
Back
Fore
SplineSet
889 115 m 256
 889 184 819 231 766 266 c 256
 702 310 687 325 687 340 c 256
 687 375 735 400 822 400 c 256
 941 400 1018 357 1018 296 c 256
 1018 263 998 242 971 242 c 256
 948 242 934 258 934 285 c 256
 934 302 921 315 904 315 c 256
 887 315 874 302 874 285 c 256
 874 232 915 192 971 192 c 256
 1032 192 1078 237 1078 296 c 256
 1078 391 976 450 822 450 c 256
 699 450 627 411 627 340 c 256
 627 286 685 248 732 216 c 256
 806 167 829 143 829 115 c 256
 829 75 775 46 687 46 c 256
 589 46 511 76 485 119 c 257
 445 104 l 257
 470 36 552 -9 687 -9 c 257
 807 -9 889 43 889 115 c 256
  PathStart: -2
EndSplineSet
Refer: 318 -1 N 1 0 0 1 0 0 2
PickledDataWithLists: "(dp1
S'com.schriftgestaltung.Glyphs.ColorIndex'
p2
I6
sS'public.markColor'
p3
S'0,0.67,0.91,1'
p4
s."
Ligature2: "NTR-'psts' Post Base Substitutions in Telugu lookup 17 subtable" LLa UUMatra
EndChar

StartChar: LLu
Encoding: 304 3169 304
GlifName: L_L_u
Width: 1218
VWidth: 0
Flags: W
LayerCount: 2
Back
Fore
SplineSet
658 -176 m 257
 523 -176 439 -127 439 -53 c 256
 439 66 686 149 686 343 c 256
 686 459 602 541 485 541 c 256
 408 541 351 501 314 420 c 257
 278 472 222 508 173 508 c 256
 90 508 32 454 32 378 c 256
 32 286 122 217 153 217 c 256
 166 217 183 229 183 248 c 256
 183 280 92 294 92 378 c 256
 92 424 123 453 173 453 c 256
 263 453 274 346 318 346 c 256
 368 346 356 486 485 486 c 256
 569 486 626 428 626 343 c 256
 626 172 379 104 379 -53 c 256
 379 -162 490 -231 658 -231 c 257
 658 -176 l 257
936 -34 m 257
 936 93 854 155 854 258 c 257
 854 330 899 368 980 368 c 257
 980 418 l 257
 866 418 794 357 794 258 c 257
 794 134 876 71 876 -34 c 257
 876 -169 700 -176 658 -176 c 257
 658 -231 l 257
 702 -231 936 -222 936 -34 c 257
  PathStart: -2
1186 264 m 256
 1186 359 1105 418 980 418 c 257
 980 368 l 257
 1070 368 1126 325 1126 264 c 256
 1126 231 1106 210 1079 210 c 256
 1056 210 1042 226 1042 253 c 256
 1042 270 1029 283 1012 283 c 256
 995 283 982 270 982 253 c 256
 982 200 1023 160 1079 160 c 256
 1140 160 1186 205 1186 264 c 256
  PathStart: -2
EndSplineSet
PickledDataWithLists: "(dp1
S'com.schriftgestaltung.Glyphs.ColorIndex'
p2
I6
sS'public.markColor'
p3
S'0,0.67,0.91,1'
p4
s."
EndChar

StartChar: La
Encoding: 305 3122 305
GlifName: L_a
Width: 615
VWidth: 0
Flags: W
AnchorPoint: "Anchor-0" 0 0 basechar 0
LayerCount: 2
Back
Fore
SplineSet
589 196 m 256
 589 294 517 367 418 419 c 256
 414 421 409 423 403 423 c 256
 386 423 373 410 373 393 c 256
 373 382 378 373 389 367 c 256
 471 325 529 270 529 196 c 256
 529 100 441 51 307 51 c 256
 191 51 99 123 99 212 c 256
 99 225 100 238 102 250 c 257
 124 224 154 207 186 207 c 256
 247 207 293 250 293 309 c 256
 293 363 245 405 185 405 c 256
 102 405 39 320 39 212 c 256
 39 88 159 -9 307 -9 c 256
 473 -9 589 64 589 196 c 256
  PathStart: -2
122 298 m 257
 136 330 163 345 185 345 c 256
 213 345 233 329 233 309 c 256
 233 284 215 267 186 267 c 256
 162 267 132 278 122 298 c 257
  PathStart: -2
EndSplineSet
PickledDataWithLists: "(dp1
S'com.schriftgestaltung.Glyphs.ColorIndex'
p2
I6
sS'public.markColor'
p3
S'0,0.67,0.91,1'
p4
s."
EndChar

StartChar: LaI
Encoding: 311 -1 311
GlifName: L_aI_
Width: 568
VWidth: 0
Flags: W
AnchorPoint: "Anchor-0" 0 0 basechar 0
LayerCount: 2
Back
Fore
SplineSet
538 244 m 257
 538 401 412 508 202 508 c 256
 186 508 174 496 174 481 c 256
 174 468 186 458 202 458 c 256
 380 458 478 370 478 244 c 256
 478 137 386 46 250 46 c 256
 148 46 85 80 85 147 c 256
 85 193 107 223 140 223 c 256
 163 223 178 206 178 182 c 256
 178 157 158 144 134 144 c 256
 116 144 94 152 78 169 c 257
 64 140 l 257
 86 109 115 95 142 95 c 256
 196 95 238 131 238 182 c 256
 238 234 196 273 140 273 c 256
 76 273 30 221 30 147 c 256
 30 46 119 -9 250 -9 c 256
 419 -9 538 107 538 244 c 257
  PathStart: -2
301 413 m 256
 301 468 259 508 202 508 c 256
 144 508 102 468 102 413 c 256
 102 358 144 318 202 318 c 256
 259 318 301 358 301 413 c 256
  PathStart: -2
162 413 m 256
 162 434 181 453 202 453 c 256
 223 453 241 434 241 413 c 256
 241 392 223 373 202 373 c 257
 181 373 162 392 162 413 c 256
  PathStart: -2
EndSplineSet
PickledDataWithLists: "(dp1
S'com.schriftgestaltung.Glyphs.ColorIndex'
p2
I6
sS'public.markColor'
p3
S'0,0.67,0.91,1'
p4
s."
Ligature2: "NTR-'abvs' Above Base Substitutions in Telugu lookup 10 subtable" La Imatra
EndChar

StartChar: LaOttu
Encoding: 315 -1 315
GlifName: L_aO_ttu
Width: 30
VWidth: 0
Flags: W
AnchorPoint: "Anchor-0" 15 60 mark 0
LayerCount: 2
Back
Fore
SplineSet
647 -188 m 256
 647 -100 585 -40 494 -40 c 256
 429 -40 393 -74 359 -142 c 257
 328 -91 288 -59 223 -59 c 256
 148 -59 94 -115 94 -194 c 256
 94 -262 155 -323 224 -323 c 256
 238 -323 249 -312 249 -298 c 256
 249 -284 238 -273 224 -273 c 256
 185 -273 149 -235 149 -194 c 256
 149 -143 178 -109 223 -109 c 256
 273 -109 299 -128 320 -161 c 256
 331 -178 342 -188 359 -188 c 256
 377 -188 390 -177 400 -159 c 256
 425 -111 447 -90 494 -90 c 256
 555 -90 592 -128 592 -188 c 256
 592 -248 550 -298 504 -298 c 256
 490 -298 479 -309 479 -323 c 256
 479 -337 490 -348 504 -348 c 256
 582 -348 647 -275 647 -188 c 256
  PathStart: -2
EndSplineSet
PickledDataWithLists: "(dp1
S'com.schriftgestaltung.Glyphs.ColorIndex'
p2
I6
sS'public.markColor'
p3
S'0,0.67,0.91,1'
p4
s."
Ligature2: "NTR-'blwf' Below Base Forms in Telugu lookup 2 subtable" La Halanth
EndChar

StartChar: Lla
Encoding: 318 -1 318
GlifName: L_la
Width: 630
VWidth: 0
Flags: W
AnchorPoint: "Anchor-0" 0 0 basechar 0
LayerCount: 2
Back
Fore
SplineSet
493 91 m 256
 493 165 374 197 266 227 c 256
 177 251 96 274 96 316 c 256
 96 345 117 360 147 360 c 256
 178 360 196 341 196 319 c 256
 196 298 166 271 130 263 c 257
 140 223 l 257
 218 241 256 276 256 324 c 256
 256 378 213 410 147 410 c 256
 81 410 36 375 36 316 c 256
 36 245 103 223 229 180 c 256
 328 146 433 131 433 91 c 256
 433 64 399 46 336 46 c 256
 280 46 245 68 245 98 c 256
 245 173 581 178 581 319 c 256
 581 393 508 423 316 423 c 257
 299 423 288 411 288 396 c 256
 288 380 300 368 316 368 c 256
 470 368 521 348 521 319 c 256
 521 223 185 216 185 98 c 256
 185 34 247 -9 336 -9 c 256
 432 -9 493 28 493 91 c 256
  PathStart: -2
346 398 m 256
 346 419 368 447 445 519 c 256
 507 577 583 647 605 728 c 256
 606 731 606 734 606 737 c 256
 606 754 593 767 576 767 c 256
 562 767 551 757 547 744 c 256
 530 680 466 621 404 563 c 256
 315 479 286 442 286 398 c 256
 286 381 299 368 316 368 c 256
 333 368 346 381 346 398 c 256
  PathStart: -2
EndSplineSet
PickledDataWithLists: "(dp1
S'com.schriftgestaltung.Glyphs.ColorIndex'
p2
I6
sS'public.markColor'
p3
S'0,0.67,0.91,1'
p4
s."
EndChar

StartChar: LowItvam
Encoding: 319 -1 319
GlifName: L_owI_tvam
Width: 0
VWidth: 0
Flags: W
LayerCount: 2
Back
Fore
SplineSet
121 -425 m 258
 96 -425 76 -445 76 -470 c 256
 76 -495 96 -515 121 -515 c 258
 523 -515 l 258
 548 -515 568 -495 568 -470 c 256
 568 -445 548 -425 523 -425 c 258
 121 -425 l 258
EndSplineSet
PickledDataWithLists: "(dp1
S'com.schriftgestaltung.Glyphs.ColorIndex'
p2
I6
sS'public.markColor'
p3
S'0,0.67,0.91,1'
p4
s."
Substitution2: "NTR-Single Substitution lookup 28 subtable" tvam
EndChar

StartChar: Lu
Encoding: 320 3084 320
GlifName: L_u
Width: 1069
VWidth: 0
Flags: W
LayerCount: 2
Back
Fore
SplineSet
1046 85 m 256
 1046 274 800 389 800 492 c 256
 800 509 787 522 770 522 c 256
 753 522 740 509 740 492 c 256
 740 348 986 241 986 85 c 256
 986 -64 847 -176 658 -176 c 256
 523 -176 439 -127 439 -53 c 256
 439 66 686 149 686 343 c 256
 686 459 602 541 485 541 c 256
 408 541 351 501 314 420 c 257
 278 472 222 508 173 508 c 256
 90 508 32 454 32 378 c 256
 32 286 122 217 153 217 c 256
 166 217 183 229 183 248 c 256
 183 280 92 294 92 378 c 256
 92 424 123 453 173 453 c 256
 263 453 274 346 318 346 c 256
 368 346 356 486 485 486 c 256
 569 486 626 428 626 343 c 256
 626 172 379 104 379 -53 c 256
 379 -162 490 -231 658 -231 c 256
 879 -231 1046 -96 1046 85 c 256
  PathStart: -2
EndSplineSet
PickledDataWithLists: "(dp1
S'com.schriftgestaltung.Glyphs.ColorIndex'
p2
I6
sS'public.markColor'
p3
S'0,0.67,0.91,1'
p4
s."
EndChar

StartChar: M
Encoding: 321 77 321
GlifName: M_
Width: 725
VWidth: 0
Flags: W
LayerCount: 2
Back
Fore
SplineSet
141 30 m 258
 141 456 l 257
 314 28 l 258
 323 9 341 -4 362 -4 c 256
 384 -4 402 9 410 28 c 258
 584 456 l 257
 584 30 l 258
 584 11 599 -4 618 -4 c 256
 637 -4 652 11 652 30 c 258
 652 478 l 258
 652 505 630 527 603 527 c 258
 578 527 l 258
 558 527 541 514 533 496 c 257
 362 71 l 257
 192 496 l 257
 184 514 167 527 146 527 c 258
 122 527 l 258
 95 527 73 505 73 478 c 258
 73 30 l 258
 73 11 88 -4 107 -4 c 256
 125 -4 141 11 141 30 c 258
  PathStart: -2
EndSplineSet
PickledDataWithLists: "(dp1
S'com.schriftgestaltung.Glyphs.ColorIndex'
p2
I9
sS'public.markColor'
p3
S'0.98,0.36,0.67,1'
p4
s."
EndChar

StartChar: MaOttu
Encoding: 332 -1 332
GlifName: M_aO_ttu
Width: 193
VWidth: 0
Flags: W
LayerCount: 2
Back
Fore
SplineSet
-314 -299 m 256
 -314 -294 -321 -269 -321 -246 c 256
 -321 -155 -215 -80 -59 -80 c 256
 73 -80 133 -104 133 -152 c 256
 133 -177 117 -188 100 -188 c 256
 79 -188 55 -169 55 -133 c 256
 55 -76 115 7 115 165 c 256
 115 184 104 198 88 198 c 256
 72 198 60 185 60 168 c 256
 60 21 0 -63 0 -133 c 256
 0 -202 52 -238 102 -238 c 256
 146 -238 187 -209 187 -150 c 256
 187 -68 102 -30 -59 -30 c 256
 -246 -30 -376 -127 -376 -245 c 256
 -376 -275 -369 -323 -340 -323 c 256
 -329 -323 -314 -315 -314 -299 c 256
  PathStart: -2
EndSplineSet
PickledDataWithLists: "(dp1
S'com.schriftgestaltung.Glyphs.ColorIndex'
p2
I6
sS'public.markColor'
p3
S'0,0.67,0.91,1'
p4
s."
Ligature2: "NTR-'blwf' Below Base Forms in Telugu lookup 2 subtable" Ma Halanth
EndChar

StartChar: Multiply
Encoding: 335 -1 335
GlifName: M_ultiply
Width: 31
VWidth: 0
Flags: W
AnchorPoint: "Anchor-0" -117 36 mark 0
LayerCount: 2
Back
Fore
SplineSet
472 -538 m 256
 472 -463 406 -409 318 -409 c 256
 232 -409 173 -459 173 -534 c 256
 173 -609 238 -664 326 -664 c 256
 412 -664 472 -613 472 -538 c 256
  PathStart: -2
220 -534 m 256
 220 -483 256 -452 318 -452 c 256
 382 -452 425 -487 425 -538 c 256
 425 -589 388 -621 326 -621 c 256
 262 -621 220 -585 220 -534 c 256
  PathStart: -2
364 -535 m 256
 364 -514 346 -496 324 -496 c 256
 302 -496 284 -513 284 -535 c 256
 284 -557 302 -575 324 -575 c 256
 345 -575 364 -557 364 -535 c 256
  PathStart: -2
EndSplineSet
Refer: 483 -1 N 1 0 0 1 0 0 2
PickledDataWithLists: "(dp1
S'com.schriftgestaltung.Glyphs.ColorIndex'
p2
I6
sS'public.markColor'
p3
S'0,0.67,0.91,1'
p4
s."
Ligature2: "NTR-'blws' Below Base Substitutions in Telugu lookup 3 subtable" SSaOttu TTHaOttu
EndChar

StartChar: N
Encoding: 336 78 336
GlifName: N_
Width: 602
VWidth: 0
Flags: W
LayerCount: 2
Back
Fore
SplineSet
141 30 m 258
 141 436 l 257
 431 17 l 258
 441 3 455 -4 471 -4 c 258
 480 -4 l 258
 507 -4 530 18 530 45 c 258
 530 493 l 258
 530 512 514 527 495 527 c 256
 476 527 461 512 461 493 c 258
 461 88 l 257
 173 505 l 257
 161 520 147 527 131 527 c 258
 122 527 l 258
 95 527 73 505 73 478 c 258
 73 30 l 258
 73 11 88 -4 107 -4 c 256
 125 -4 141 11 141 30 c 258
  PathStart: -2
EndSplineSet
PickledDataWithLists: "(dp1
S'com.schriftgestaltung.Glyphs.ColorIndex'
p2
I9
sS'public.markColor'
p3
S'0.98,0.36,0.67,1'
p4
s."
EndChar

StartChar: NNaOttu
Encoding: 356 -1 356
GlifName: N_N_aO_ttu
Width: 30
VWidth: 0
Flags: W
AnchorPoint: "Anchor-0" -35 25 mark 0
LayerCount: 2
Back
Fore
SplineSet
254 -364 m 256
 254 -351 242 -340 228 -340 c 256
 177 -340 134 -319 134 -296 c 256
 134 -262 204 -247 204 -215 c 256
 204 -184 112 -184 112 -131 c 256
 112 -105 134 -90 170 -90 c 256
 245 -90 255 -153 290 -153 c 256
 325 -153 326 -86 410 -86 c 256
 473 -86 524 -143 524 -216 c 256
 524 -288 479 -340 418 -340 c 256
 373 -340 344 -313 344 -274 c 256
 344 -245 359 -227 383 -227 c 256
 403 -227 417 -239 417 -255 c 256
 417 -269 428 -279 442 -279 c 256
 456 -279 468 -269 468 -255 c 256
 468 -214 431 -183 383 -183 c 256
 328 -183 289 -221 289 -274 c 256
 289 -341 343 -388 418 -388 c 256
 510 -388 579 -313 579 -216 c 256
 579 -118 504 -38 410 -38 c 256
 359 -38 318 -56 289 -94 c 257
 260 -61 215 -42 170 -42 c 256
 103 -42 57 -78 57 -131 c 256
 57 -169 86 -201 140 -220 c 257
 100 -241 79 -268 79 -296 c 256
 79 -349 142 -388 228 -388 c 256
 242 -388 254 -377 254 -364 c 256
  PathStart: -2
EndSplineSet
PickledDataWithLists: "(dp1
S'com.schriftgestaltung.Glyphs.ColorIndex'
p2
I6
sS'public.markColor'
p3
S'0,0.67,0.91,1'
p4
s."
Ligature2: "NTR-'blwf' Below Base Forms in Telugu lookup 2 subtable" uni0C23 Halanth
EndChar

StartChar: Na
Encoding: 360 3112 360
GlifName: N_a
Width: 595
VWidth: 0
Flags: W
AnchorPoint: "Anchor-0" 0 0 basechar 0
LayerCount: 2
Back
Fore
SplineSet
128 -148 m 256
 128 -142 127 -137 124 -132 c 257
 110 -107 96 -50 96 -21 c 256
 96 45 118 71 147 71 c 256
 197 71 252 -8 371 -8 c 256
 487 -8 568 74 568 189 c 256
 568 337 433 423 204 423 c 256
 188 423 176 411 176 396 c 256
 176 380 188 368 204 368 c 256
 401 368 508 303 508 189 c 256
 508 104 453 47 371 47 c 256
 280 47 227 126 147 126 c 256
 80 126 36 75 36 -21 c 256
 36 -60 53 -130 72 -162 c 256
 78 -172 87 -177 97 -177 c 256
 114 -177 128 -165 128 -148 c 256
  PathStart: -2
234 398 m 256
 234 419 256 447 333 519 c 256
 395 577 471 647 493 728 c 256
 494 731 494 734 494 737 c 257
 494 754 481 767 464 767 c 256
 450 767 439 757 435 744 c 256
 418 680 354 621 292 563 c 256
 203 479 174 442 174 398 c 256
 174 381 187 368 204 368 c 256
 221 368 234 381 234 398 c 256
  PathStart: -2
EndSplineSet
PickledDataWithLists: "(dp1
S'com.schriftgestaltung.Glyphs.ColorIndex'
p2
I6
sS'public.markColor'
p3
S'0,0.67,0.91,1'
p4
s."
EndChar

StartChar: Na.base
Encoding: 361 -1 361
GlifName: N_a.base
Width: 595
VWidth: 0
Flags: W
LayerCount: 2
Back
Fore
SplineSet
128 -148 m 256
 128 -142 127 -137 124 -132 c 257
 110 -107 96 -50 96 -21 c 256
 96 45 118 71 147 71 c 256
 197 71 252 -8 371 -8 c 256
 487 -8 568 74 568 189 c 256
 568 337 433 423 204 423 c 256
 188 423 176 411 176 396 c 256
 176 380 188 368 204 368 c 256
 401 368 508 303 508 189 c 256
 508 104 453 47 371 47 c 256
 280 47 227 126 147 126 c 256
 80 126 36 75 36 -21 c 256
 36 -60 53 -130 72 -162 c 256
 78 -172 87 -177 97 -177 c 256
 114 -177 128 -165 128 -148 c 256
  PathStart: -2
EndSplineSet
PickledDataWithLists: "(dp1
S'com.schriftgestaltung.Glyphs.ColorIndex'
p2
I6
sS'public.markColor'
p3
S'0,0.67,0.91,1'
p4
s."
EndChar

StartChar: NaOttu
Encoding: 371 -1 371
GlifName: N_aO_ttu
Width: 247
VWidth: 0
Flags: W
LayerCount: 2
Back
Fore
SplineSet
286 -246 m 256
 286 -241 285 -235 282 -230 c 256
 229 -128 84 -52 -67 -52 c 256
 -189 -52 -246 -111 -246 -165 c 256
 -246 -214 -202 -259 -120 -259 c 256
 46 -259 196 -112 196 48 c 256
 196 112 161 179 112 217 c 256
 106 222 99 224 93 224 c 256
 80 224 69 215 69 200 c 256
 69 169 141 146 141 49 c 256
 141 -83 17 -209 -120 -209 c 256
 -166 -209 -191 -188 -191 -164 c 256
 -191 -135 -152 -102 -67 -102 c 256
 65 -102 191 -169 233 -254 c 256
 240 -266 250 -272 261 -272 c 256
 274 -272 286 -262 286 -246 c 256
  PathStart: -2
EndSplineSet
PickledDataWithLists: "(dp1
S'com.schriftgestaltung.Glyphs.ColorIndex'
p2
I6
sS'public.markColor'
p3
S'0,0.67,0.91,1'
p4
s."
Ligature2: "NTR-'blwf' Below Base Forms in Telugu lookup 2 subtable" Na Halanth
EndChar

StartChar: NgaOttu
Encoding: 375 -1 375
GlifName: N_gaO_ttu
Width: 30
VWidth: 0
Flags: W
AnchorPoint: "Anchor-0" -20 10 mark 0
LayerCount: 2
Back
Fore
SplineSet
591 -262 m 256
 591 -213 554 -152 528 -152 c 256
 514 -152 501 -165 501 -178 c 256
 501 -197 536 -218 536 -262 c 256
 536 -305 510 -330 464 -330 c 256
 383 -330 379 -222 334 -222 c 256
 293 -222 268 -323 249 -323 c 256
 238 -323 234 -305 234 -281 c 256
 234 -243 257 -178 270 -131 c 257
 339 -141 418 -142 476 -142 c 256
 491 -142 504 -131 504 -116 c 256
 504 -101 491 -90 476 -90 c 256
 450 -90 419 -90 388 -89 c 257
 388 0 l 258
 388 13 376 24 362 24 c 256
 348 24 337 14 337 0 c 258
 337 -86 l 257
 316 -85 296 -83 276 -80 c 257
 272 -51 252 -32 222 -32 c 256
 151 -32 71 -93 71 -146 c 256
 71 -184 101 -211 144 -211 c 256
 159 -211 172 -199 172 -185 c 256
 172 -170 159 -159 144 -159 c 256
 131 -159 126 -155 126 -146 c 256
 126 -119 176 -80 214 -80 c 256
 220 -80 222 -86 222 -90 c 256
 222 -118 179 -222 179 -281 c 256
 179 -343 208 -375 249 -375 c 256
 293 -375 317 -320 334 -281 c 257
 355 -321 379 -382 464 -382 c 256
 540 -382 591 -334 591 -262 c 256
  PathStart: -2
EndSplineSet
PickledDataWithLists: "(dp1
S'com.schriftgestaltung.Glyphs.ColorIndex'
p2
I6
sS'public.markColor'
p3
S'0,0.67,0.91,1'
p4
s."
Ligature2: "NTR-'blwf' Below Base Forms in Telugu lookup 2 subtable" uni0C19 Halanth
EndChar

StartChar: Ntilde
Encoding: 376 209 376
GlifName: N_tilde
Width: 602
VWidth: 0
Flags: W
LayerCount: 2
Back
Fore
SplineSet
141 30 m 258
 141 436 l 257
 431 17 l 258
 441 3 455 -4 471 -4 c 258
 480 -4 l 258
 507 -4 530 18 530 45 c 258
 530 493 l 258
 530 512 514 527 495 527 c 256
 476 527 461 512 461 493 c 258
 461 88 l 257
 173 505 l 257
 161 520 147 527 131 527 c 258
 122 527 l 258
 95 527 73 505 73 478 c 258
 73 30 l 258
 73 11 88 -4 107 -4 c 256
 125 -4 141 11 141 30 c 258
  PathStart: -2
218 571 m 257
 225 587 236 595 249 595 c 256
 266 595 281 588 315 572 c 256
 332 563 348 559 363 559 c 256
 398 559 426 595 426 630 c 257
 425 641 419 647 409 647 c 256
 401 647 394 641 389 629 c 256
 386 619 379 611 361 611 c 256
 343 611 324 620 306 629 c 257
 287 637 269 646 247 646 c 256
 228 646 212 638 201 621 c 257
 190 607 184 589 184 577 c 256
 184 564 192 557 201 557 c 256
 210 557 216 562 218 571 c 257
  PathStart: -2
EndSplineSet
PickledDataWithLists: "(dp1
S'com.schriftgestaltung.Glyphs.ColorIndex'
p2
I9
sS'public.markColor'
p3
S'0.98,0.36,0.67,1'
p4
s."
EndChar

StartChar: Nukta
Encoding: 377 2364 377
GlifName: N_ukta
Width: 627
VWidth: 0
Flags: W
LayerCount: 2
Back
Fore
SplineSet
627 989 m 256
 627 1054 575 1106 510 1106 c 256
 445 1106 393 1054 393 989 c 256
 393 924 445 872 510 872 c 256
 575 872 627 924 627 989 c 256
  PathStart: -2
510 922 m 257
 392 922 142 953 30 953 c 256
 13 953 0 940 0 923 c 256
 0 906 13 893 30 893 c 256
 140 893 390 872 510 872 c 257
 510 922 l 257
448 989 m 256
 448 1023 476 1051 510 1051 c 256
 544 1051 572 1023 572 989 c 256
 572 955 544 927 510 927 c 256
 476 927 448 955 448 989 c 256
  PathStart: -2
EndSplineSet
PickledDataWithLists: "(dp1
S'com.schriftgestaltung.Glyphs.ColorIndex'
p2
I6
sS'public.markColor'
p3
S'0,0.67,0.91,1'
p4
s."
EndChar

StartChar: Nya
Encoding: 378 3102 378
GlifName: N_ya
Width: 1077
VWidth: 0
Flags: W
AnchorPoint: "Anchor-0" 0 0 basechar 0
LayerCount: 2
Back
Fore
SplineSet
716 9 m 256
 636 157 484 246 311 246 c 256
 168 246 72 192 72 112 c 256
 72 41 158 -5 291 -5 c 256
 497 -5 686 132 686 281 c 256
 686 401 612 473 487 473 c 256
 420 473 358 439 316 379 c 257
 281 421 232 445 182 445 c 256
 96 445 32 394 32 324 c 256
 32 284 55 247 91 228 c 256
 114 217 134 227 134 248 c 256
 134 262 136 259 106 291 c 256
 97 299 92 311 92 324 c 256
 92 359 130 385 182 385 c 256
 213 385 245 369 269 341 c 256
 285 322 297 315 317 315 c 256
 337 315 350 323 364 343 c 256
 395 388 439 413 487 413 c 256
 574 413 626 363 626 281 c 256
 626 166 461 55 291 55 c 256
 204 55 132 81 132 112 c 256
 132 153 211 186 311 186 c 256
 461 186 590 111 662 -17 c 256
 675 -41 689 -48 707 -40 c 256
 725 -32 728 -14 716 9 c 256
  PathStart: -2
860 88 m 257
 860 118 860 160 862 204 c 257
 1027 204 l 258
 1044 204 1057 217 1057 234 c 256
 1057 251 1044 264 1027 264 c 258
 865 264 l 257
 866 291 877 382 877 393 c 256
 877 410 864 423 847 423 c 256
 832 423 820 412 817 398 c 256
 812 365 808 316 805 264 c 257
 653 264 l 258
 636 264 623 251 623 234 c 256
 623 217 636 204 653 204 c 258
 802 204 l 257
 800 159 800 117 800 88 c 256
 800 71 814 58 830 58 c 256
 847 58 860 71 860 88 c 257
  PathStart: -2
EndSplineSet
PickledDataWithLists: "(dp1
S'com.schriftgestaltung.Glyphs.ColorIndex'
p2
I6
sS'public.markColor'
p3
S'0,0.67,0.91,1'
p4
s."
EndChar

StartChar: NyaOttu
Encoding: 388 -1 388
GlifName: N_yaO_ttu
Width: 30
VWidth: 0
Flags: W
AnchorPoint: "Anchor-0" -40 25 mark 0
LayerCount: 2
Back
Fore
SplineSet
507 -377 m 256
 507 -372 506 -367 504 -362 c 256
 464 -265 369 -201 261 -201 c 256
 162 -201 98 -235 98 -293 c 256
 98 -353 151 -385 244 -385 c 256
 388 -385 491 -298 491 -176 c 256
 491 -95 436 -34 359 -34 c 256
 316 -34 282 -56 257 -96 c 257
 235 -69 203 -53 169 -53 c 256
 112 -53 77 -94 77 -143 c 256
 77 -150 77 -157 79 -165 c 256
 82 -180 94 -189 105 -189 c 256
 109 -189 112 -188 115 -186 c 256
 125 -181 129 -173 129 -162 c 256
 129 -159 129 -155 128 -152 c 256
 127 -148 127 -144 127 -140 c 256
 127 -116 142 -98 169 -98 c 256
 187 -98 206 -106 219 -121 c 256
 233 -136 242 -152 258 -152 c 256
 276 -152 286 -134 300 -113 c 256
 315 -90 335 -79 359 -79 c 256
 408 -79 441 -119 441 -176 c 256
 441 -272 361 -340 244 -340 c 256
 177 -340 148 -322 148 -293 c 256
 148 -267 192 -246 261 -246 c 256
 349 -246 425 -298 458 -380 c 256
 463 -393 473 -401 484 -401 c 256
 498 -401 507 -390 507 -377 c 256
  PathStart: -2
601 -296 m 256
 601 -284 591 -274 579 -274 c 256
 566 -274 556 -284 556 -296 c 256
 556 -309 566 -319 579 -319 c 256
 591 -319 601 -309 601 -296 c 256
  PathStart: -2
684 -235 m 257
 684 -190 l 257
 474 -190 l 257
 474 -235 l 257
 684 -235 l 257
601 -296 m 257
 602 -126 l 257
 556 -126 l 257
 556 -296 l 257
 601 -296 l 257
602 -126 m 256
 602 -113 592 -103 579 -103 c 256
 566 -103 556 -113 556 -126 c 256
 556 -139 566 -149 579 -149 c 256
 592 -149 602 -139 602 -126 c 256
  PathStart: -2
707 -213 m 256
 707 -200 697 -190 684 -190 c 256
 671 -190 661 -200 661 -213 c 256
 661 -225 671 -235 684 -235 c 256
 697 -235 707 -225 707 -213 c 256
  PathStart: -2
EndSplineSet
PickledDataWithLists: "(dp1
S'com.schriftgestaltung.Glyphs.ColorIndex'
p2
I6
sS'public.markColor'
p3
S'0,0.67,0.91,1'
p4
s."
Ligature2: "NTR-'blwf' Below Base Forms in Telugu lookup 2 subtable" Nya Halanth
EndChar

StartChar: O
Encoding: 391 79 391
GlifName: O_
Width: 608
VWidth: 0
Flags: W
LayerCount: 2
Back
Fore
SplineSet
568 262 m 257
 564 421 463 531 305 531 c 256
 146 531 44 420 41 262 c 257
 44 104 146 -8 305 -8 c 256
 463 -8 564 103 568 262 c 257
  PathStart: -2
110 262 m 256
 110 381 182 467 305 467 c 256
 427 467 500 381 500 262 c 256
 500 143 427 56 305 56 c 256
 182 56 110 143 110 262 c 256
  PathStart: -2
EndSplineSet
PickledDataWithLists: "(dp1
S'com.schriftgestaltung.Glyphs.ColorIndex'
p2
I9
sS'public.markColor'
p3
S'0.98,0.36,0.67,1'
p4
s."
EndChar

StartChar: OMatra
Encoding: 392 3146 392
GlifName: O_M_atra
Width: 578
VWidth: 0
Flags: W
LayerCount: 2
Back
Fore
SplineSet
29 395 m 256
 29 410 16 423 -1 423 c 256
 -36 423 -61 444 -61 471 c 256
 -61 509 -22 537 39 537 c 256
 96 537 145 510 167 473 c 256
 177 456 186 444 203 444 c 256
 220 444 228 458 239 478 c 256
 258 512 299 542 349 550 c 257
 329 531 322 508 322 487 c 256
 322 424 370 380 436 380 c 256
 503 380 547 426 547 494 c 256
 547 566 480 614 384 614 c 256
 308 614 241 582 203 531 c 257
 157 572 105 597 39 597 c 256
 -55 597 -121 546 -121 471 c 256
 -121 413 -68 368 -1 368 c 256
 16 368 29 380 29 395 c 256
  PathStart: -2
382 487 m 256
 382 508 390 536 411 552 c 257
 459 546 487 521 487 489 c 256
 487 454 469 435 436 435 c 256
 402 435 382 455 382 487 c 256
  PathStart: -2
EndSplineSet
PickledDataWithLists: "(dp1
S'com.schriftgestaltung.Glyphs.ColorIndex'
p2
I6
sS'public.markColor'
p3
S'0,0.67,0.91,1'
p4
s."
EndChar

StartChar: OOMatra
Encoding: 394 3147 394
GlifName: O_O_M_atra
Width: 545
VWidth: 0
Flags: W
LayerCount: 2
Back
Fore
SplineSet
29 395 m 256
 29 410 16 423 -1 423 c 256
 -36 423 -61 444 -61 471 c 256
 -61 509 -26 537 29 537 c 256
 90 537 145 511 167 473 c 256
 177 456 186 444 203 444 c 256
 220 444 228 458 239 478 c 256
 262 520 318 552 383 552 c 256
 437 552 467 530 467 489 c 256
 467 454 446 435 416 435 c 256
 385 435 367 465 367 487 c 256
 367 572 405 611 481 715 c 256
 489 726 495 738 495 748 c 256
 495 762 483 771 469 771 c 256
 458 771 446 766 435 754 c 256
 358 670 307 588 307 487 c 256
 307 424 353 380 416 380 c 256
 482 380 527 426 527 494 c 256
 527 566 467 614 384 614 c 256
 308 614 241 582 203 531 c 257
 154 572 99 597 29 597 c 256
 -60 597 -121 546 -121 471 c 256
 -121 413 -68 368 -1 368 c 256
 16 368 29 380 29 395 c 256
  PathStart: -2
EndSplineSet
PickledDataWithLists: "(dp1
S'com.schriftgestaltung.Glyphs.ColorIndex'
p2
I6
sS'public.markColor'
p3
S'0,0.67,0.91,1'
p4
s."
EndChar

StartChar: Oacute
Encoding: 395 211 395
GlifName: O_acute
Width: 608
VWidth: 0
Flags: W
LayerCount: 2
Back
Fore
SplineSet
568 262 m 257
 564 421 463 531 305 531 c 256
 146 531 44 420 41 262 c 257
 44 104 146 -8 305 -8 c 256
 463 -8 564 103 568 262 c 257
  PathStart: -2
110 262 m 256
 110 381 182 467 305 467 c 256
 427 467 500 381 500 262 c 256
 500 143 427 56 305 56 c 256
 182 56 110 143 110 262 c 256
  PathStart: -2
308 563 m 258
 360 624 l 257
 365 629 368 636 368 643 c 256
 368 662 358 671 338 671 c 256
 328 671 320 666 315 656 c 258
 277 589 l 257
 273 585 272 580 272 572 c 256
 272 563 280 554 293 554 c 256
 299 554 304 557 308 563 c 258
  PathStart: -2
EndSplineSet
PickledDataWithLists: "(dp1
S'com.schriftgestaltung.Glyphs.ColorIndex'
p2
I9
sS'public.markColor'
p3
S'0.98,0.36,0.67,1'
p4
s."
EndChar

StartChar: Ocircumflex
Encoding: 396 212 396
GlifName: O_circumflex
Width: 608
VWidth: 0
Flags: W
LayerCount: 2
Back
Fore
SplineSet
568 262 m 257
 564 421 463 531 305 531 c 256
 146 531 44 420 41 262 c 257
 44 104 146 -8 305 -8 c 256
 463 -8 564 103 568 262 c 257
  PathStart: -2
110 262 m 256
 110 381 182 467 305 467 c 256
 427 467 500 381 500 262 c 256
 500 143 427 56 305 56 c 256
 182 56 110 143 110 262 c 256
  PathStart: -2
239 559 m 257
 305 614 l 257
 370 559 l 257
 374 555 378 554 384 554 c 256
 396 554 406 564 406 576 c 256
 406 581 404 587 400 590 c 258
 349 643 l 258
 339 653 329 658 319 658 c 258
 290 658 l 258
 281 658 270 653 260 643 c 258
 209 590 l 258
 206 587 203 583 203 580 c 256
 203 577 203 574 203 572 c 256
 203 566 213 554 225 554 c 256
 231 554 236 555 239 559 c 257
  PathStart: -2
EndSplineSet
PickledDataWithLists: "(dp1
S'com.schriftgestaltung.Glyphs.ColorIndex'
p2
I9
sS'public.markColor'
p3
S'0.98,0.36,0.67,1'
p4
s."
EndChar

StartChar: Odieresis
Encoding: 397 214 397
GlifName: O_dieresis
Width: 608
VWidth: 0
Flags: W
LayerCount: 2
Back
Fore
SplineSet
568 262 m 257
 564 421 463 531 305 531 c 256
 146 531 44 420 41 262 c 257
 44 104 146 -8 305 -8 c 256
 463 -8 564 103 568 262 c 257
  PathStart: -2
110 262 m 256
 110 381 182 467 305 467 c 256
 427 467 500 381 500 262 c 256
 500 143 427 56 305 56 c 256
 182 56 110 143 110 262 c 256
  PathStart: -2
280 599 m 256
 280 620 263 637 242 637 c 256
 221 637 203 620 203 599 c 256
 203 578 221 560 242 560 c 256
 263 560 280 578 280 599 c 256
  PathStart: -2
407 599 m 256
 407 620 389 637 368 637 c 256
 347 637 330 620 330 599 c 256
 330 578 347 560 368 560 c 256
 389 560 407 578 407 599 c 256
  PathStart: -2
EndSplineSet
PickledDataWithLists: "(dp1
S'com.schriftgestaltung.Glyphs.ColorIndex'
p2
I9
sS'public.markColor'
p3
S'0.98,0.36,0.67,1'
p4
s."
EndChar

StartChar: Ograve
Encoding: 398 210 398
GlifName: O_grave
Width: 608
VWidth: 0
Flags: W
LayerCount: 2
Back
Fore
SplineSet
568 262 m 257
 564 421 463 531 305 531 c 256
 146 531 44 420 41 262 c 257
 44 104 146 -8 305 -8 c 256
 463 -8 564 103 568 262 c 257
  PathStart: -2
110 262 m 256
 110 381 182 467 305 467 c 256
 427 467 500 381 500 262 c 256
 500 143 427 56 305 56 c 256
 182 56 110 143 110 262 c 256
  PathStart: -2
338 575 m 256
 338 581 336 585 332 589 c 257
 294 656 l 258
 289 666 281 671 272 671 c 256
 251 671 242 662 242 643 c 256
 242 636 244 629 249 624 c 257
 301 563 l 258
 305 557 311 554 317 554 c 256
 329 554 338 563 338 575 c 256
  PathStart: -2
EndSplineSet
PickledDataWithLists: "(dp1
S'com.schriftgestaltung.Glyphs.ColorIndex'
p2
I9
sS'public.markColor'
p3
S'0.98,0.36,0.67,1'
p4
s."
EndChar

StartChar: Omega
Encoding: 399 8486 399
GlifName: O_mega
Width: 593
VWidth: 0
Flags: W
LayerCount: 2
Back
Fore
SplineSet
209 0 m 258
 227 0 244 15 244 38 c 256
 244 49 238 58 227 65 c 256
 164 101 113 161 113 269 c 256
 113 377 186 463 296 463 c 256
 407 463 479 377 479 269 c 256
 479 215 466 169 440 131 c 256
 416 98 389 78 366 65 c 256
 355 58 349 47 349 32 c 256
 349 17 365 0 384 0 c 258
 523 0 l 258
 540 0 552 12 552 29 c 256
 552 47 540 59 523 59 c 258
 447 59 l 257
 509 110 541 183 541 277 c 256
 541 338 518 401 476 450 c 256
 434 498 373 531 296 531 c 256
 220 531 158 498 116 450 c 256
 74 401 52 338 52 277 c 256
 52 183 83 110 146 59 c 257
 70 59 l 258
 53 59 41 47 41 29 c 256
 41 12 53 0 70 0 c 258
 209 0 l 258
EndSplineSet
PickledDataWithLists: "(dp1
S'com.schriftgestaltung.Glyphs.ColorIndex'
p2
I9
sS'public.markColor'
p3
S'0.98,0.36,0.67,1'
p4
s."
EndChar

StartChar: Oslash
Encoding: 400 216 400
GlifName: O_slash
Width: 608
VWidth: 0
Flags: W
LayerCount: 2
Back
Fore
SplineSet
134 -15 m 258
 164 28 l 257
 204 5 251 -8 305 -8 c 256
 463 -8 564 103 568 262 c 257
 566 351 533 425 476 473 c 257
 506 515 l 258
 509 519 510 524 510 528 c 256
 510 537 503 545 491 545 c 256
 484 545 479 543 476 538 c 258
 446 494 l 257
 404 519 357 531 305 531 c 256
 146 531 44 420 41 262 c 257
 44 170 74 98 134 50 c 257
 104 8 l 258
 101 4 100 -1 100 -5 c 256
 100 -14 107 -23 120 -23 c 256
 126 -23 131 -20 134 -15 c 258
  PathStart: -2
110 262 m 256
 110 321 127 370 161 408 c 256
 194 445 241 467 311 467 c 256
 345 467 377 458 407 441 c 257
 172 104 l 257
 131 143 110 195 110 262 c 256
  PathStart: -2
202 82 m 257
 438 419 l 257
 479 380 500 327 500 262 c 256
 500 203 482 154 449 116 c 256
 416 79 368 56 299 56 c 256
 263 56 231 65 202 82 c 257
  PathStart: -2
EndSplineSet
PickledDataWithLists: "(dp1
S'com.schriftgestaltung.Glyphs.ColorIndex'
p2
I9
sS'public.markColor'
p3
S'0.98,0.36,0.67,1'
p4
s."
EndChar

StartChar: Oslashacute
Encoding: 401 510 401
GlifName: O_slashacute
Width: 608
VWidth: 0
Flags: W
LayerCount: 2
Back
Fore
SplineSet
134 -15 m 258
 164 28 l 257
 204 5 251 -8 305 -8 c 256
 463 -8 564 103 568 262 c 257
 566 351 533 425 476 473 c 257
 506 515 l 258
 509 519 510 524 510 528 c 256
 510 537 503 545 491 545 c 256
 484 545 479 543 476 538 c 258
 446 494 l 257
 404 519 357 531 305 531 c 256
 146 531 44 420 41 262 c 257
 44 170 74 98 134 50 c 257
 104 8 l 258
 101 4 100 -1 100 -5 c 256
 100 -14 107 -23 120 -23 c 256
 126 -23 131 -20 134 -15 c 258
  PathStart: -2
110 262 m 256
 110 321 127 370 161 408 c 256
 194 445 241 467 311 467 c 256
 345 467 377 458 407 441 c 257
 172 104 l 257
 131 143 110 195 110 262 c 256
  PathStart: -2
202 82 m 257
 438 419 l 257
 479 380 500 327 500 262 c 256
 500 203 482 154 449 116 c 256
 416 79 368 56 299 56 c 256
 263 56 231 65 202 82 c 257
  PathStart: -2
308 563 m 258
 360 624 l 257
 365 629 368 636 368 643 c 256
 368 662 358 671 338 671 c 256
 328 671 320 666 315 656 c 258
 277 589 l 257
 273 585 272 580 272 572 c 256
 272 563 280 554 293 554 c 256
 299 554 304 557 308 563 c 258
  PathStart: -2
EndSplineSet
PickledDataWithLists: "(dp1
S'com.schriftgestaltung.Glyphs.ColorIndex'
p2
I9
sS'public.markColor'
p3
S'0.98,0.36,0.67,1'
p4
s."
EndChar

StartChar: Otilde
Encoding: 402 213 402
GlifName: O_tilde
Width: 608
VWidth: 0
Flags: W
LayerCount: 2
Back
Fore
SplineSet
568 262 m 257
 564 421 463 531 305 531 c 256
 146 531 44 420 41 262 c 257
 44 104 146 -8 305 -8 c 256
 463 -8 564 103 568 262 c 257
  PathStart: -2
110 262 m 256
 110 381 182 467 305 467 c 256
 427 467 500 381 500 262 c 256
 500 143 427 56 305 56 c 256
 182 56 110 143 110 262 c 256
  PathStart: -2
218 571 m 257
 225 587 236 595 249 595 c 256
 266 595 281 588 315 572 c 256
 332 563 348 559 363 559 c 256
 398 559 426 595 426 630 c 257
 425 641 419 647 409 647 c 256
 401 647 394 641 389 629 c 256
 386 619 379 611 361 611 c 256
 343 611 324 620 306 629 c 257
 287 637 269 646 247 646 c 256
 228 646 212 638 201 621 c 257
 190 607 184 589 184 577 c 256
 184 564 192 557 201 557 c 256
 210 557 216 562 218 571 c 257
  PathStart: -2
EndSplineSet
PickledDataWithLists: "(dp1
S'com.schriftgestaltung.Glyphs.ColorIndex'
p2
I9
sS'public.markColor'
p3
S'0.98,0.36,0.67,1'
p4
s."
EndChar

StartChar: P
Encoding: 403 80 403
GlifName: P_
Width: 502
VWidth: 0
Flags: W
LayerCount: 2
Back
Fore
SplineSet
141 30 m 258
 141 191 l 257
 278 191 l 258
 416 191 478 265 478 357 c 256
 478 449 416 524 278 524 c 258
 107 524 l 258
 88 524 73 508 73 489 c 258
 73 30 l 258
 73 11 88 -4 107 -4 c 256
 125 -4 141 11 141 30 c 258
  PathStart: -2
141 459 m 257
 271 459 l 258
 327 459 410 450 410 357 c 256
 410 299 374 255 271 255 c 258
 141 255 l 257
 141 459 l 257
EndSplineSet
PickledDataWithLists: "(dp1
S'com.schriftgestaltung.Glyphs.ColorIndex'
p2
I9
sS'public.markColor'
p3
S'0.98,0.36,0.67,1'
p4
s."
EndChar

StartChar: Pa
Encoding: 404 3114 404
GlifName: P_a
Width: 613
VWidth: 0
Flags: W
AnchorPoint: "Anchor-0" 0 0 basechar 0
LayerCount: 2
Back
Fore
SplineSet
243 72 m 257
 285 30 340 -9 429 -9 c 256
 530 -9 592 51 592 138 c 256
 592 219 562 271 424 394 c 256
 418 400 411 403 403 403 c 256
 386 403 373 390 373 373 c 256
 373 365 376 358 382 352 c 256
 514 233 532 203 532 138 c 256
 532 82 495 46 429 46 c 256
 302 46 260 203 154 203 c 256
 86 203 35 155 35 89 c 256
 35 33 79 -9 136 -9 c 256
 180 -9 227 21 243 72 c 257
  PathStart: -2
90 89 m 256
 90 124 115 148 154 148 c 256
 172 148 184 140 207 109 c 257
 194 70 167 46 136 46 c 256
 109 46 90 64 90 89 c 256
  PathStart: -2
94 317 m 256
 94 338 116 366 192 438 c 256
 255 496 330 566 353 647 c 256
 354 650 354 653 354 656 c 257
 354 673 341 686 324 686 c 256
 310 686 298 676 295 663 c 256
 277 599 214 540 152 482 c 256
 62 398 34 361 34 317 c 256
 34 300 47 287 64 287 c 256
 81 287 94 300 94 317 c 256
  PathStart: -2
EndSplineSet
PickledDataWithLists: "(dp1
S'com.schriftgestaltung.Glyphs.ColorIndex'
p2
I6
sS'public.markColor'
p3
S'0,0.67,0.91,1'
p4
s."
EndChar

StartChar: Pa.base
Encoding: 405 -1 405
GlifName: P_a.base
Width: 613
VWidth: 0
Flags: W
LayerCount: 2
Back
Fore
SplineSet
243 77 m 257
 285 32 340 -9 429 -9 c 256
 530 -9 592 51 592 138 c 256
 592 226 552 291 414 414 c 256
 408 420 401 423 393 423 c 256
 376 423 363 410 363 393 c 256
 363 385 366 378 372 372 c 256
 504 253 532 209 532 138 c 256
 532 82 495 46 429 46 c 256
 297 46 254 203 144 203 c 256
 82 203 35 155 35 89 c 256
 35 33 79 -9 136 -9 c 256
 180 -9 227 23 243 77 c 257
  PathStart: -2
95 94 m 256
 95 126 114 148 144 148 c 256
 165 148 180 140 207 109 c 257
 194 70 167 46 136 46 c 256
 112 46 95 66 95 94 c 256
  PathStart: -2
EndSplineSet
PickledDataWithLists: "(dp1
S'com.schriftgestaltung.Glyphs.ColorIndex'
p2
I6
sS'public.markColor'
p3
S'0,0.67,0.91,1'
p4
s."
EndChar

StartChar: Pa.base.001
Encoding: 406 -1 406
GlifName: P_a.base.001
Width: 613
VWidth: 0
Flags: W
LayerCount: 2
Back
Fore
SplineSet
243 72 m 257
 285 30 340 -9 429 -9 c 256
 530 -9 592 54 592 148 c 257
 532 148 l 257
 532 88 495 51 429 51 c 256
 302 51 260 203 154 203 c 256
 86 203 35 155 35 89 c 256
 35 33 79 -9 136 -9 c 256
 180 -9 227 21 243 72 c 257
  PathStart: -2
95 89 m 256
 95 121 118 143 154 143 c 256
 172 143 184 136 207 109 c 257
 194 73 167 51 136 51 c 256
 112 51 95 67 95 89 c 256
  PathStart: -2
592 148 m 257
 592 322 448 423 228 423 c 256
 212 423 200 411 200 396 c 256
 200 380 212 368 228 368 c 256
 416 368 532 288 532 148 c 257
 592 148 l 257
EndSplineSet
PickledDataWithLists: "(dp1
S'com.schriftgestaltung.Glyphs.ColorIndex'
p2
I6
sS'public.markColor'
p3
S'0,0.67,0.91,1'
p4
s."
EndChar

StartChar: PaAU
Encoding: 408 -1 408
GlifName: P_aA_U_
Width: 709
VWidth: 0
Flags: W
AnchorPoint: "Anchor-0" 0 0 basechar 0
LayerCount: 2
Back
Fore
SplineSet
232 368 m 257
 232 400 l 257
 133 400 l 257
 133 368 l 257
 232 368 l 257
EndSplineSet
Refer: 406 -1 N 1 0 0 1 0 0 2
Refer: 18 3148 N 1 0 0 1 122 0 2
PickledDataWithLists: "(dp1
S'com.schriftgestaltung.Glyphs.ColorIndex'
p2
I6
sS'public.markColor'
p3
S'0,0.67,0.91,1'
p4
s."
Ligature2: "NTR-'abvs' Above Base Substitutions in Telugu lookup 16 subtable" Pa AuMatra
EndChar

StartChar: PaHalanth
Encoding: 411 -1 411
GlifName: P_aH_alanth
Width: 613
VWidth: 0
Flags: W
AnchorPoint: "Anchor-0" 0 0 basechar 0
LayerCount: 2
Back
Fore
SplineSet
243 72 m 257
 285 30 340 -9 429 -9 c 256
 530 -9 592 59 592 158 c 257
 592 318 452 423 241 423 c 257
 243 368 l 257
 420 368 532 286 532 158 c 256
 532 92 495 51 429 51 c 256
 302 51 260 203 154 203 c 256
 86 203 35 155 35 89 c 256
 35 33 79 -9 136 -9 c 256
 180 -9 227 21 243 72 c 257
  PathStart: -2
95 89 m 256
 95 121 118 143 154 143 c 256
 172 143 184 136 207 109 c 257
 194 73 167 51 136 51 c 256
 112 51 95 67 95 89 c 256
  PathStart: -2
EndSplineSet
Refer: 199 3149 N 1 0 0 1 244 0 2
PickledDataWithLists: "(dp1
S'com.schriftgestaltung.Glyphs.ColorIndex'
p2
I6
sS'public.markColor'
p3
S'0,0.67,0.91,1'
p4
s."
Ligature2: "NTR-'haln' Halant Forms in Telugu lookup 19 subtable" Pa Halanth
EndChar

StartChar: PaOttu
Encoding: 416 -1 416
GlifName: P_aO_ttu
Width: 247
VWidth: 0
Flags: W
LayerCount: 2
Back
Fore
SplineSet
-23 -212 m 257
 -79 -212 l 257
 -93 -247 -111 -262 -139 -262 c 256
 -156 -262 -170 -248 -170 -229 c 256
 -170 -209 -155 -196 -133 -196 c 256
 -56 -196 -54 -317 74 -317 c 257
 168 -317 237 -244 237 -142 c 256
 237 22 86 110 86 252 c 256
 86 269 73 282 56 282 c 256
 39 282 26 269 26 252 c 256
 26 100 177 11 177 -142 c 256
 177 -214 134 -262 74 -262 c 256
 -4 -262 -28 -140 -134 -140 c 256
 -189 -140 -230 -179 -230 -229 c 256
 -230 -278 -191 -317 -141 -317 c 256
 -88 -317 -45 -279 -23 -212 c 257
  PathStart: -2
EndSplineSet
PickledDataWithLists: "(dp1
S'com.schriftgestaltung.Glyphs.ColorIndex'
p2
I6
sS'public.markColor'
p3
S'0,0.67,0.91,1'
p4
s."
Ligature2: "NTR-'blwf' Below Base Forms in Telugu lookup 2 subtable" Pa Halanth
EndChar

StartChar: PaU
Encoding: 417 -1 417
GlifName: P_aU_
Width: 909
VWidth: 0
Flags: W
AnchorPoint: "Anchor-3" 0 0 basechar 0
AnchorPoint: "Anchor-0" 0 0 basechar 0
LayerCount: 2
Back
Fore
SplineSet
889 86 m 256
 889 299 647 404 647 490 c 257
 587 490 l 257
 587 364 829 271 829 86 c 256
 829 -62 709 -175 545 -175 c 256
 322 -175 277 3 277 97 c 257
 222 97 l 257
 222 -3 277 -230 545 -230 c 256
 741 -230 889 -93 889 86 c 256
  PathStart: -2
647 490 m 256
 647 507 634 520 617 520 c 256
 600 520 587 507 587 490 c 256
 587 473 600 460 617 460 c 256
 634 460 647 473 647 490 c 256
  PathStart: -2
EndSplineSet
Refer: 404 3114 N 1 0 0 1 0 0 2
PickledDataWithLists: "(dp1
S'com.schriftgestaltung.Glyphs.ColorIndex'
p2
I6
sS'public.markColor'
p3
S'0,0.67,0.91,1'
p4
s."
Ligature2: "NTR-'psts' Post Base Substitutions in Telugu lookup 17 subtable" Pa UMatra
EndChar

StartChar: PaUU
Encoding: 418 -1 418
GlifName: P_aU_U_
Width: 1091
VWidth: 0
Flags: W
AnchorPoint: "Anchor-3" 0 0 basechar 0
AnchorPoint: "Anchor-0" 0 0 basechar 0
LayerCount: 2
Back
Fore
SplineSet
809 6 m 256
 809 133 735 194 735 278 c 256
 735 348 771 379 850 379 c 256
 943 379 1011 333 1011 268 c 256
 1011 235 989 213 956 213 c 256
 926 213 906 231 906 258 c 257
 846 258 l 257
 846 201 893 158 956 158 c 256
 1022 158 1071 204 1071 268 c 256
 1071 365 976 434 850 434 c 256
 739 434 675 378 675 278 c 256
 675 181 749 119 749 6 c 256
 749 -98 654 -175 525 -175 c 256
 318 -175 277 3 277 97 c 257
 222 97 l 257
 222 -3 273 -230 525 -230 c 256
 686 -230 809 -129 809 6 c 256
  PathStart: -2
906 258 m 256
 906 275 893 288 876 288 c 256
 859 288 846 275 846 258 c 256
 846 241 859 228 876 228 c 256
 893 228 906 241 906 258 c 256
  PathStart: -2
EndSplineSet
Refer: 404 3114 N 1 0 0 1 0 0 2
PickledDataWithLists: "(dp1
S'com.schriftgestaltung.Glyphs.ColorIndex'
p2
I6
sS'public.markColor'
p3
S'0,0.67,0.91,1'
p4
s."
Ligature2: "NTR-'psts' Post Base Substitutions in Telugu lookup 17 subtable" Pa UUMatra
EndChar

StartChar: Pha
Encoding: 419 3115 419
GlifName: P_ha
Width: 613
VWidth: 0
Flags: W
AnchorPoint: "Anchor-0" 0 0 basechar 0
LayerCount: 2
Back
Fore
SplineSet
94 317 m 256
 94 338 116 366 192 438 c 256
 255 496 330 566 353 647 c 256
 354 650 354 653 354 656 c 257
 354 673 341 686 324 686 c 256
 310 686 298 676 295 663 c 256
 277 599 214 540 152 482 c 256
 62 398 34 361 34 317 c 256
 34 300 47 287 64 287 c 256
 81 287 94 300 94 317 c 256
  PathStart: -2
EndSplineSet
Refer: 420 -1 N 1 0 0 1 0 0 2
PickledDataWithLists: "(dp1
S'com.schriftgestaltung.Glyphs.ColorIndex'
p2
I6
sS'public.markColor'
p3
S'0,0.67,0.91,1'
p4
s."
EndChar

StartChar: Pha.base
Encoding: 420 -1 420
GlifName: P_ha.base
Width: 613
VWidth: 0
Flags: W
LayerCount: 2
Back
Fore
SplineSet
243 72 m 257
 285 30 340 -9 429 -9 c 256
 530 -9 592 51 592 138 c 256
 592 219 562 271 424 394 c 256
 418 400 411 403 403 403 c 256
 386 403 373 390 373 373 c 256
 373 365 376 358 382 352 c 256
 514 233 532 203 532 138 c 256
 532 82 495 46 429 46 c 256
 302 46 260 203 154 203 c 256
 86 203 35 155 35 89 c 256
 35 33 79 -9 136 -9 c 256
 180 -9 227 21 243 72 c 257
  PathStart: -2
90 89 m 256
 90 124 115 148 154 148 c 256
 172 148 184 140 207 109 c 257
 194 70 167 46 136 46 c 256
 109 46 90 64 90 89 c 256
  PathStart: -2
EndSplineSet
Refer: 763 -1 N 1 0 0 1 180 0 2
PickledDataWithLists: "(dp1
S'com.schriftgestaltung.Glyphs.ColorIndex'
p2
I6
sS'public.markColor'
p3
S'0,0.67,0.91,1'
p4
s."
EndChar

StartChar: PhaAU
Encoding: 422 -1 422
GlifName: P_haA_U_
Width: 709
VWidth: 0
Flags: W
AnchorPoint: "Anchor-0" 0 0 basechar 0
LayerCount: 2
Back
Fore
SplineSet
232 368 m 257
 232 400 l 257
 133 400 l 257
 133 368 l 257
 232 368 l 257
EndSplineSet
Refer: 406 -1 N 1 0 0 1 0 0 2
Refer: 18 3148 N 1 0 0 1 122 0 2
Refer: 763 -1 N 1 0 0 1 180 0 2
PickledDataWithLists: "(dp1
S'com.schriftgestaltung.Glyphs.ColorIndex'
p2
I6
sS'public.markColor'
p3
S'0,0.67,0.91,1'
p4
s."
Ligature2: "NTR-'abvs' Above Base Substitutions in Telugu lookup 16 subtable" Pha AuMatra
EndChar

StartChar: PhaU
Encoding: 431 -1 431
GlifName: P_haU_
Width: 909
VWidth: 0
Flags: W
AnchorPoint: "Anchor-3" 0 0 basechar 0
AnchorPoint: "Anchor-0" 0 0 basechar 0
LayerCount: 2
Back
Fore
SplineSet
889 86 m 256
 889 299 647 404 647 490 c 257
 587 490 l 257
 587 364 829 271 829 86 c 256
 829 -62 709 -175 545 -175 c 256
 322 -175 277 3 277 97 c 257
 222 97 l 257
 222 -3 277 -230 545 -230 c 256
 741 -230 889 -93 889 86 c 256
  PathStart: -2
647 490 m 256
 647 507 634 520 617 520 c 256
 600 520 587 507 587 490 c 256
 587 473 600 460 617 460 c 256
 634 460 647 473 647 490 c 256
  PathStart: -2
EndSplineSet
Refer: 404 3114 N 1 0 0 1 0 0 2
Refer: 763 -1 N 1 0 0 1 80 0 2
PickledDataWithLists: "(dp1
S'com.schriftgestaltung.Glyphs.ColorIndex'
p2
I6
sS'public.markColor'
p3
S'0,0.67,0.91,1'
p4
s."
Ligature2: "NTR-'psts' Post Base Substitutions in Telugu lookup 17 subtable" Pha UMatra
EndChar

StartChar: PhaUU
Encoding: 432 -1 432
GlifName: P_haU_U_
Width: 1091
VWidth: 0
Flags: W
AnchorPoint: "Anchor-3" 0 0 basechar 0
AnchorPoint: "Anchor-0" 0 0 basechar 0
LayerCount: 2
Back
Fore
SplineSet
809 6 m 256
 809 133 735 194 735 278 c 256
 735 348 771 379 850 379 c 256
 943 379 1011 333 1011 268 c 256
 1011 235 989 213 956 213 c 256
 926 213 906 231 906 258 c 257
 846 258 l 257
 846 201 893 158 956 158 c 256
 1022 158 1071 204 1071 268 c 256
 1071 365 976 434 850 434 c 256
 739 434 675 378 675 278 c 256
 675 181 749 119 749 6 c 256
 749 -98 654 -175 525 -175 c 256
 318 -175 277 3 277 97 c 257
 222 97 l 257
 222 -3 273 -230 525 -230 c 256
 686 -230 809 -129 809 6 c 256
  PathStart: -2
906 258 m 256
 906 275 893 288 876 288 c 256
 859 288 846 275 846 258 c 256
 846 241 859 228 876 228 c 256
 893 228 906 241 906 258 c 256
  PathStart: -2
EndSplineSet
Refer: 404 3114 N 1 0 0 1 0 0 2
Refer: 763 -1 N 1 0 0 1 80 0 2
PickledDataWithLists: "(dp1
S'com.schriftgestaltung.Glyphs.ColorIndex'
p2
I6
sS'public.markColor'
p3
S'0,0.67,0.91,1'
p4
s."
Ligature2: "NTR-'psts' Post Base Substitutions in Telugu lookup 17 subtable" Pha UUMatra
EndChar

StartChar: Q
Encoding: 433 81 433
GlifName: Q_
Width: 609
VWidth: 0
Flags: W
LayerCount: 2
Back
Fore
SplineSet
488 -82 m 256
 488 -74 485 -66 479 -60 c 257
 413 13 l 257
 509 53 566 144 568 262 c 257
 564 421 463 531 305 531 c 256
 146 531 44 420 41 262 c 257
 44 104 146 -8 305 -8 c 256
 320 -8 335 -7 350 -5 c 257
 431 -102 l 258
 438 -110 446 -114 455 -114 c 256
 473 -114 488 -100 488 -82 c 256
  PathStart: -2
110 262 m 256
 110 381 182 467 305 467 c 256
 427 467 500 381 500 262 c 256
 500 143 427 56 305 56 c 256
 182 56 110 143 110 262 c 256
  PathStart: -2
EndSplineSet
PickledDataWithLists: "(dp1
S'com.schriftgestaltung.Glyphs.ColorIndex'
p2
I9
sS'public.markColor'
p3
S'0.98,0.36,0.67,1'
p4
s."
EndChar

StartChar: R
Encoding: 434 82 434
GlifName: R_
Width: 534
VWidth: 0
Flags: W
LayerCount: 2
Back
Fore
SplineSet
141 30 m 258
 141 204 l 257
 296 204 l 258
 325 204 347 199 362 188 c 256
 393 165 413 134 413 53 c 258
 413 30 l 258
 413 10 426 -4 446 -4 c 256
 467 -4 481 11 481 30 c 258
 481 65 l 258
 481 131 459 217 387 236 c 257
 453 259 485 314 485 371 c 256
 485 461 419 524 281 524 c 258
 107 524 l 258
 88 524 73 508 73 489 c 258
 73 30 l 258
 73 11 88 -4 107 -4 c 256
 125 -4 141 11 141 30 c 258
  PathStart: -2
141 459 m 257
 273 459 l 258
 377 459 417 426 417 366 c 256
 417 302 361 269 277 269 c 258
 141 269 l 257
 141 459 l 257
EndSplineSet
PickledDataWithLists: "(dp1
S'com.schriftgestaltung.Glyphs.ColorIndex'
p2
I9
sS'public.markColor'
p3
S'0.98,0.36,0.67,1'
p4
s."
EndChar

StartChar: RMatra
Encoding: 435 3139 435
GlifName: R_M_atra
Width: 308
VWidth: 0
Flags: W
LayerCount: 2
Back
Fore
SplineSet
358 -159 m 256
 358 21 93 169 93 332 c 256
 93 350 80 363 63 363 c 256
 46 363 33 350 33 333 c 256
 33 146 298 -6 298 -159 c 256
 298 -262 222 -335 115 -335 c 256
 11 -335 -42 -298 -42 -233 c 256
 -42 -183 0 -145 55 -145 c 256
 87 -145 104 -157 104 -177 c 256
 104 -201 76 -224 43 -224 c 256
 27 -224 15 -236 15 -251 c 256
 15 -267 27 -279 43 -279 c 256
 108 -279 164 -233 164 -177 c 256
 164 -125 119 -90 55 -90 c 256
 -33 -90 -102 -152 -102 -233 c 256
 -102 -331 -20 -390 115 -390 c 256
 255 -390 358 -292 358 -159 c 256
  PathStart: -2
EndSplineSet
PickledDataWithLists: "(dp1
S'com.schriftgestaltung.Glyphs.ColorIndex'
p2
I6
sS'public.markColor'
p3
S'0,0.67,0.91,1'
p4
s."
EndChar

StartChar: RRMatra
Encoding: 436 3140 436
GlifName: R_R_M_atra
Width: 493
VWidth: 0
Flags: W
LayerCount: 2
Back
Fore
SplineSet
358 -159 m 256
 358 21 93 169 93 332 c 256
 93 391 145 433 238 433 c 256
 345 433 414 390 414 329 c 256
 414 296 394 275 367 275 c 256
 344 275 330 291 330 318 c 256
 330 335 317 348 300 348 c 256
 283 348 270 335 270 318 c 256
 270 265 311 225 367 225 c 256
 428 225 474 270 474 329 c 256
 474 424 380 483 238 483 c 256
 109 483 33 429 33 332 c 256
 33 145 298 -6 298 -159 c 256
 298 -262 222 -335 115 -335 c 256
 11 -335 -42 -298 -42 -233 c 256
 -42 -183 0 -145 55 -145 c 256
 87 -145 104 -157 104 -177 c 256
 104 -201 76 -224 43 -224 c 256
 27 -224 15 -236 15 -251 c 256
 15 -267 27 -279 43 -279 c 256
 108 -279 164 -233 164 -177 c 256
 164 -125 119 -90 55 -90 c 256
 -33 -90 -102 -152 -102 -233 c 256
 -102 -331 -20 -390 115 -390 c 256
 255 -390 358 -292 358 -159 c 256
  PathStart: -2
EndSplineSet
PickledDataWithLists: "(dp1
S'com.schriftgestaltung.Glyphs.ColorIndex'
p2
I6
sS'public.markColor'
p3
S'0,0.67,0.91,1'
p4
s."
EndChar

StartChar: RRa
Encoding: 437 3121 437
GlifName: R_R_a
Width: 716
VWidth: 0
Flags: W
AnchorPoint: "Anchor-0" 0 0 basechar 0
LayerCount: 2
Back
Fore
SplineSet
317 74 m 257
 353 9 407 -9 480 -9 c 256
 603 -9 696 91 696 221 c 256
 696 335 611 423 500 423 c 256
 437 423 383 377 383 321 c 256
 383 290 394 261 417 236 c 257
 347 236 l 257
 333 236 322 225 322 211 c 256
 322 197 333 186 347 186 c 257
 496 186 l 258
 514 186 527 194 527 211 c 256
 526 228 516 237 499 244 c 256
 465 259 443 287 443 321 c 256
 443 345 469 368 500 368 c 256
 577 368 636 305 636 221 c 256
 636 120 569 46 480 46 c 256
 428 46 391 60 368 97 c 256
 353 121 339 142 317 142 c 256
 299 142 285 118 273 99 c 256
 251 64 216 46 188 46 c 256
 128 46 90 99 90 189 c 256
 90 285 136 347 206 347 c 256
 235 347 259 328 259 304 c 256
 259 270 240 250 205 250 c 256
 166 250 148 277 135 328 c 257
 95 308 l 257
 107 239 144 195 205 195 c 256
 272 195 319 239 319 304 c 256
 319 359 269 402 206 402 c 256
 101 402 30 314 30 189 c 256
 30 70 92 -9 188 -9 c 256
 235 -9 283 13 317 74 c 257
  PathStart: -2
EndSplineSet
PickledDataWithLists: "(dp1
S'com.schriftgestaltung.Glyphs.ColorIndex'
p2
I6
sS'public.markColor'
p3
S'0,0.67,0.91,1'
p4
s."
EndChar

StartChar: RRaOttu
Encoding: 447 -1 447
GlifName: R_R_aO_ttu
Width: 30
VWidth: 0
Flags: W
AnchorPoint: "Anchor-0" -60 0 mark 0
LayerCount: 2
Back
Fore
SplineSet
291 -291 m 257
 319 -339 364 -353 421 -353 c 256
 521 -353 598 -276 598 -177 c 256
 598 -94 527 -28 437 -28 c 256
 388 -28 345 -64 345 -107 c 256
 345 -128 351 -146 365 -163 c 257
 315 -163 l 258
 302 -163 292 -172 292 -185 c 256
 292 -198 302 -207 315 -207 c 258
 434 -207 l 258
 451 -207 463 -199 463 -185 c 257
 461 -171 454 -163 437 -157 c 257
 414 -147 400 -129 400 -107 c 256
 400 -92 418 -76 437 -76 c 256
 497 -76 543 -120 543 -177 c 256
 543 -251 490 -305 421 -305 c 256
 377 -305 351 -293 334 -265 c 256
 322 -246 310 -228 291 -228 c 256
 274 -228 262 -249 252 -264 c 257
 236 -290 211 -305 187 -305 c 256
 141 -305 113 -267 113 -203 c 256
 113 -185 116 -168 121 -154 c 257
 136 -194 162 -215 201 -215 c 256
 257 -215 296 -179 296 -126 c 256
 296 -81 254 -45 202 -45 c 256
 117 -45 58 -110 58 -203 c 256
 58 -293 109 -353 187 -353 c 256
 230 -353 266 -331 291 -291 c 257
  PathStart: -2
150 -110 m 257
 164 -99 182 -93 202 -93 c 256
 223 -93 241 -107 241 -126 c 256
 241 -152 227 -167 201 -167 c 256
 175 -167 161 -150 150 -110 c 257
  PathStart: -2
EndSplineSet
PickledDataWithLists: "(dp1
S'com.schriftgestaltung.Glyphs.ColorIndex'
p2
I6
sS'public.markColor'
p3
S'0,0.67,0.91,1'
p4
s."
Ligature2: "NTR-'blwf' Below Base Forms in Telugu lookup 2 subtable" RRa Halanth
EndChar

StartChar: Ra
Encoding: 451 3120 451
GlifName: R_a
Width: 596
VWidth: 0
Flags: W
AnchorPoint: "Anchor-0" 0 0 basechar 0
LayerCount: 2
Back
Fore
SplineSet
303 394 m 256
 303 407 290 418 273 418 c 256
 241 418 234 427 234 446 c 256
 234 511 489 586 489 726 c 256
 489 743 476 756 459 756 c 256
 442 756 429 743 429 726 c 256
 429 619 174 565 174 446 c 256
 174 397 211 368 273 368 c 256
 290 368 303 380 303 394 c 256
  PathStart: -2
EndSplineSet
Refer: 452 -1 N 1 0 0 1 0 0 2
PickledDataWithLists: "(dp1
S'com.schriftgestaltung.Glyphs.ColorIndex'
p2
I6
sS'public.markColor'
p3
S'0,0.67,0.91,1'
p4
s."
EndChar

StartChar: Ra.base
Encoding: 452 -1 452
GlifName: R_a.base
Width: 596
VWidth: 0
Flags: W
LayerCount: 2
Back
Fore
SplineSet
576 211 m 256
 576 358 434 423 276 423 c 256
 144 423 30 321 30 186 c 256
 30 74 126 -9 286 -9 c 256
 462 -9 576 90 576 211 c 256
  PathStart: -2
90 186 m 256
 90 281 178 368 276 368 c 256
 418 368 516 302 516 211 c 256
 516 119 421 51 286 51 c 257
 165 51 90 105 90 186 c 256
  PathStart: -2
EndSplineSet
PickledDataWithLists: "(dp1
S'com.schriftgestaltung.Glyphs.ColorIndex'
p2
I6
sS'public.markColor'
p3
S'0,0.67,0.91,1'
p4
s."
EndChar

StartChar: RaI
Encoding: 458 -1 458
GlifName: R_aI_
Width: 598
VWidth: 0
Flags: W
AnchorPoint: "Anchor-0" 0 -9 basechar 0
LayerCount: 2
Back
Fore
SplineSet
578 255 m 256
 578 398 443 476 291 476 c 256
 208 476 131 457 86 423 c 257
 240 424 l 257
 407 424 518 368 518 251 c 256
 518 123 407 46 265 46 c 256
 180 46 90 77 90 153 c 256
 90 182 109 220 153 230 c 257
 96 257 l 257
 54 229 30 193 30 148 c 256
 30 39 139 -9 258 -9 c 256
 435 -9 578 92 578 255 c 256
  PathStart: -2
301 339 m 256
 301 400 243 450 171 450 c 256
 99 450 41 400 41 339 c 256
 41 277 99 227 171 227 c 256
 243 227 301 277 301 339 c 256
  PathStart: -2
101 339 m 256
 101 372 131 400 171 400 c 256
 211 400 241 372 241 339 c 256
 241 305 211 277 171 277 c 257
 131 277 101 305 101 339 c 256
  PathStart: -2
EndSplineSet
PickledDataWithLists: "(dp1
S'com.schriftgestaltung.Glyphs.ColorIndex'
p2
I6
sS'public.markColor'
p3
S'0,0.67,0.91,1'
p4
s."
Ligature2: "NTR-'abvs' Above Base Substitutions in Telugu lookup 10 subtable" Ra Imatra
EndChar

StartChar: RaOttuMiddle
Encoding: 462 -1 462
GlifName: R_aO_ttuM_iddle
Width: 30
VWidth: 0
Flags: W
LayerCount: 2
Back
Fore
SplineSet
526 -72 m 257
 466 -72 l 257
 466 -121 377 -177 274 -177 c 256
 169 -177 82 -121 82 -72 c 257
 22 -72 l 257
 22 -156 145 -232 274 -232 c 256
 402 -232 526 -156 526 -72 c 257
  PathStart: -2
82 -72 m 256
 82 -55 69 -42 52 -42 c 256
 35 -42 22 -55 22 -72 c 256
 22 -89 35 -102 52 -102 c 256
 69 -102 82 -89 82 -72 c 256
  PathStart: -2
526 -72 m 256
 526 -55 513 -42 496 -42 c 256
 479 -42 466 -55 466 -72 c 256
 466 -89 479 -102 496 -102 c 256
 513 -102 526 -89 526 -72 c 256
  PathStart: -2
EndSplineSet
PickledDataWithLists: "(dp1
S'com.schriftgestaltung.Glyphs.ColorIndex'
p2
I6
sS'public.markColor'
p3
S'0,0.67,0.91,1'
p4
s."
EndChar

StartChar: RaOttuMiddle1
Encoding: 463 -1 463
GlifName: R_aO_ttuM_iddle1
Width: 29
VWidth: 0
Flags: W
AnchorPoint: "Anchor-0" -15 45 mark 0
LayerCount: 2
Back
Fore
SplineSet
526 -72 m 257
 466 -72 l 257
 466 -121 377 -177 274 -177 c 256
 169 -177 82 -121 82 -72 c 257
 22 -72 l 257
 22 -156 145 -232 274 -232 c 256
 402 -232 526 -156 526 -72 c 257
  PathStart: -2
82 -72 m 256
 82 -55 69 -42 52 -42 c 256
 35 -42 22 -55 22 -72 c 256
 22 -89 35 -102 52 -102 c 256
 69 -102 82 -89 82 -72 c 256
  PathStart: -2
526 -72 m 256
 526 -55 513 -42 496 -42 c 256
 479 -42 466 -55 466 -72 c 256
 466 -89 479 -102 496 -102 c 256
 513 -102 526 -89 526 -72 c 256
  PathStart: -2
EndSplineSet
PickledDataWithLists: "(dp1
S'com.schriftgestaltung.Glyphs.ColorIndex'
p2
I6
sS'public.markColor'
p3
S'0,0.67,0.91,1'
p4
s."
Substitution2: "NTR-Single Substitution lookup 34 subtable" RaOttuRight
Substitution2: "NTR-Single Substitution lookup 33 subtable" RaOttuWide2
Substitution2: "NTR-Single Substitution lookup 32 subtable" RaOttuWide1
Substitution2: "NTR-Single Substitution lookup 31 subtable" RaOttuRight
Substitution2: "NTR-Single Substitution lookup 30 subtable" RaOttuWide2
Substitution2: "NTR-Single Substitution lookup 29 subtable" RaOttuWide1
Substitution2: "NTR-Single Substitution lookup 27 subtable" RaOttuRight
Ligature2: "NTR-'blwf' Below Base Forms in Telugu lookup 2 subtable" Ra Halanth
EndChar

StartChar: RaOttuRight
Encoding: 464 -1 464
GlifName: R_aO_ttuR_ight
Width: 115
VWidth: 0
Flags: W
LayerCount: 2
Back
Fore
SplineSet
-350 -458 m 256
 -304 -458 -247 -475 -156 -475 c 256
 21 -475 152 -364 152 -212 c 256
 152 -74 64 43 32 43 c 256
 16 43 1 28 1 13 c 256
 1 -12 92 -60 92 -212 c 256
 92 -333 -11 -420 -156 -420 c 256
 -235 -420 -289 -403 -340 -403 c 256
 -432 -403 -480 -461 -480 -488 c 256
 -480 -504 -467 -518 -452 -518 c 256
 -411 -518 -424 -458 -350 -458 c 256
  PathStart: -2
EndSplineSet
PickledDataWithLists: "(dp1
S'com.schriftgestaltung.Glyphs.ColorIndex'
p2
I6
sS'public.markColor'
p3
S'0,0.67,0.91,1'
p4
s."
Substitution2: "NTR-Single Substitution lookup 33 subtable" RaOttuWide2
EndChar

StartChar: RaOttuWide1
Encoding: 465 -1 465
GlifName: R_aO_ttuW_ide1
Width: 31
VWidth: 0
Flags: W
AnchorPoint: "Anchor-3" -64 15 mark 0
LayerCount: 2
Back
Fore
SplineSet
546 -72 m 257
 486 -72 l 257
 486 -121 411 -177 274 -177 c 256
 137 -177 62 -121 62 -72 c 257
 2 -72 l 257
 2 -156 114 -232 274 -232 c 256
 434 -232 546 -156 546 -72 c 257
  PathStart: -2
62 -72 m 256
 62 -55 49 -42 32 -42 c 256
 15 -42 2 -55 2 -72 c 256
 2 -89 15 -102 32 -102 c 256
 49 -102 62 -89 62 -72 c 256
  PathStart: -2
546 -72 m 256
 546 -55 533 -42 516 -42 c 256
 499 -42 486 -55 486 -72 c 256
 486 -89 499 -102 516 -102 c 256
 533 -102 546 -89 546 -72 c 256
  PathStart: -2
EndSplineSet
PickledDataWithLists: "(dp1
S'com.schriftgestaltung.Glyphs.ColorIndex'
p2
I6
sS'public.markColor'
p3
S'0,0.67,0.91,1'
p4
s."
Substitution2: "NTR-Single Substitution lookup 34 subtable" RaOttuRight
Substitution2: "NTR-Single Substitution lookup 33 subtable" RaOttuWide2
Substitution2: "NTR-Single Substitution lookup 31 subtable" RaOttuRight
Substitution2: "NTR-Single Substitution lookup 30 subtable" RaOttuWide2
Substitution2: "NTR-Single Substitution lookup 27 subtable" RaOttuRight
EndChar

StartChar: RaOttuWide2
Encoding: 466 -1 466
GlifName: R_aO_ttuW_ide2
Width: 30
VWidth: 0
Flags: W
AnchorPoint: "Anchor-2" -72 45 mark 0
LayerCount: 2
Back
Fore
SplineSet
546 -72 m 257
 486 -72 l 257
 486 -121 411 -177 274 -177 c 256
 137 -177 62 -121 62 -72 c 257
 2 -72 l 257
 2 -156 114 -232 274 -232 c 256
 434 -232 546 -156 546 -72 c 257
  PathStart: -2
62 -72 m 256
 62 -55 49 -42 32 -42 c 256
 15 -42 2 -55 2 -72 c 256
 2 -89 15 -102 32 -102 c 256
 49 -102 62 -89 62 -72 c 256
  PathStart: -2
546 -72 m 256
 546 -55 533 -42 516 -42 c 256
 499 -42 486 -55 486 -72 c 256
 486 -89 499 -102 516 -102 c 256
 533 -102 546 -89 546 -72 c 256
  PathStart: -2
EndSplineSet
PickledDataWithLists: "(dp1
S'com.schriftgestaltung.Glyphs.ColorIndex'
p2
I6
sS'public.markColor'
p3
S'0,0.67,0.91,1'
p4
s."
Substitution2: "NTR-Single Substitution lookup 34 subtable" RaOttuRight
Substitution2: "NTR-Single Substitution lookup 31 subtable" RaOttuRight
Substitution2: "NTR-Single Substitution lookup 27 subtable" RaOttuRight
EndChar

StartChar: S
Encoding: 470 83 470
GlifName: S_
Width: 462
VWidth: 0
Flags: W
LayerCount: 2
Back
Fore
SplineSet
430 139 m 256
 430 184 413 218 380 242 c 256
 365 254 348 263 329 269 c 256
 291 283 251 292 212 301 c 256
 174 310 112 326 112 383 c 256
 112 437 168 468 245 468 c 256
 287 468 325 462 357 451 c 256
 368 447 377 445 383 445 c 256
 395 445 408 461 408 476 c 256
 408 491 401 501 387 506 c 256
 342 523 293 531 238 531 c 256
 117 531 44 465 44 377 c 256
 44 336 60 303 93 278 c 256
 108 267 125 258 145 251 c 256
 183 237 223 227 262 218 c 256
 300 208 362 191 362 143 c 256
 362 86 319 57 231 57 c 256
 166 57 114 74 93 84 c 257
 82 89 73 91 66 91 c 256
 51 91 38 76 38 61 c 256
 38 45 48 34 59 29 c 256
 115 5 174 -8 238 -8 c 256
 354 -8 430 53 430 139 c 256
  PathStart: -2
EndSplineSet
PickledDataWithLists: "(dp1
S'com.schriftgestaltung.Glyphs.ColorIndex'
p2
I9
sS'public.markColor'
p3
S'0.98,0.36,0.67,1'
p4
s."
EndChar

StartChar: SHNaOttu
Encoding: 471 -1 471
GlifName: S_H_N_aO_ttu
Width: 29
VWidth: 0
Flags: W
AnchorPoint: "Anchor-0" -40 34 mark 0
LayerCount: 2
Back
Fore
SplineSet
495 -573 m 256
 495 -492 437 -427 366 -427 c 256
 325 -427 292 -441 269 -470 c 257
 246 -445 211 -431 174 -431 c 256
 118 -431 80 -460 80 -505 c 256
 80 -535 102 -561 142 -577 c 257
 113 -593 98 -614 98 -637 c 256
 98 -682 149 -714 220 -714 c 256
 233 -714 245 -704 245 -691 c 256
 245 -678 233 -669 220 -669 c 256
 183 -669 149 -653 149 -637 c 256
 149 -611 205 -600 205 -572 c 256
 205 -544 131 -544 131 -505 c 256
 131 -487 146 -476 174 -476 c 256
 232 -476 240 -526 270 -526 c 257
 301 -526 302 -473 366 -473 c 256
 409 -473 444 -516 444 -573 c 256
 444 -629 413 -669 372 -669 c 256
 338 -669 317 -649 317 -619 c 256
 317 -598 327 -586 344 -586 c 256
 359 -586 368 -593 368 -604 c 256
 368 -617 378 -627 392 -627 c 256
 405 -627 416 -617 416 -604 c 256
 416 -569 384 -543 344 -543 c 256
 299 -543 266 -574 266 -619 c 256
 266 -675 310 -714 372 -714 c 256
 442 -714 495 -653 495 -573 c 256
  PathStart: -2
EndSplineSet
Refer: 483 -1 N 1 0 0 1 0 0 2
PickledDataWithLists: "(dp1
S'com.schriftgestaltung.Glyphs.ColorIndex'
p2
I6
sS'public.markColor'
p3
S'0,0.67,0.91,1'
p4
s."
Ligature2: "NTR-'blws' Below Base Substitutions in Telugu lookup 3 subtable" SSaOttu NNaOttu
EndChar

StartChar: SSa
Encoding: 472 3127 472
GlifName: S_S_a
Width: 622
VWidth: 0
Flags: W
AnchorPoint: "Anchor-0" 0 0 basechar 0
LayerCount: 2
Back
Fore
SplineSet
243 72 m 257
 285 30 340 -9 429 -9 c 256
 530 -9 592 51 592 138 c 256
 592 219 562 271 424 394 c 256
 418 400 411 403 403 403 c 256
 386 403 373 390 373 373 c 256
 373 365 376 358 382 352 c 256
 514 233 532 203 532 138 c 256
 532 82 495 46 429 46 c 257
 298 46 254 203 144 203 c 256
 81 203 35 155 35 89 c 256
 35 33 79 -9 136 -9 c 256
 180 -9 227 21 243 72 c 257
  PathStart: -2
90 94 m 256
 90 128 115 148 144 148 c 256
 166 148 180 140 207 109 c 257
 194 70 167 46 136 46 c 256
 109 46 90 64 90 94 c 256
  PathStart: -2
592 -154 m 258
 592 137 l 257
 537 137 l 257
 537 -154 l 258
 537 -170 549 -182 565 -182 c 256
 580 -182 592 -170 592 -154 c 258
  PathStart: -2
94 317 m 256
 94 338 116 366 192 438 c 256
 255 496 330 566 353 647 c 256
 354 650 354 653 354 656 c 257
 354 673 341 686 324 686 c 256
 310 686 298 676 295 663 c 256
 277 599 214 540 152 482 c 256
 62 398 34 361 34 317 c 256
 34 300 47 287 64 287 c 256
 81 287 94 300 94 317 c 256
  PathStart: -2
EndSplineSet
PickledDataWithLists: "(dp1
S'com.schriftgestaltung.Glyphs.ColorIndex'
p2
I6
sS'public.markColor'
p3
S'0,0.67,0.91,1'
p4
s."
EndChar

StartChar: SSa.base
Encoding: 473 -1 473
GlifName: S_S_a.base
Width: 613
VWidth: 0
Flags: W
LayerCount: 2
Back
Fore
SplineSet
243 72 m 257
 285 30 340 -9 429 -9 c 256
 530 -9 592 62 592 168 c 257
 592 330 467 423 254 423 c 256
 238 423 226 411 226 396 c 256
 226 380 238 368 254 368 c 256
 434 368 532 296 532 168 c 256
 532 93 495 46 429 46 c 256
 298 46 254 203 144 203 c 256
 81 203 35 155 35 89 c 256
 35 33 79 -9 136 -9 c 256
 180 -9 227 21 243 72 c 257
  PathStart: -2
90 94 m 256
 90 128 115 148 144 148 c 256
 166 148 180 140 207 109 c 257
 194 70 167 46 136 46 c 256
 109 46 90 64 90 94 c 256
  PathStart: -2
592 -154 m 258
 592 167 l 257
 537 167 l 257
 537 -154 l 258
 537 -170 549 -182 565 -182 c 256
 580 -182 592 -170 592 -154 c 258
  PathStart: -2
EndSplineSet
PickledDataWithLists: "(dp1
S'com.schriftgestaltung.Glyphs.ColorIndex'
p2
I6
sS'public.markColor'
p3
S'0,0.67,0.91,1'
p4
s."
EndChar

StartChar: SSaOttu
Encoding: 483 -1 483
GlifName: S_S_aO_ttu
Width: 31
VWidth: 0
Flags: W
AnchorPoint: "Anchor-0" -55 25 mark 0
LayerCount: 2
Back
Fore
SplineSet
555 -490 m 258
 555 -255 l 257
 555 -191 529 -148 419 -50 c 257
 414 -44 407 -42 400 -42 c 256
 385 -42 373 -53 373 -68 c 256
 373 -74 376 -80 380 -86 c 257
 486 -181 500 -204 500 -256 c 256
 500 -301 471 -328 421 -328 c 256
 318 -328 284 -202 193 -202 c 256
 141 -202 103 -241 103 -295 c 256
 103 -341 139 -376 187 -376 c 256
 224 -376 260 -351 274 -314 c 257
 307 -346 351 -376 421 -376 c 256
 454 -376 482 -368 504 -344 c 257
 504 -490 l 258
 504 -504 516 -514 530 -514 c 256
 544 -514 555 -503 555 -490 c 258
  PathStart: -2
154 -291 m 256
 154 -267 170 -250 193 -250 c 256
 210 -250 219 -255 239 -279 c 257
 230 -309 209 -328 187 -328 c 256
 167 -328 154 -314 154 -291 c 256
  PathStart: -2
EndSplineSet
PickledDataWithLists: "(dp1
S'com.schriftgestaltung.Glyphs.ColorIndex'
p2
I6
sS'public.markColor'
p3
S'0,0.67,0.91,1'
p4
s."
Ligature2: "NTR-'blwf' Below Base Forms in Telugu lookup 2 subtable" SSa Halanth
EndChar

StartChar: Sa
Encoding: 486 3128 486
GlifName: S_a
Width: 600
VWidth: 0
Flags: W
AnchorPoint: "Anchor-0" 0 0 basechar 0
LayerCount: 2
Back
Fore
SplineSet
111 -135 m 256
 111 -120 90 -74 90 -33 c 256
 90 24 113 64 147 64 c 256
 198 64 273 -9 382 -9 c 256
 492 -9 570 67 570 171 c 256
 570 240 525 325 464 373 c 256
 459 378 452 380 445 380 c 256
 428 380 415 367 415 350 c 256
 415 340 420 332 427 326 c 256
 474 289 510 222 510 171 c 256
 510 97 459 46 382 46 c 256
 279 46 226 119 147 119 c 256
 75 119 30 55 30 -33 c 256
 30 -75 44 -165 81 -165 c 256
 98 -165 111 -152 111 -135 c 256
  PathStart: -2
94 317 m 256
 94 338 116 366 192 438 c 256
 255 496 330 566 353 647 c 256
 354 650 354 653 354 656 c 257
 354 673 341 686 324 686 c 256
 310 686 298 676 295 663 c 256
 277 599 214 540 152 482 c 256
 62 398 34 361 34 317 c 256
 34 300 47 287 64 287 c 256
 81 287 94 300 94 317 c 256
  PathStart: -2
EndSplineSet
PickledDataWithLists: "(dp1
S'com.schriftgestaltung.Glyphs.ColorIndex'
p2
I6
sS'public.markColor'
p3
S'0,0.67,0.91,1'
p4
s."
EndChar

StartChar: Sa.base
Encoding: 487 -1 487
GlifName: S_a.base
Width: 600
VWidth: 0
Flags: W
LayerCount: 2
Back
Fore
SplineSet
111 -135 m 256
 111 -120 90 -74 90 -33 c 256
 90 24 113 64 147 64 c 256
 198 64 273 -9 382 -9 c 256
 492 -9 570 67 570 171 c 256
 570 240 525 325 464 373 c 256
 459 378 452 380 445 380 c 256
 428 380 415 367 415 350 c 256
 415 340 420 332 427 326 c 256
 474 289 510 222 510 171 c 256
 510 97 459 46 382 46 c 256
 279 46 226 119 147 119 c 256
 75 119 30 55 30 -33 c 256
 30 -75 44 -165 81 -165 c 256
 98 -165 111 -152 111 -135 c 256
  PathStart: -2
EndSplineSet
PickledDataWithLists: "(dp1
S'com.schriftgestaltung.Glyphs.ColorIndex'
p2
I6
sS'public.markColor'
p3
S'0,0.67,0.91,1'
p4
s."
EndChar

StartChar: SaAU
Encoding: 489 -1 489
GlifName: S_aA_U_
Width: 851
VWidth: 0
Flags: W
AnchorPoint: "Anchor-0" 0 0 basechar 0
LayerCount: 2
Back
Fore
SplineSet
111 -135 m 256
 111 -120 90 -74 90 -33 c 256
 90 24 113 64 147 64 c 256
 198 64 273 -9 382 -9 c 256
 492 -9 570 67 570 171 c 256
 570 415 342 533 342 652 c 256
 342 669 329 682 312 682 c 256
 295 682 282 669 282 652 c 256
 282 504 510 391 510 171 c 256
 510 97 459 46 382 46 c 256
 279 46 226 119 147 119 c 256
 75 119 30 55 30 -33 c 256
 30 -75 44 -165 81 -165 c 256
 98 -165 111 -152 111 -135 c 256
  PathStart: -2
EndSplineSet
Refer: 18 3148 N 1 0 0 1 329 -90 2
PickledDataWithLists: "(dp1
S'com.schriftgestaltung.Glyphs.ColorIndex'
p2
I6
sS'public.markColor'
p3
S'0,0.67,0.91,1'
p4
s."
Ligature2: "NTR-'abvs' Above Base Substitutions in Telugu lookup 16 subtable" Sa AuMatra
EndChar

StartChar: SaO
Encoding: 495 -1 495
GlifName: S_aO_
Width: 853
VWidth: 0
Flags: W
AnchorPoint: "Anchor-0" 0 0 basechar 0
LayerCount: 2
Back
Fore
SplineSet
111 -135 m 256
 111 -120 90 -74 90 -33 c 256
 90 24 113 64 147 64 c 256
 198 64 273 -9 382 -9 c 256
 492 -9 570 67 570 171 c 256
 570 415 342 533 342 652 c 256
 342 669 329 682 312 682 c 256
 295 682 282 669 282 652 c 256
 282 504 510 391 510 171 c 256
 510 97 459 46 382 46 c 256
 279 46 226 119 147 119 c 256
 75 119 30 55 30 -33 c 256
 30 -75 44 -165 81 -165 c 256
 98 -165 111 -152 111 -135 c 256
  PathStart: -2
EndSplineSet
Refer: 392 3146 N 1 0 0 1 270 -90 2
PickledDataWithLists: "(dp1
S'com.schriftgestaltung.Glyphs.ColorIndex'
p2
I6
sS'public.markColor'
p3
S'0,0.67,0.91,1'
p4
s."
Ligature2: "NTR-'abvs' Above Base Substitutions in Telugu lookup 14 subtable" Sa OMatra
EndChar

StartChar: SaOO
Encoding: 496 -1 496
GlifName: S_aO_O_
Width: 833
VWidth: 0
Flags: W
AnchorPoint: "Anchor-0" 0 0 basechar 0
LayerCount: 2
Back
Fore
SplineSet
111 -135 m 256
 111 -120 90 -74 90 -33 c 256
 90 24 113 64 147 64 c 256
 198 64 273 -9 382 -9 c 256
 492 -9 570 67 570 171 c 256
 570 415 342 533 342 652 c 256
 342 669 329 682 312 682 c 256
 295 682 282 669 282 652 c 256
 282 504 510 391 510 171 c 256
 510 97 459 46 382 46 c 256
 279 46 226 119 147 119 c 256
 75 119 30 55 30 -33 c 256
 30 -75 44 -165 81 -165 c 256
 98 -165 111 -152 111 -135 c 256
  PathStart: -2
EndSplineSet
Refer: 394 3147 N 1 0 0 1 270 -90 2
PickledDataWithLists: "(dp1
S'com.schriftgestaltung.Glyphs.ColorIndex'
p2
I6
sS'public.markColor'
p3
S'0,0.67,0.91,1'
p4
s."
Ligature2: "NTR-'abvs' Above Base Substitutions in Telugu lookup 15 subtable" Sa OOMatra
EndChar

StartChar: SaOttu
Encoding: 497 -1 497
GlifName: S_aO_ttu
Width: 272
VWidth: 0
Flags: W
LayerCount: 2
Back
Fore
SplineSet
-187 -406 m 256
 -187 -391 -208 -345 -208 -304 c 256
 -208 -254 -185 -217 -151 -217 c 256
 -105 -217 -45 -285 64 -285 c 256
 179 -285 263 -207 263 -100 c 256
 263 79 93 193 93 332 c 256
 93 349 80 362 63 362 c 256
 46 362 33 349 33 332 c 256
 33 184 203 67 203 -100 c 256
 203 -177 146 -230 64 -230 c 256
 -39 -230 -79 -162 -151 -162 c 256
 -223 -162 -268 -222 -268 -304 c 256
 -268 -346 -254 -436 -217 -436 c 256
 -200 -436 -187 -423 -187 -406 c 256
  PathStart: -2
EndSplineSet
PickledDataWithLists: "(dp1
S'com.schriftgestaltung.Glyphs.ColorIndex'
p2
I6
sS'public.markColor'
p3
S'0,0.67,0.91,1'
p4
s."
Ligature2: "NTR-'blwf' Below Base Forms in Telugu lookup 2 subtable" Sa Halanth
EndChar

StartChar: Scommaaccent
Encoding: 500 536 500
GlifName: S_commaaccent
Width: 463
VWidth: 0
Flags: W
LayerCount: 2
Back
Fore
SplineSet
430 139 m 256
 430 184 413 218 380 242 c 256
 365 254 348 263 329 269 c 256
 291 283 251 292 212 301 c 256
 174 310 112 326 112 383 c 256
 112 437 168 468 245 468 c 256
 287 468 325 462 357 451 c 256
 368 447 377 445 383 445 c 256
 395 445 408 461 408 476 c 256
 408 491 401 501 387 506 c 256
 342 523 293 531 238 531 c 256
 117 531 44 465 44 377 c 256
 44 336 60 303 93 278 c 256
 108 267 125 258 145 251 c 256
 183 237 223 227 262 218 c 256
 300 208 362 191 362 143 c 256
 362 86 319 57 231 57 c 256
 166 57 114 74 93 84 c 257
 82 89 73 91 66 91 c 256
 51 91 38 76 38 61 c 256
 38 45 48 34 59 29 c 256
 115 5 174 -8 238 -8 c 256
 354 -8 430 53 430 139 c 256
  PathStart: -2
221 -211 m 257
 257 -188 276 -155 276 -113 c 258
 276 -74 l 258
 276 -53 259 -35 239 -35 c 258
 232 -35 l 258
 211 -35 194 -53 194 -74 c 258
 194 -77 l 258
 194 -98 211 -115 232 -115 c 258
 234 -115 l 257
 234 -152 221 -166 200 -177 c 257
 194 -182 190 -187 190 -193 c 256
 190 -206 199 -215 209 -215 c 256
 215 -215 218 -213 221 -211 c 257
  PathStart: -2
EndSplineSet
PickledDataWithLists: "(dp1
S'com.schriftgestaltung.Glyphs.ColorIndex'
p2
I9
sS'public.markColor'
p3
S'0.98,0.36,0.67,1'
p4
s."
EndChar

StartChar: Sha
Encoding: 501 3126 501
GlifName: S_ha
Width: 709
VWidth: 0
Flags: W
AnchorPoint: "Anchor-0" 0 0 basechar 0
LayerCount: 2
Back
Fore
SplineSet
623 90 m 256
 623 194 416 312 245 312 c 256
 116 312 33 225 33 91 c 257
 33 74 46 61 63 61 c 256
 80 61 93 74 93 91 c 256
 93 192 150 252 245 252 c 256
 378 252 563 154 563 90 c 256
 563 64 537 46 493 46 c 256
 442 46 415 65 415 91 c 256
 415 168 685 204 685 305 c 256
 685 382 580 423 400 423 c 256
 384 423 372 411 372 396 c 256
 372 380 384 368 400 368 c 256
 541 368 625 341 625 305 c 256
 625 251 355 205 355 91 c 256
 355 29 410 -9 493 -9 c 256
 569 -9 623 30 623 90 c 256
  PathStart: -2
430 394 m 256
 430 410 417 423 400 423 c 256
 378 423 361 432 361 451 c 256
 361 515 616 589 616 726 c 256
 616 743 603 756 586 756 c 256
 569 756 556 743 556 726 c 256
 556 619 301 565 301 446 c 256
 301 397 338 368 400 368 c 256
 417 368 430 380 430 394 c 256
  PathStart: -2
EndSplineSet
PickledDataWithLists: "(dp1
S'com.schriftgestaltung.Glyphs.ColorIndex'
p2
I6
sS'public.markColor'
p3
S'0,0.67,0.91,1'
p4
s."
EndChar

StartChar: Sha.base
Encoding: 502 -1 502
GlifName: S_ha.base
Width: 709
VWidth: 0
Flags: W
LayerCount: 2
Back
Fore
SplineSet
623 90 m 256
 623 194 416 312 245 312 c 256
 116 312 33 225 33 91 c 257
 33 74 46 61 63 61 c 256
 80 61 93 74 93 91 c 256
 93 192 150 252 245 252 c 256
 378 252 563 154 563 90 c 256
 563 64 537 46 493 46 c 256
 442 46 415 65 415 91 c 256
 415 168 685 204 685 305 c 256
 685 382 580 423 400 423 c 256
 384 423 372 411 372 396 c 256
 372 380 384 368 400 368 c 256
 541 368 625 341 625 305 c 256
 625 251 355 205 355 91 c 256
 355 29 410 -9 493 -9 c 256
 569 -9 623 30 623 90 c 256
  PathStart: -2
EndSplineSet
PickledDataWithLists: "(dp1
S'com.schriftgestaltung.Glyphs.ColorIndex'
p2
I6
sS'public.markColor'
p3
S'0,0.67,0.91,1'
p4
s."
EndChar

StartChar: ShaI
Encoding: 508 -1 508
GlifName: S_haI_
Width: 583
VWidth: 0
Flags: W
AnchorPoint: "Anchor-0" 0 0 basechar 0
LayerCount: 2
Back
Fore
SplineSet
497 85 m 256
 497 117 461 154 409 187 c 257
 482 236 560 295 560 375 c 256
 560 454 487 503 278 503 c 257
 278 453 l 257
 447 453 500 415 500 375 c 256
 500 316 421 270 348 221 c 257
 287 252 216 274 158 274 c 256
 83 274 31 228 31 163 c 256
 31 121 51 36 90 36 c 256
 106 36 121 50 121 66 c 256
 121 80 91 106 91 163 c 256
 91 197 115 219 158 219 c 256
 194 219 245 203 292 181 c 257
 256 151 229 119 229 82 c 256
 229 23 279 -9 363 -9 c 256
 441 -9 497 29 497 85 c 256
  PathStart: -2
289 82 m 256
 289 103 317 126 355 152 c 257
 402 127 437 101 437 85 c 256
 437 64 407 46 363 46 c 256
 310 46 289 59 289 82 c 256
  PathStart: -2
377 408 m 256
 377 463 335 503 278 503 c 256
 220 503 178 463 178 408 c 256
 178 353 220 313 278 313 c 256
 335 313 377 353 377 408 c 256
  PathStart: -2
238 408 m 256
 238 429 257 448 278 448 c 256
 299 448 317 429 317 408 c 256
 317 387 299 368 278 368 c 257
 257 368 238 387 238 408 c 256
  PathStart: -2
EndSplineSet
PickledDataWithLists: "(dp1
S'com.schriftgestaltung.Glyphs.ColorIndex'
p2
I6
sS'public.markColor'
p3
S'0,0.67,0.91,1'
p4
s."
Ligature2: "NTR-'abvs' Above Base Substitutions in Telugu lookup 10 subtable" Sha Imatra
EndChar

StartChar: ShaOttu
Encoding: 512 -1 512
GlifName: S_haO_ttu
Width: 178
VWidth: 0
Flags: W
LayerCount: 2
Back
Fore
SplineSet
112 -262 m 256
 112 -179 -38 -82 -164 -82 c 256
 -287 -82 -368 -153 -368 -261 c 256
 -368 -276 -355 -287 -340 -287 c 256
 -324 -287 -313 -276 -313 -261 c 256
 -313 -180 -257 -132 -164 -132 c 256
 -74 -132 57 -210 57 -262 c 256
 57 -283 37 -295 4 -295 c 256
 -32 -295 -55 -282 -55 -261 c 256
 -55 -187 162 -187 162 -22 c 256
 162 74 92 155 59 155 c 256
 46 155 35 146 35 131 c 256
 35 110 107 77 107 -22 c 256
 107 -151 -110 -152 -110 -261 c 256
 -110 -311 -65 -343 4 -343 c 256
 67 -343 112 -311 112 -262 c 256
  PathStart: -2
EndSplineSet
PickledDataWithLists: "(dp1
S'com.schriftgestaltung.Glyphs.ColorIndex'
p2
I6
sS'public.markColor'
p3
S'0,0.67,0.91,1'
p4
s."
Ligature2: "NTR-'blwf' Below Base Forms in Telugu lookup 2 subtable" Sha Halanth
EndChar

StartChar: ShaU
Encoding: 513 -1 513
GlifName: S_haU_
Width: 1013
VWidth: 0
Flags: W
AnchorPoint: "Anchor-3" 0 0 basechar 0
AnchorPoint: "Anchor-0" 0 0 basechar 0
LayerCount: 2
Back
Fore
SplineSet
970 164 m 256
 970 287 872 389 824 418 c 256
 819 421 813 423 807 423 c 256
 791 423 777 410 777 393 c 256
 777 382 783 373 792 367 c 256
 878 309 910 230 910 164 c 256
 910 92 851 46 766 46 c 256
 692 46 634 76 615 119 c 257
 575 104 l 257
 596 36 659 -9 766 -9 c 256
 891 -9 970 60 970 164 c 256
  PathStart: -2
EndSplineSet
Refer: 501 3126 N 1 0 0 1 0 0 2
PickledDataWithLists: "(dp1
S'com.schriftgestaltung.Glyphs.ColorIndex'
p2
I6
sS'public.markColor'
p3
S'0,0.67,0.91,1'
p4
s."
Ligature2: "NTR-'psts' Post Base Substitutions in Telugu lookup 17 subtable" Sha UMatra
EndChar

StartChar: ShaUU
Encoding: 514 -1 514
GlifName: S_haU_U_
Width: 1231
VWidth: 0
Flags: W
AnchorPoint: "Anchor-3" 0 0 basechar 0
AnchorPoint: "Anchor-0" 0 0 basechar 0
LayerCount: 2
Back
Fore
SplineSet
1019 115 m 256
 1019 184 949 231 896 266 c 256
 832 310 817 325 817 340 c 256
 817 375 865 400 952 400 c 256
 1071 400 1148 357 1148 296 c 256
 1148 263 1128 242 1101 242 c 256
 1078 242 1064 258 1064 285 c 256
 1064 302 1051 315 1034 315 c 256
 1017 315 1004 302 1004 285 c 256
 1004 232 1045 192 1101 192 c 256
 1162 192 1208 237 1208 296 c 256
 1208 391 1106 450 952 450 c 256
 829 450 757 411 757 340 c 256
 757 286 815 248 862 216 c 256
 936 167 959 143 959 115 c 256
 959 75 905 46 817 46 c 256
 719 46 641 76 615 119 c 257
 575 104 l 257
 600 36 682 -9 817 -9 c 257
 937 -9 1019 43 1019 115 c 256
  PathStart: -2
EndSplineSet
Refer: 501 3126 N 1 0 0 1 0 0 2
PickledDataWithLists: "(dp1
S'com.schriftgestaltung.Glyphs.ColorIndex'
p2
I6
sS'public.markColor'
p3
S'0,0.67,0.91,1'
p4
s."
Ligature2: "NTR-'psts' Post Base Substitutions in Telugu lookup 17 subtable" Sha UUMatra
EndChar

StartChar: SsaTtaOttu
Encoding: 515 -1 515
GlifName: S_saT_taO_ttu
Width: 31
VWidth: 0
Flags: W
AnchorPoint: "Anchor-0" -72 0 mark 0
LayerCount: 2
Back
Fore
SplineSet
297 -591 m 257
 326 -640 354 -661 398 -661 c 256
 456 -661 492 -618 492 -549 c 256
 492 -469 411 -406 390 -406 c 256
 377 -406 367 -417 367 -430 c 256
 367 -453 441 -485 441 -549 c 256
 441 -588 423 -615 398 -615 c 256
 351 -615 334 -537 295 -537 c 256
 263 -537 251 -615 202 -615 c 256
 173 -615 149 -582 149 -543 c 256
 149 -535 149 -526 152 -519 c 257
 168 -537 186 -545 209 -545 c 256
 252 -545 290 -511 290 -471 c 256
 290 -435 257 -410 214 -410 c 256
 149 -410 98 -470 98 -543 c 256
 98 -608 143 -661 202 -661 c 256
 245 -661 279 -635 297 -591 c 257
  PathStart: -2
164 -485 m 257
 177 -464 195 -452 214 -452 c 256
 231 -452 239 -459 239 -474 c 256
 239 -488 225 -502 209 -502 c 256
 189 -502 177 -498 164 -485 c 257
  PathStart: -2
EndSplineSet
Refer: 483 -1 N 1 0 0 1 0 0 2
PickledDataWithLists: "(dp1
S'com.schriftgestaltung.Glyphs.ColorIndex'
p2
I6
sS'public.markColor'
p3
S'0,0.67,0.91,1'
p4
s."
Ligature2: "NTR-'blws' Below Base Substitutions in Telugu lookup 3 subtable" SSaOttu TTaOttu
EndChar

StartChar: T
Encoding: 517 84 517
GlifName: T_
Width: 458
VWidth: 0
Flags: W
LayerCount: 2
Back
Fore
SplineSet
263 30 m 258
 263 460 l 257
 416 460 l 258
 434 460 448 473 448 491 c 256
 448 509 434 524 416 524 c 258
 42 524 l 258
 24 524 11 509 11 491 c 256
 11 473 24 460 42 460 c 258
 195 460 l 257
 195 30 l 258
 195 11 210 -4 229 -4 c 256
 248 -4 263 11 263 30 c 258
  PathStart: -2
EndSplineSet
PickledDataWithLists: "(dp1
S'com.schriftgestaltung.Glyphs.ColorIndex'
p2
I9
sS'public.markColor'
p3
S'0.98,0.36,0.67,1'
p4
s."
EndChar

StartChar: TRaOttu
Encoding: 519 -1 519
GlifName: T_R_aO_ttu
Width: 29
VWidth: 0
Flags: W
AnchorPoint: "Anchor-0" 20 63 mark 0
LayerCount: 2
Back
Fore
SplineSet
649 -252 m 257
 589 -252 l 257
 589 -301 514 -367 377 -367 c 256
 240 -367 165 -301 165 -252 c 257
 105 -252 l 257
 105 -336 217 -422 377 -422 c 256
 537 -422 649 -336 649 -252 c 257
  PathStart: -2
165 -252 m 256
 165 -235 152 -222 135 -222 c 256
 118 -222 105 -235 105 -252 c 256
 105 -269 118 -282 135 -282 c 256
 152 -282 165 -269 165 -252 c 256
  PathStart: -2
477 -209 m 257
 415 -209 290 -187 215 -187 c 256
 198 -187 185 -200 185 -217 c 256
 185 -234 198 -247 215 -247 c 256
 288 -247 414 -259 477 -259 c 257
 477 -209 l 257
584 -142 m 256
 584 -77 536 -25 477 -25 c 256
 418 -25 370 -77 370 -142 c 256
 370 -207 418 -259 477 -259 c 256
 536 -259 584 -207 584 -142 c 256
  PathStart: -2
425 -142 m 256
 425 -108 448 -80 477 -80 c 256
 506 -80 529 -108 529 -142 c 256
 529 -176 506 -204 477 -204 c 256
 448 -204 425 -176 425 -142 c 256
  PathStart: -2
649 -252 m 256
 649 -235 636 -222 619 -222 c 256
 602 -222 589 -235 589 -252 c 256
 589 -269 602 -282 619 -282 c 256
 636 -282 649 -269 649 -252 c 256
  PathStart: -2
EndSplineSet
PickledDataWithLists: "(dp1
S'com.schriftgestaltung.Glyphs.ColorIndex'
p2
I6
sS'public.markColor'
p3
S'0,0.67,0.91,1'
p4
s."
Ligature2: "NTR-'blws' Below Base Substitutions in Telugu lookup 3 subtable" TaOttu RaOttuWide2
Ligature2: "NTR-'blws' Below Base Substitutions in Telugu lookup 3 subtable" TaOttu RaOttuMiddle1
Ligature2: "NTR-'blws' Below Base Substitutions in Telugu lookup 3 subtable" TaOttu RaOttuWide1
EndChar

StartChar: TTHaOttu
Encoding: 520 -1 520
GlifName: T_T_H_aO_ttu
Width: 30
VWidth: 0
Flags: W
AnchorPoint: "Anchor-0" -55 30 mark 0
LayerCount: 2
Back
Fore
SplineSet
470 -206 m 256
 470 -106 385 -36 270 -36 c 256
 164 -36 80 -97 80 -201 c 256
 80 -301 165 -371 280 -371 c 256
 386 -371 470 -310 470 -206 c 256
  PathStart: -2
130 -201 m 256
 130 -128 184 -81 270 -81 c 256
 360 -81 420 -132 420 -206 c 256
 420 -279 366 -326 280 -326 c 257
 190 -326 130 -275 130 -201 c 256
  PathStart: -2
322 -203 m 256
 322 -178 302 -157 277 -157 c 256
 252 -157 231 -178 231 -203 c 256
 231 -228 252 -248 277 -248 c 256
 302 -248 322 -228 322 -203 c 256
  PathStart: -2
EndSplineSet
PickledDataWithLists: "(dp1
S'com.schriftgestaltung.Glyphs.ColorIndex'
p2
I6
sS'public.markColor'
p3
S'0,0.67,0.91,1'
p4
s."
Ligature2: "NTR-'blwf' Below Base Forms in Telugu lookup 2 subtable" TTha Halanth
EndChar

StartChar: TTa.base
Encoding: 521 -1 521
GlifName: T_T_a.base
Width: 729
VWidth: 0
Flags: W
LayerCount: 2
Back
Fore
SplineSet
332 99 m 257
 371 18 435 -10 510 -10 c 256
 620 -10 699 78 699 201 c 256
 699 325 608 423 466 423 c 257
 466 368 l 257
 574 368 639 295 639 201 c 256
 639 108 588 46 510 46 c 256
 458 46 413 72 382 122 c 256
 369 140 352 151 331 151 c 256
 310 150 296 136 283 114 c 256
 264 72 232 46 199 46 c 256
 141 46 92 111 92 191 c 256
 92 273 145 343 204 343 c 256
 235 343 251 326 251 299 c 256
 251 271 226 247 197 247 c 256
 153 247 130 260 94 305 c 257
 64 275 l 257
 101 220 140 197 197 197 c 256
 259 197 311 245 311 304 c 256
 311 357 267 393 204 393 c 256
 110 393 32 301 32 191 c 256
 32 79 104 -10 199 -10 c 256
 259 -10 309 29 332 99 c 257
  PathStart: -2
206 473 m 258
 215 619 l 258
 215 642 204 655 179 655 c 256
 156 655 143 642 143 619 c 258
 152 473 l 258
 152 450 162 437 179 437 c 256
 197 437 206 450 206 473 c 258
  PathStart: -2
493 396 m 256
 493 411 481 423 466 423 c 256
 450 423 438 411 438 396 c 256
 438 380 450 368 466 368 c 256
 481 368 493 380 493 396 c 256
  PathStart: -2
EndSplineSet
PickledDataWithLists: "(dp1
S'com.schriftgestaltung.Glyphs.ColorIndex'
p2
I6
sS'public.markColor'
p3
S'0,0.67,0.91,1'
p4
s."
EndChar

StartChar: TTaHalanth
Encoding: 526 -1 526
GlifName: T_T_aH_alanth
Width: 815
VWidth: 0
Flags: W
AnchorPoint: "Anchor-0" 0 0 basechar 0
LayerCount: 2
Back
Fore
SplineSet
332 99 m 257
 371 18 435 -10 510 -10 c 256
 620 -10 699 78 699 201 c 256
 699 325 608 423 466 423 c 257
 466 368 l 257
 574 368 639 295 639 201 c 256
 639 108 588 46 510 46 c 256
 458 46 413 72 382 122 c 256
 369 140 352 151 331 151 c 256
 310 150 296 136 283 114 c 256
 264 72 232 46 199 46 c 256
 141 46 92 111 92 191 c 256
 92 273 145 343 204 343 c 256
 235 343 251 326 251 299 c 256
 251 271 226 247 197 247 c 256
 153 247 130 260 94 305 c 257
 64 275 l 257
 101 220 140 197 197 197 c 256
 259 197 311 245 311 304 c 256
 311 357 267 393 204 393 c 256
 110 393 32 301 32 191 c 256
 32 79 104 -10 199 -10 c 256
 259 -10 309 29 332 99 c 257
  PathStart: -2
493 396 m 256
 493 411 481 423 466 423 c 256
 450 423 438 411 438 396 c 256
 438 380 450 368 466 368 c 256
 481 368 493 380 493 396 c 256
  PathStart: -2
EndSplineSet
Refer: 199 3149 N 1 0 0 1 458 0 2
Refer: 763 -1 N 1 0 0 -1 99 407 2
PickledDataWithLists: "(dp1
S'com.schriftgestaltung.Glyphs.ColorIndex'
p2
I6
sS'public.markColor'
p3
S'0,0.67,0.91,1'
p4
s."
Ligature2: "NTR-'haln' Halant Forms in Telugu lookup 19 subtable" Lla Halanth
EndChar

StartChar: TTaOttu
Encoding: 531 -1 531
GlifName: T_T_aO_ttu
Width: 58
VWidth: 0
Flags: W
AnchorPoint: "Anchor-0" -35 25 mark 0
LayerCount: 2
Back
Fore
SplineSet
290 -268 m 257
 329 -343 364 -369 417 -369 c 256
 490 -369 542 -320 542 -228 c 256
 542 -123 410 -40 383 -40 c 256
 373 -40 358 -49 358 -66 c 256
 358 -91 487 -139 487 -228 c 256
 487 -284 458 -320 417 -320 c 256
 355 -320 346 -216 289 -216 c 256
 240 -216 236 -320 173 -320 c 256
 134 -320 101 -275 101 -220 c 256
 101 -210 102 -200 104 -191 c 257
 126 -209 150 -217 181 -217 c 256
 233 -217 277 -178 277 -130 c 256
 277 -87 239 -57 187 -57 c 256
 109 -57 46 -131 46 -220 c 256
 46 -303 101 -369 173 -369 c 256
 227 -369 270 -332 290 -268 c 257
  PathStart: -2
120 -149 m 257
 136 -120 161 -101 187 -101 c 256
 210 -101 222 -113 222 -134 c 256
 222 -155 203 -173 181 -173 c 256
 155 -173 139 -167 120 -149 c 257
  PathStart: -2
EndSplineSet
PickledDataWithLists: "(dp1
S'com.schriftgestaltung.Glyphs.ColorIndex'
p2
I6
sS'public.markColor'
p3
S'0,0.67,0.91,1'
p4
s."
Ligature2: "NTR-'blwf' Below Base Forms in Telugu lookup 2 subtable" Lla Halanth
EndChar

StartChar: TTh.base
Encoding: 534 -1 534
GlifName: T_T_h.base
Width: 596
VWidth: 0
Flags: W
LayerCount: 2
Back
Fore
SplineSet
345 200 m 256
 345 227 322 250 294 250 c 256
 266 250 244 227 244 200 c 256
 244 172 266 149 294 149 c 256
 322 149 345 172 345 200 c 256
  PathStart: -2
EndSplineSet
Refer: 452 -1 N 1 0 0 1 0 0 2
PickledDataWithLists: "(dp1
S'com.schriftgestaltung.Glyphs.ColorIndex'
p2
I6
sS'public.markColor'
p3
S'0,0.67,0.91,1'
p4
s."
EndChar

StartChar: TTha
Encoding: 535 3104 535
GlifName: T_T_ha
Width: 596
VWidth: 0
Flags: W
AnchorPoint: "Anchor-0" 0 0 basechar 0
LayerCount: 2
Back
Fore
SplineSet
303 394 m 256
 303 407 290 418 273 418 c 256
 241 418 234 427 234 446 c 256
 234 511 489 586 489 726 c 256
 489 743 476 756 459 756 c 256
 442 756 429 743 429 726 c 256
 429 619 174 565 174 446 c 256
 174 397 211 368 273 368 c 256
 290 368 303 380 303 394 c 256
  PathStart: -2
350 200 m 256
 350 227 325 250 294 250 c 256
 263 250 238 227 238 200 c 256
 238 172 263 149 294 149 c 256
 325 149 350 172 350 200 c 256
  PathStart: -2
EndSplineSet
Refer: 452 -1 N 1 0 0 1 0 0 2
PickledDataWithLists: "(dp1
S'com.schriftgestaltung.Glyphs.ColorIndex'
p2
I6
sS'public.markColor'
p3
S'0,0.67,0.91,1'
p4
s."
EndChar

StartChar: TThaI
Encoding: 541 -1 541
GlifName: T_T_haI_
Width: 598
VWidth: 0
Flags: W
AnchorPoint: "Anchor-0" 0 0 basechar 0
LayerCount: 2
Back
Fore
SplineSet
364 199 m 256
 364 226 341 249 313 249 c 256
 285 249 263 226 263 199 c 256
 263 171 285 148 313 148 c 256
 341 148 364 171 364 199 c 256
  PathStart: -2
EndSplineSet
Refer: 458 -1 N 1 0 0 1 0 0 2
PickledDataWithLists: "(dp1
S'com.schriftgestaltung.Glyphs.ColorIndex'
p2
I6
sS'public.markColor'
p3
S'0,0.67,0.91,1'
p4
s."
Ligature2: "NTR-'abvs' Above Base Substitutions in Telugu lookup 10 subtable" TTha Imatra
EndChar

StartChar: Ta
Encoding: 547 3108 547
GlifName: T_a
Width: 615
VWidth: 0
Flags: W
AnchorPoint: "Anchor-0" 0 0 basechar 0
LayerCount: 2
Back
Fore
SplineSet
595 221 m 256
 595 308 531 362 430 362 c 256
 354 362 291 316 291 257 c 256
 291 204 329 165 383 165 c 256
 438 165 481 208 481 264 c 257
 426 264 l 257
 426 235 408 215 383 215 c 256
 363 215 351 230 351 257 c 256
 351 285 377 312 430 312 c 256
 499 312 535 279 535 221 c 256
 535 135 452 51 305 51 c 256
 167 51 91 93 91 162 c 256
 91 210 119 248 163 248 c 256
 187 248 203 231 203 211 c 256
 203 186 182 172 159 172 c 256
 135 172 110 185 92 207 c 257
 58 175 l 257
 85 139 114 117 159 117 c 256
 220 117 263 156 263 211 c 256
 263 263 219 303 163 303 c 256
 90 303 31 239 31 162 c 256
 31 54 134 -9 305 -9 c 256
 486 -9 595 101 595 221 c 256
  PathStart: -2
481 264 m 257
 481 416 322 423 227 423 c 256
 211 423 199 411 199 396 c 256
 199 380 211 368 227 368 c 256
 389 368 426 336 426 264 c 257
 481 264 l 257
257 394 m 256
 257 410 244 423 227 423 c 256
 195 423 188 437 188 451 c 256
 188 515 443 589 443 726 c 256
 443 743 430 756 413 756 c 256
 396 756 383 743 383 726 c 256
 383 619 128 565 128 446 c 256
 128 397 165 368 227 368 c 256
 244 368 257 380 257 394 c 256
  PathStart: -2
EndSplineSet
PickledDataWithLists: "(dp1
S'com.schriftgestaltung.Glyphs.ColorIndex'
p2
I6
sS'public.markColor'
p3
S'0,0.67,0.91,1'
p4
s."
EndChar

StartChar: Ta.base
Encoding: 548 -1 548
GlifName: T_a.base
Width: 615
VWidth: 0
Flags: W
LayerCount: 2
Back
Fore
SplineSet
595 206 m 256
 595 291 531 347 430 347 c 256
 354 347 291 301 291 242 c 256
 291 189 329 150 383 150 c 256
 438 150 481 193 481 249 c 257
 426 249 l 257
 426 220 408 200 383 200 c 256
 363 200 351 215 351 242 c 256
 351 270 377 297 430 297 c 256
 499 297 535 264 535 206 c 256
 535 130 452 46 305 46 c 256
 167 46 91 90 91 162 c 256
 91 210 119 248 163 248 c 256
 187 248 203 231 203 211 c 256
 203 186 182 172 159 172 c 256
 135 172 110 185 92 207 c 257
 58 175 l 257
 85 139 114 117 159 117 c 256
 220 117 263 156 263 211 c 256
 263 263 219 303 163 303 c 256
 90 303 31 239 31 162 c 256
 31 54 134 -9 305 -9 c 256
 486 -9 595 86 595 206 c 256
  PathStart: -2
481 249 m 257
 481 415 322 423 227 423 c 256
 211 423 199 411 199 396 c 256
 199 386 211 368 227 368 c 256
 389 368 426 331 426 249 c 257
 481 249 l 257
EndSplineSet
PickledDataWithLists: "(dp1
S'com.schriftgestaltung.Glyphs.ColorIndex'
p2
I6
sS'public.markColor'
p3
S'0,0.67,0.91,1'
p4
s."
EndChar

StartChar: TaI
Encoding: 554 -1 554
GlifName: T_aI_
Width: 615
VWidth: 0
Flags: W
AnchorPoint: "Anchor-0" 0 0 basechar 0
LayerCount: 2
Back
Fore
SplineSet
595 221 m 256
 595 308 531 362 430 362 c 256
 354 362 291 316 291 257 c 256
 291 204 329 165 383 165 c 256
 438 165 481 208 481 264 c 257
 426 264 l 257
 426 235 408 215 383 215 c 256
 363 215 351 230 351 257 c 256
 351 285 377 312 430 312 c 256
 499 312 535 279 535 221 c 256
 535 135 452 51 305 51 c 256
 167 51 91 93 91 162 c 256
 91 210 119 248 163 248 c 256
 187 248 203 231 203 211 c 256
 203 186 182 172 159 172 c 256
 135 172 110 185 92 207 c 257
 58 175 l 257
 85 139 114 117 159 117 c 256
 220 117 263 156 263 211 c 256
 263 263 219 303 163 303 c 256
 90 303 31 239 31 162 c 256
 31 54 134 -9 305 -9 c 256
 486 -9 595 101 595 221 c 256
  PathStart: -2
306 428 m 256
 306 483 264 523 207 523 c 256
 149 523 107 483 107 428 c 256
 107 373 149 333 207 333 c 256
 264 333 306 373 306 428 c 256
  PathStart: -2
167 428 m 256
 167 449 183 468 207 468 c 256
 230 468 246 449 246 428 c 256
 246 407 230 388 207 388 c 257
 184 388 167 407 167 428 c 256
  PathStart: -2
481 264 m 257
 481 531 258 523 207 523 c 256
 191 523 179 511 179 496 c 256
 179 485 191 477 207 477 c 256
 359 477 426 417 426 264 c 257
 481 264 l 257
EndSplineSet
PickledDataWithLists: "(dp1
S'com.schriftgestaltung.Glyphs.ColorIndex'
p2
I6
sS'public.markColor'
p3
S'0,0.67,0.91,1'
p4
s."
Ligature2: "NTR-'abvs' Above Base Substitutions in Telugu lookup 10 subtable" Ta Imatra
EndChar

StartChar: TaOttu
Encoding: 558 -1 558
GlifName: T_aO_ttu
Width: 40
VWidth: 0
Flags: W
LayerCount: 2
Back
Fore
SplineSet
765 -194 m 256
 765 -129 713 -77 648 -77 c 256
 583 -77 531 -129 531 -194 c 256
 531 -259 583 -311 648 -311 c 256
 713 -311 765 -259 765 -194 c 256
  PathStart: -2
648 -261 m 257
 545 -261 340 -239 228 -239 c 256
 211 -239 198 -252 198 -269 c 256
 198 -286 211 -299 228 -299 c 256
 338 -299 543 -311 648 -311 c 257
 648 -261 l 257
586 -194 m 256
 586 -160 614 -132 648 -132 c 256
 682 -132 710 -160 710 -194 c 256
 710 -228 682 -256 648 -256 c 256
 614 -256 586 -228 586 -194 c 256
  PathStart: -2
EndSplineSet
PickledDataWithLists: "(dp1
S'com.schriftgestaltung.Glyphs.ColorIndex'
p2
I6
sS'public.markColor'
p3
S'0,0.67,0.91,1'
p4
s."
PairPos2: "Pairwise Positioning (kerning) lookup 29 subtable" Kaottu dx=0 dy=0 dh=0 dv=0 dx=100 dy=-50 dh=9 dv=0
PairPos2: "Pairwise Positioning (kerning) lookup 29 subtable" CaOttu dx=0 dy=0 dh=0 dv=0 dx=100 dy=-50 dh=9 dv=0
PairPos2: "Pairwise Positioning (kerning) lookup 29 subtable" ChaOttu dx=0 dy=0 dh=0 dv=0 dx=100 dy=-50 dh=9 dv=0
PairPos2: "Pairwise Positioning (kerning) lookup 29 subtable" NaOttu dx=0 dy=0 dh=0 dv=0 dx=100 dy=-50 dh=9 dv=0
PairPos2: "Pairwise Positioning (kerning) lookup 29 subtable" PaOttu dx=0 dy=0 dh=0 dv=0 dx=100 dy=-50 dh=9 dv=0
PairPos2: "Pairwise Positioning (kerning) lookup 29 subtable" PhaOttu dx=0 dy=0 dh=0 dv=0 dx=100 dy=-50 dh=9 dv=0
PairPos2: "Pairwise Positioning (kerning) lookup 29 subtable" BaOttu dx=0 dy=0 dh=0 dv=0 dx=100 dy=-50 dh=9 dv=0
PairPos2: "Pairwise Positioning (kerning) lookup 29 subtable" BhaOttu dx=0 dy=0 dh=0 dv=0 dx=100 dy=-50 dh=9 dv=0
PairPos2: "Pairwise Positioning (kerning) lookup 29 subtable" MaOttu dx=0 dy=0 dh=0 dv=0 dx=100 dy=-50 dh=9 dv=0
PairPos2: "Pairwise Positioning (kerning) lookup 29 subtable" YaOttu dx=0 dy=0 dh=0 dv=0 dx=100 dy=-50 dh=9 dv=0
PairPos2: "Pairwise Positioning (kerning) lookup 29 subtable" LLaOttu dx=0 dy=0 dh=0 dv=0 dx=100 dy=-50 dh=9 dv=0
PairPos2: "Pairwise Positioning (kerning) lookup 29 subtable" VaOttu dx=0 dy=0 dh=0 dv=0 dx=100 dy=-50 dh=9 dv=0
PairPos2: "Pairwise Positioning (kerning) lookup 29 subtable" ShaOttu dx=0 dy=0 dh=0 dv=0 dx=100 dy=-50 dh=9 dv=0
PairPos2: "Pairwise Positioning (kerning) lookup 29 subtable" SaOttu dx=0 dy=0 dh=0 dv=0 dx=100 dy=-50 dh=9 dv=0
Position2: "Single Positioning lookup 28 subtable" dx=-1230 dy=-63 dh=0 dv=0
Position2: "Single Positioning lookup 27 subtable" dx=-800 dy=-65 dh=0 dv=0
Position2: "Single Positioning lookup 26 subtable" dx=-1521 dy=0 dh=0 dv=0
Position2: "Single Positioning lookup 25 subtable" dx=-1287 dy=27 dh=0 dv=0
Position2: "Single Positioning lookup 24 subtable" dx=-942 dy=-36 dh=0 dv=0
Position2: "Single Positioning lookup 23 subtable" dx=-1323 dy=25 dh=0 dv=0
Position2: "Single Positioning lookup 22 subtable" dx=-1108 dy=18 dh=0 dv=0
Position2: "Single Positioning lookup 21 subtable" dx=-1008 dy=0 dh=0 dv=0
Position2: "Single Positioning lookup 20 subtable" dx=-945 dy=10 dh=0 dv=0
Position2: "Single Positioning lookup 19 subtable" dx=-846 dy=18 dh=0 dv=0
Position2: "Single Positioning lookup 18 subtable" dx=-756 dy=9 dh=0 dv=0
Ligature2: "NTR-'blwf' Below Base Forms in Telugu lookup 2 subtable" Ta Halanth
EndChar

StartChar: Telugu0
Encoding: 561 3174 561
GlifName: T_elugu0
Width: 553
VWidth: 0
Flags: W
LayerCount: 2
Back
Fore
SplineSet
497 239 m 256
 497 391 412 495 274 495 c 256
 133 495 56 383 56 239 c 256
 56 95 137 -9 274 -9 c 256
 412 -9 497 92 497 239 c 256
  PathStart: -2
116 239 m 256
 116 363 177 440 274 440 c 256
 375 440 437 364 437 239 c 256
 437 119 374 46 274 46 c 257
 177 46 116 119 116 239 c 256
  PathStart: -2
EndSplineSet
PickledDataWithLists: "(dp1
S'com.schriftgestaltung.Glyphs.ColorIndex'
p2
I6
sS'public.markColor'
p3
S'0,0.67,0.91,1'
p4
s."
EndChar

StartChar: Telugu1
Encoding: 562 3175 562
GlifName: T_elugu1
Width: 553
VWidth: 0
Flags: W
LayerCount: 2
Back
Fore
SplineSet
175 20 m 256
 175 49 116 90 116 239 c 256
 116 363 177 440 274 440 c 257
 371 440 432 363 432 239 c 256
 432 94 373 49 373 20 c 256
 373 4 387 -9 402 -9 c 256
 411 -9 420 -4 426 5 c 256
 459 59 492 126 492 239 c 256
 492 383 415 495 274 495 c 256
 133 495 56 383 56 239 c 256
 56 126 89 59 122 5 c 256
 128 -4 137 -9 146 -9 c 256
 161 -9 175 4 175 20 c 256
  PathStart: -2
EndSplineSet
PickledDataWithLists: "(dp1
S'com.schriftgestaltung.Glyphs.ColorIndex'
p2
I6
sS'public.markColor'
p3
S'0,0.67,0.91,1'
p4
s."
EndChar

StartChar: Telugu2
Encoding: 563 3176 563
GlifName: T_elugu2
Width: 553
VWidth: 0
Flags: W
LayerCount: 2
Back
Fore
SplineSet
497 239 m 256
 497 391 412 495 274 495 c 256
 186 495 67 454 67 364 c 256
 67 309 109 269 167 269 c 256
 224 269 266 305 266 354 c 256
 266 388 240 418 217 430 c 257
 235 438 254 440 274 440 c 256
 375 440 437 364 437 239 c 256
 437 119 374 46 274 46 c 256
 214 46 165 65 128 101 c 256
 119 109 110 113 101 113 c 256
 86 113 75 99 75 85 c 256
 75 78 77 71 83 65 c 256
 130 19 195 -9 274 -9 c 256
 412 -9 497 92 497 239 c 256
  PathStart: -2
127 364 m 256
 127 385 143 404 167 404 c 256
 191 404 206 385 206 364 c 256
 206 343 191 324 167 324 c 256
 143 324 127 343 127 364 c 256
  PathStart: -2
EndSplineSet
PickledDataWithLists: "(dp1
S'com.schriftgestaltung.Glyphs.ColorIndex'
p2
I6
sS'public.markColor'
p3
S'0,0.67,0.91,1'
p4
s."
EndChar

StartChar: Telugu3
Encoding: 564 3177 564
GlifName: T_elugu3
Width: 553
VWidth: 0
Flags: W
LayerCount: 2
Back
Fore
SplineSet
473 128 m 256
 473 180 442 234 364 248 c 257
 441 266 470 319 470 370 c 256
 470 447 401 495 292 495 c 256
 190 495 99 434 99 397 c 256
 99 382 109 370 126 370 c 256
 156 370 173 440 292 440 c 256
 368 440 410 414 410 370 c 256
 410 330 398 271 257 271 c 256
 241 271 229 260 229 246 c 256
 229 231 241 221 257 221 c 256
 394 221 413 169 413 128 c 256
 413 82 381 46 277 46 c 256
 158 46 145 109 110 109 c 256
 96 109 85 95 85 81 c 256
 85 37 185 -9 277 -9 c 256
 411 -9 473 51 473 128 c 256
  PathStart: -2
EndSplineSet
PickledDataWithLists: "(dp1
S'com.schriftgestaltung.Glyphs.ColorIndex'
p2
I6
sS'public.markColor'
p3
S'0,0.67,0.91,1'
p4
s."
EndChar

StartChar: Telugu4
Encoding: 565 3178 565
GlifName: T_elugu4
Width: 553
VWidth: 0
Flags: W
LayerCount: 2
Back
Fore
SplineSet
477 359 m 256
 477 434 420 495 387 495 c 256
 375 495 363 484 363 471 c 256
 363 444 417 426 417 359 c 256
 417 273 322 263 274 263 c 256
 226 263 131 273 131 359 c 256
 131 426 185 444 185 471 c 256
 185 484 173 495 161 495 c 256
 128 495 71 434 71 359 c 256
 71 251 153 218 274 218 c 256
 395 218 477 251 477 359 c 256
  PathStart: -2
447 132 m 256
 447 206 381 258 274 258 c 256
 165 258 106 203 106 132 c 256
 106 52 165 -9 274 -9 c 256
 381 -9 447 49 447 132 c 256
  PathStart: -2
166 132 m 256
 166 182 208 213 274 213 c 256
 344 213 387 182 387 132 c 256
 387 78 344 46 274 46 c 256
 208 46 166 79 166 132 c 256
  PathStart: -2
EndSplineSet
PickledDataWithLists: "(dp1
S'com.schriftgestaltung.Glyphs.ColorIndex'
p2
I6
sS'public.markColor'
p3
S'0,0.67,0.91,1'
p4
s."
EndChar

StartChar: Telugu5
Encoding: 566 3179 566
GlifName: T_elugu5
Width: 553
VWidth: 0
Flags: W
LayerCount: 2
Back
Fore
SplineSet
514 112 m 256
 514 161 462 216 412 269 c 257
 457 309 495 355 495 403 c 257
 495 465 444 495 393 495 c 256
 339 495 285 463 285 399 c 256
 285 354 308 313 334 277 c 257
 57 41 l 258
 53 37 48 31 48 19 c 256
 48 2 60 -9 76 -9 c 256
 83 -9 90 -6 96 0 c 257
 369 231 l 257
 414 187 454 144 454 112 c 256
 454 69 419 45 332 45 c 256
 316 45 304 33 304 18 c 256
 304 2 316 -10 332 -10 c 256
 444 -10 514 24 514 112 c 256
  PathStart: -2
256 356 m 256
 256 438 210 495 141 495 c 256
 76 495 36 442 36 385 c 256
 36 368 49 355 66 355 c 256
 83 355 96 368 96 385 c 256
 96 411 112 440 141 440 c 256
 174 440 196 408 196 356 c 256
 196 257 155 121 82 47 c 257
 96 0 l 257
 201 94 256 241 256 356 c 256
  PathStart: -2
345 399 m 256
 345 427 369 440 392 440 c 256
 414 440 435 428 435 403 c 256
 435 374 411 344 378 315 c 257
 359 342 345 370 345 399 c 256
  PathStart: -2
EndSplineSet
PickledDataWithLists: "(dp1
S'com.schriftgestaltung.Glyphs.ColorIndex'
p2
I6
sS'public.markColor'
p3
S'0,0.67,0.91,1'
p4
s."
EndChar

StartChar: Telugu6
Encoding: 567 3180 567
GlifName: T_elugu6
Width: 553
VWidth: 0
Flags: W
LayerCount: 2
Back
Fore
SplineSet
276 56 m 257
 172 56 140 92 140 138 c 256
 140 179 159 231 296 231 c 256
 312 231 324 241 324 256 c 256
 324 270 312 281 296 281 c 256
 155 281 143 333 143 369 c 256
 143 414 181 440 251 440 c 256
 346 440 365 370 397 370 c 256
 414 370 424 382 424 397 c 256
 424 434 342 495 251 495 c 256
 148 495 83 447 83 369 c 256
 83 323 112 274 189 258 c 257
 111 244 80 190 80 138 c 256
 80 61 142 1 276 1 c 257
 276 56 l 257
505 1 m 258
 521 1 533 13 533 29 c 256
 533 44 521 56 505 56 c 258
 276 56 l 258
 260 56 248 44 248 29 c 256
 248 13 260 1 276 1 c 258
 505 1 l 258
EndSplineSet
PickledDataWithLists: "(dp1
S'com.schriftgestaltung.Glyphs.ColorIndex'
p2
I6
sS'public.markColor'
p3
S'0,0.67,0.91,1'
p4
s."
EndChar

StartChar: Telugu7
Encoding: 568 3181 568
GlifName: T_elugu7
Width: 553
VWidth: 0
Flags: W
LayerCount: 2
Back
Fore
SplineSet
485 98 m 256
 488 103 489 108 489 114 c 256
 489 127 480 142 460 142 c 256
 451 142 442 138 437 130 c 256
 403 83 330 47 264 47 c 256
 176 47 128 72 128 126 c 256
 128 174 159 191 272 209 c 256
 362 223 477 242 477 353 c 256
 477 435 390 495 273 495 c 256
 181 495 115 462 63 392 c 256
 59 386 56 380 56 373 c 256
 56 357 72 345 85 345 c 256
 94 345 104 350 110 358 c 256
 154 417 199 440 273 440 c 256
 358 440 417 402 417 353 c 256
 417 288 352 277 263 263 c 256
 177 250 68 231 68 126 c 256
 68 41 142 -9 261 -9 c 256
 347 -9 442 37 485 98 c 256
  PathStart: -2
EndSplineSet
PickledDataWithLists: "(dp1
S'com.schriftgestaltung.Glyphs.ColorIndex'
p2
I6
sS'public.markColor'
p3
S'0,0.67,0.91,1'
p4
s."
EndChar

StartChar: Telugu8
Encoding: 569 3182 569
GlifName: T_elugu8
Width: 553
VWidth: 0
Flags: W
LayerCount: 2
Back
Fore
SplineSet
475 247 m 256
 475 358 412 423 349 476 c 257
 296 461 l 257
 326 433 415 359 415 247 c 256
 415 123 354 46 257 46 c 256
 160 46 99 123 99 247 c 256
 99 396 158 437 158 466 c 256
 158 482 144 495 129 495 c 256
 120 495 111 490 105 481 c 256
 72 427 39 360 39 247 c 256
 39 103 116 -9 257 -9 c 256
 398 -9 475 103 475 247 c 256
  PathStart: -2
486 435 m 258
 502 435 514 447 514 463 c 256
 514 478 502 490 486 490 c 258
 307 490 l 258
 291 490 279 478 279 463 c 256
 279 447 291 435 307 435 c 258
 486 435 l 258
EndSplineSet
PickledDataWithLists: "(dp1
S'com.schriftgestaltung.Glyphs.ColorIndex'
p2
I6
sS'public.markColor'
p3
S'0,0.67,0.91,1'
p4
s."
EndChar

StartChar: Telugu9
Encoding: 570 3183 570
GlifName: T_elugu9
Width: 553
VWidth: 0
Flags: W
LayerCount: 2
Back
Fore
SplineSet
464 89 m 256
 464 104 454 116 437 116 c 256
 407 116 368 46 261 46 c 256
 185 46 143 72 143 117 c 256
 143 153 155 205 296 205 c 256
 312 205 324 216 324 230 c 256
 324 245 312 255 296 255 c 256
 159 255 140 307 140 348 c 256
 140 394 172 430 276 430 c 257
 276 485 l 257
 142 485 80 425 80 348 c 256
 80 296 111 242 189 228 c 257
 112 212 83 163 83 117 c 256
 83 39 152 -9 261 -9 c 256
 362 -9 464 52 464 89 c 256
  PathStart: -2
505 430 m 258
 521 430 533 442 533 457 c 256
 533 473 521 485 505 485 c 258
 276 485 l 258
 260 485 248 473 248 457 c 256
 248 442 260 430 276 430 c 258
 505 430 l 258
EndSplineSet
PickledDataWithLists: "(dp1
S'com.schriftgestaltung.Glyphs.ColorIndex'
p2
I6
sS'public.markColor'
p3
S'0,0.67,0.91,1'
p4
s."
EndChar

StartChar: Tha
Encoding: 571 3109 571
GlifName: T_ha
Width: 636
VWidth: 0
Flags: W
AnchorPoint: "Anchor-0" 0 0 basechar 0
LayerCount: 2
Back
Fore
SplineSet
333 394 m 256
 333 407 320 418 303 418 c 256
 271 418 264 427 264 446 c 256
 264 511 519 586 519 726 c 256
 519 743 506 756 489 756 c 256
 472 756 459 743 459 726 c 256
 459 619 204 565 204 446 c 256
 204 397 241 368 303 368 c 256
 320 368 333 380 333 394 c 256
  PathStart: -2
EndSplineSet
Refer: 572 -1 N 1 0 0 1 0 0 2
Refer: 763 -1 N 1 0 0 1 198 0 2
PickledDataWithLists: "(dp1
S'com.schriftgestaltung.Glyphs.ColorIndex'
p2
I6
sS'public.markColor'
p3
S'0,0.67,0.91,1'
p4
s."
EndChar

StartChar: Tha.base
Encoding: 572 -1 572
GlifName: T_ha.base
Width: 636
VWidth: 0
Flags: W
LayerCount: 2
Back
Fore
SplineSet
279 171 m 257
 246 171 l 257
 262 122 310 -9 439 -9 c 256
 543 -9 616 78 616 186 c 256
 616 242 563 423 315 423 c 256
 152 423 30 340 30 185 c 256
 30 71 74 -9 141 -9 c 256
 239 -9 269 122 279 171 c 257
  PathStart: -2
90 185 m 256
 90 299 173 368 315 368 c 256
 450 368 556 287 556 186 c 256
 556 107 506 51 439 51 c 256
 390 51 352 81 323 140 c 256
 308 171 292 187 267 187 c 256
 235 187 219 168 207 131 c 256
 190 78 167 51 141 51 c 256
 116 51 90 105 90 185 c 256
  PathStart: -2
385 261 m 256
 385 288 362 311 334 311 c 256
 306 311 284 288 284 261 c 256
 284 233 306 210 334 210 c 256
 362 210 385 233 385 261 c 256
  PathStart: -2
EndSplineSet
PickledDataWithLists: "(dp1
S'com.schriftgestaltung.Glyphs.ColorIndex'
p2
I6
sS'public.markColor'
p3
S'0,0.67,0.91,1'
p4
s."
EndChar

StartChar: ThaI
Encoding: 578 -1 578
GlifName: T_haI_
Width: 700
VWidth: 0
Flags: W
AnchorPoint: "Anchor-0" 0 0 basechar 0
LayerCount: 2
Back
Fore
SplineSet
485 261 m 256
 485 288 462 311 434 311 c 256
 406 311 384 288 384 261 c 256
 384 233 406 210 434 210 c 256
 462 210 485 233 485 261 c 256
  PathStart: -2
EndSplineSet
Refer: 122 -1 N 1 0 0 1 0 0 2
Refer: 763 -1 N 1 0 0 1 198 0 2
PickledDataWithLists: "(dp1
S'com.schriftgestaltung.Glyphs.ColorIndex'
p2
I6
sS'public.markColor'
p3
S'0,0.67,0.91,1'
p4
s."
Ligature2: "NTR-'abvs' Above Base Substitutions in Telugu lookup 10 subtable" Tha Imatra
EndChar

StartChar: ThaII
Encoding: 579 -1 579
GlifName: T_haI_I_
Width: 700
VWidth: 0
Flags: W
AnchorPoint: "Anchor-0" 0 0 basechar 0
LayerCount: 2
Back
Fore
SplineSet
485 261 m 256
 485 288 462 311 434 311 c 256
 406 311 384 288 384 261 c 256
 384 233 406 210 434 210 c 256
 462 210 485 233 485 261 c 256
  PathStart: -2
EndSplineSet
Refer: 123 -1 N 1 0 0 1 0 0 2
Refer: 763 -1 N 1 0 0 1 198 0 2
PickledDataWithLists: "(dp1
S'com.schriftgestaltung.Glyphs.ColorIndex'
p2
I6
sS'public.markColor'
p3
S'0,0.67,0.91,1'
p4
s."
Ligature2: "NTR-'abvs' Above Base Substitutions in Telugu lookup 11 subtable" Tha IIMatra
EndChar

StartChar: ThaOttu
Encoding: 582 -1 582
GlifName: T_haO_ttu
Width: 30
VWidth: 0
Flags: W
AnchorPoint: "Anchor-0" -45 25 mark 0
LayerCount: 2
Back
Fore
SplineSet
278 -215 m 257
 257 -220 l 257
 288 -271 318 -350 425 -350 c 256
 501 -350 568 -292 568 -219 c 256
 568 -102 445 -36 315 -36 c 256
 169 -36 74 -110 74 -219 c 256
 74 -297 114 -351 167 -351 c 256
 228 -351 263 -265 278 -215 c 257
  PathStart: -2
124 -219 m 256
 124 -135 197 -81 315 -81 c 256
 434 -81 518 -139 518 -219 c 256
 518 -265 476 -305 425 -305 c 256
 327 -305 326 -195 267 -195 c 256
 224 -195 209 -306 167 -306 c 256
 145 -306 124 -270 124 -219 c 256
  PathStart: -2
451 -203 m 256
 451 -178 431 -157 406 -157 c 256
 381 -157 360 -178 360 -203 c 256
 360 -228 381 -248 406 -248 c 256
 431 -248 451 -228 451 -203 c 256
  PathStart: -2
EndSplineSet
Refer: 763 -1 N 0.79 0 0 0.79 216 -343 2
PickledDataWithLists: "(dp1
S'com.schriftgestaltung.Glyphs.ColorIndex'
p2
I6
sS'public.markColor'
p3
S'0,0.67,0.91,1'
p4
s."
Ligature2: "NTR-'blwf' Below Base Forms in Telugu lookup 2 subtable" Tha Halanth
EndChar

StartChar: Thorn
Encoding: 585 222 585
GlifName: T_horn
Width: 503
VWidth: 0
Flags: W
LayerCount: 2
Back
Fore
SplineSet
141 30 m 258
 141 107 l 257
 278 107 l 258
 416 107 478 181 478 273 c 256
 478 365 416 440 278 440 c 258
 141 440 l 257
 141 493 l 258
 141 512 125 527 107 527 c 256
 88 527 73 512 73 493 c 258
 73 30 l 258
 73 11 88 -4 107 -4 c 256
 125 -4 141 11 141 30 c 258
  PathStart: -2
141 375 m 257
 271 375 l 258
 327 375 410 366 410 273 c 256
 410 215 374 171 271 171 c 258
 141 171 l 257
 141 375 l 257
EndSplineSet
PickledDataWithLists: "(dp1
S'com.schriftgestaltung.Glyphs.ColorIndex'
p2
I9
sS'public.markColor'
p3
S'0.98,0.36,0.67,1'
p4
s."
EndChar

StartChar: U
Encoding: 587 85 587
GlifName: U_
Width: 569
VWidth: 0
Flags: W
LayerCount: 2
Back
Fore
SplineSet
500 197 m 258
 500 493 l 258
 500 512 484 527 465 527 c 256
 446 527 431 512 431 493 c 258
 431 194 l 258
 431 105 363 55 284 55 c 256
 206 55 137 105 137 194 c 258
 137 493 l 258
 137 512 122 527 103 527 c 256
 84 527 69 512 69 493 c 258
 69 197 l 258
 69 65 170 -8 284 -8 c 256
 396 -8 500 65 500 197 c 258
  PathStart: -2
EndSplineSet
PickledDataWithLists: "(dp1
S'com.schriftgestaltung.Glyphs.ColorIndex'
p2
I9
sS'public.markColor'
p3
S'0.98,0.36,0.67,1'
p4
s."
EndChar

StartChar: UMatra
Encoding: 588 3137 588
GlifName: U_M_atra
Width: 369
VWidth: 0
Flags: W
LayerCount: 2
Back
Fore
SplineSet
326 164 m 256
 326 287 206 385 150 418 c 256
 145 421 139 423 133 423 c 256
 117 423 103 410 103 393 c 256
 103 382 109 373 118 367 c 256
 220 299 266 230 266 164 c 256
 266 92 206 46 117 46 c 256
 29 46 -36 88 -36 143 c 256
 -36 160 -43 173 -61 173 c 256
 -77 173 -86 160 -86 143 c 256
 -86 55 -18 -9 117 -9 c 256
 245 -9 326 60 326 164 c 256
  PathStart: -2
EndSplineSet
PickledDataWithLists: "(dp1
S'com.schriftgestaltung.Glyphs.ColorIndex'
p2
I6
sS'public.markColor'
p3
S'0,0.67,0.91,1'
p4
s."
EndChar

StartChar: UMatra.telu
Encoding: 589 -1 589
GlifName: U_M_atra.telu
Width: 621
VWidth: 0
Flags: W
LayerCount: 2
Back
Fore
SplineSet
578 164 m 256
 578 287 458 385 402 418 c 256
 397 421 391 423 385 423 c 256
 369 423 355 410 355 393 c 256
 355 382 361 373 370 367 c 256
 472 299 518 230 518 164 c 256
 518 92 466 46 389 46 c 256
 331 46 266 88 266 143 c 256
 266 160 259 173 241 173 c 256
 225 173 216 160 216 143 c 256
 216 55 283 -9 389 -9 c 256
 505 -9 578 60 578 164 c 256
  PathStart: -2
271 154 m 256
 271 210 248 255 226 303 c 257
 220 314 210 320 200 320 c 256
 183 320 168 307 168 291 c 256
 169 265 216 221 216 154 c 256
 216 88 164 46 87 46 c 256
 29 46 -36 88 -36 143 c 256
 -36 160 -43 173 -61 173 c 256
 -77 173 -86 160 -86 143 c 256
 -86 55 -18 -9 87 -9 c 256
 200 -9 271 56 271 154 c 256
  PathStart: -2
EndSplineSet
PickledDataWithLists: "(dp1
S'com.schriftgestaltung.Glyphs.ColorIndex'
p2
I6
sS'public.markColor'
p3
S'0,0.67,0.91,1'
p4
s."
EndChar

StartChar: UU
Encoding: 590 3082 590
GlifName: U_U_
Width: 1065
VWidth: 0
Flags: W
LayerCount: 2
Back
Fore
SplineSet
412 96 m 257
 465 30 534 -9 606 -9 c 256
 694 -9 761 52 761 131 c 256
 761 198 716 245 651 245 c 256
 591 245 544 205 544 154 c 256
 544 137 557 124 574 124 c 256
 591 124 604 137 604 154 c 256
 604 173 624 190 651 190 c 256
 681 190 701 167 701 131 c 256
 701 82 661 47 606 47 c 256
 554 47 500 72 460 126 c 256
 448 142 431 151 412 151 c 256
 391 151 374 138 362 118 c 256
 335 74 300 47 268 47 c 256
 218 47 183 100 183 190 c 256
 183 307 291 406 442 406 c 256
 547 406 603 359 617 359 c 256
 631 359 648 369 648 389 c 256
 648 432 520 461 442 461 c 256
 258 461 123 338 123 190 c 256
 123 68 178 -9 268 -9 c 256
 324 -9 378 32 412 96 c 257
  PathStart: -2
914 293 m 258
 929 294 940 306 940 322 c 256
 939 337 927 349 912 348 c 258
 57 305 l 258
 41 304 30 292 30 276 c 256
 31 261 43 249 58 250 c 258
 914 293 l 258
805 466 m 256
 805 483 792 496 775 496 c 256
 758 496 745 483 745 466 c 256
 745 449 758 436 775 436 c 256
 792 436 805 449 805 466 c 256
  PathStart: -2
1042 228 m 256
 1042 294 983 350 913 350 c 257
 913 295 l 257
 950 295 982 264 982 228 c 256
 982 192 957 167 922 167 c 256
 891 167 872 186 872 219 c 256
 872 306 1011 333 1011 466 c 256
 1011 533 949 586 872 586 c 256
 797 586 745 537 745 466 c 257
 805 466 l 257
 805 506 830 531 872 531 c 256
 917 531 951 502 951 466 c 256
 951 362 812 336 812 219 c 256
 812 156 858 112 922 112 c 256
 990 112 1042 162 1042 228 c 256
  PathStart: -2
EndSplineSet
Refer: 763 -1 N 1 0 0 -1 292 453 2
Refer: 763 -1 N 1 0 0 -1 412 453 2
PickledDataWithLists: "(dp1
S'com.schriftgestaltung.Glyphs.ColorIndex'
p2
I6
sS'public.markColor'
p3
S'0,0.67,0.91,1'
p4
s."
EndChar

StartChar: UU.telu
Encoding: 591 -1 591
GlifName: U_U_.telu
Width: 818
VWidth: 0
Flags: W
LayerCount: 2
Back
Fore
SplineSet
591 114 m 256
 591 183 521 230 468 265 c 256
 404 309 389 324 389 339 c 256
 389 374 437 399 524 399 c 256
 643 399 720 356 720 295 c 256
 720 262 700 241 673 241 c 256
 650 241 636 257 636 284 c 256
 636 301 623 314 606 314 c 256
 589 314 576 301 576 284 c 256
 576 231 617 191 673 191 c 256
 734 191 780 236 780 295 c 256
 780 390 678 449 524 449 c 256
 401 449 329 410 329 339 c 256
 329 285 387 247 434 215 c 256
 508 166 531 142 531 114 c 256
 531 74 488 47 419 47 c 256
 337 47 266 92 266 172 c 256
 266 189 259 202 241 202 c 256
 228 202 221 189 221 172 c 256
 221 78 302 -8 419 -8 c 256
 521 -8 591 42 591 114 c 256
  PathStart: -2
271 154 m 256
 271 210 248 255 226 303 c 257
 220 314 210 320 200 320 c 256
 183 320 168 307 168 291 c 256
 169 265 216 221 216 154 c 256
 216 88 164 46 87 46 c 256
 29 46 -36 88 -36 143 c 256
 -36 160 -43 173 -61 173 c 256
 -77 173 -86 160 -86 143 c 256
 -86 55 -18 -9 87 -9 c 256
 200 -9 271 56 271 154 c 256
  PathStart: -2
EndSplineSet
PickledDataWithLists: "(dp1
S'com.schriftgestaltung.Glyphs.ColorIndex'
p2
I6
sS'public.markColor'
p3
S'0,0.67,0.91,1'
p4
s."
EndChar

StartChar: UUMatra
Encoding: 592 3138 592
GlifName: U_U_M_atra
Width: 501
VWidth: 0
Flags: W
LayerCount: 2
Back
Fore
SplineSet
289 110 m 256
 289 179 219 225 166 261 c 256
 102 305 87 324 87 340 c 256
 87 375 135 400 222 400 c 256
 332 400 403 367 403 306 c 256
 403 273 383 252 356 252 c 256
 333 252 319 268 319 295 c 256
 319 312 306 325 289 325 c 256
 272 325 259 312 259 295 c 256
 259 242 300 202 356 202 c 256
 417 202 463 247 463 306 c 256
 463 401 367 450 222 450 c 256
 99 450 27 411 27 340 c 256
 27 284 85 243 132 211 c 256
 206 159 229 138 229 110 c 256
 229 73 186 48 117 48 c 256
 35 48 -36 103 -36 153 c 256
 -36 170 -43 183 -61 183 c 256
 -77 183 -86 170 -86 153 c 256
 -86 70 -3 -7 117 -7 c 256
 219 -7 289 41 289 110 c 256
  PathStart: -2
EndSplineSet
PickledDataWithLists: "(dp1
S'com.schriftgestaltung.Glyphs.ColorIndex'
p2
I6
sS'public.markColor'
p3
S'0,0.67,0.91,1'
p4
s."
EndChar

StartChar: Uacute
Encoding: 593 218 593
GlifName: U_acute
Width: 569
VWidth: 0
Flags: W
LayerCount: 2
Back
Fore
SplineSet
500 197 m 258
 500 493 l 258
 500 512 484 527 465 527 c 256
 446 527 431 512 431 493 c 258
 431 194 l 258
 431 105 363 55 284 55 c 256
 206 55 137 105 137 194 c 258
 137 493 l 258
 137 512 122 527 103 527 c 256
 84 527 69 512 69 493 c 258
 69 197 l 258
 69 65 170 -8 284 -8 c 256
 396 -8 500 65 500 197 c 258
  PathStart: -2
284 563 m 258
 335 624 l 257
 341 629 343 636 343 643 c 256
 343 662 333 671 313 671 c 256
 303 671 296 666 290 656 c 258
 252 589 l 257
 248 585 247 580 247 572 c 256
 247 563 255 554 268 554 c 256
 274 554 279 557 284 563 c 258
  PathStart: -2
EndSplineSet
PickledDataWithLists: "(dp1
S'com.schriftgestaltung.Glyphs.ColorIndex'
p2
I9
sS'public.markColor'
p3
S'0.98,0.36,0.67,1'
p4
s."
EndChar

